<svg id="Layer_1" data-name="Layer 1" xmlns="http://www.w3.org/2000/svg" viewBox="0 0 709.7 476">
  <g>
    <path d="M179.24,43C86.44,35.58,8.47,145.43,46.53,230.32c37.08,92.12,176.62,117.1,243,43.33,64.31-63,89.09-160,167.84-209.8,80-54.65,208.83-3.05,224.44,94.07,15.22,93-85,183.45-175.65,156.13-67-15.13-115.14-72.41-142.47-132.71C330,123.76,286,62.29,217.3,46.67A167.43,167.43,0,0,0,180,42.83Z" transform="translate(-7.17 -12.1)" style="fill: none;stroke: #00979c;stroke-width: 59px"/>
    <path d="M124.6,174.7H241.7" transform="translate(-7.17 -12.1)" style="fill: none;stroke: #00979c;stroke-width: 25px"/>
    <path d="M483.7,174.7h97.58m-49.77-48.79v97.58" transform="translate(-7.17 -12.1)" style="fill: none;stroke: #00979c;stroke-width: 32px"/>
  </g>
  <path d="M84,485l-6.4-23H37l-6.6,23H8.7L43.1,369H73.7l34.4,116ZM57.6,390,42.3,444.1H72.7ZM180,485s-11.7-27.6-18.3-41c-3.83-5.76-11.4-8-18-7.1-.6,15.7-.48,48.1-.48,48.1h-21.9V369s33-1,49.4,1.2c34.7,3.92,37,54.4,2.13,59.7,6.54,2.6,10.5,8.65,13.3,14.8l17.5,36.2c1.23,2.48,1.2,4.4-2.34,4.38Zm-5.42-82.1c-.1-17.9-18-15.9-31.3-16v32.8C159,420.23,174.28,418.63,174.58,402.9ZM302,455c-10.6,24.5-33.8,30.2-55.8,29.8H219.3v-116l40.9.2c50.6,1.65,52.4,56.2,41.7,86.4Zm-28-61.3c-10.2-8.76-21.4-7-32.8-7v79.7c10,0,20.9.8,29.4-5.4,18.1-11.4,15.8-54.6,3.35-67.3ZM407,442c2.17,58.6-81.5,58.4-84,12.7-1.53-14-.27-28-.68-42V368.5h21.9l.4,83c2.57,22.9,33,20.9,37.6,8.2,4.66-10.1,2.5-21.5,3-32.3V368.5h21.9V442Zm21-56V368.1h73.5V386H475.9v80.4h25.6v18.1H428V466.4h25.6V386Zm155,99-37.6-84.4V485H525.5V369h26.9l37.4,83.6c.1-6,0-83.6,0-83.6h19.9V485Zm117-10c-24.3,20.9-66.7,16.3-75.1-24.9-11.5-62.6,22.4-98.6,69.6-77.6,29,16.3,27.4,83.4,5.5,103Zm-29.3-88.7c-20.7-.55-23.7,20.6-24.5,30.8-.17,19.3-1.88,51.4,24.9,50,8.3,0,15.5-6,18.2-13.7,5.45-12.1,9.56-68.1-18.6-67.1ZM676,13.4v2.34h5.15v13.6h2.66V15.74H689V13.4Zm14.8,0V29.3h2.43V15.7l4.3,13.6h2.4L704,16V29.3h2.4V13.4h-3.8l-3.9,12.7-4-12.7Z" transform="translate(-7.17 -12.1)" style="fill: #00979c;stroke: #00979c"/>
</svg>
