<svg xmlns="http://www.w3.org/2000/svg" xmlns:xlink="http://www.w3.org/1999/xlink" viewBox="0 0 1370.95 914.5"><defs><linearGradient id="linear-gradient" x1="492.09" y1="598.4" x2="566.17" y2="598.4" gradientUnits="userSpaceOnUse"><stop offset="0" stop-color="#fbd0d9"/><stop offset="0.45" stop-color="#da9cb1"/><stop offset="0.59" stop-color="#d695ac"/><stop offset="0.8" stop-color="#c9829f"/><stop offset="1" stop-color="#ba6a8f"/></linearGradient><linearGradient id="linear-gradient-2" x1="897.3" y1="587.04" x2="922.81" y2="631.24" gradientUnits="userSpaceOnUse"><stop offset="0" stop-color="#ba6a8f"/><stop offset="0.65" stop-color="#da9cb1"/><stop offset="0.74" stop-color="#dea3b6"/><stop offset="0.87" stop-color="#ebb6c5"/><stop offset="1" stop-color="#fbd0d9"/></linearGradient><linearGradient id="linear-gradient-3" x1="1167.05" y1="834" x2="1204.44" y2="834" gradientUnits="userSpaceOnUse"><stop offset="0" stop-color="#fff"/><stop offset="0.65" stop-color="#38529f"/></linearGradient><linearGradient id="linear-gradient-4" x1="1167.82" y1="777.5" x2="1220.33" y2="777.5" xlink:href="#linear-gradient-3"/><linearGradient id="linear-gradient-5" x1="1160.17" y1="735.36" x2="1257.13" y2="735.36" gradientUnits="userSpaceOnUse"><stop offset="0" stop-color="#fff"/><stop offset="0.65" stop-color="#fcfcfc"/></linearGradient><linearGradient id="linear-gradient-6" x1="1181.62" y1="728.97" x2="1245.36" y2="728.97" xlink:href="#linear-gradient-5"/></defs><g id="Layer_2" data-name="Layer 2"><g id="Banner"><path d="M585.32,85.94,724,71C684.51,70.34,635.34,73.22,585.32,85.94Z" style="fill:#97c0f6"/><path d="M1355.08,407c-19.88-71.47-52.6-118.75-69-142,0,0-37.22-53.35-108-101-12.55-8.45-26.73-17-43-14-32,5.82-46,51.38-48,58C1053.3,167.94,935.81,38.61,744.33,8.09L637.08,218s-423,41-420,285c2.58,209.49,53.8,351.9,68.24,388,403.39,8.15,569.35,11.17,630.76,12,147.19,2,109.55-2.82,163,0,50.24,2.65,66.23,6,92-2,49.65-15.43,77.31-54.92,110-103,25.62-37.68,68.29-101.93,84-199C1380,506.64,1362.58,433.93,1355.08,407Z" style="fill:#97c0f6"/><polygon points="532.08 879 529.08 901 921.08 900 920.08 860 725.08 804 532.08 879" style="fill:#314a9a"/><path d="M938.08,716s7,65-15,77-41,17-42,17-49-3-49-3-19-9-8-18,24-43,37-49S938.08,716,938.08,716Z" style="fill:#7195e1"/><path d="M627.08,676c0,2,9,41,9,41s52.7,25.17,54.35,27.09,48.3,9.87,50.48,9.39S799.08,735,802.08,733s9-33,9-36-11-44-11-44Z" style="fill:#1a1e3b"/><path d="M932.08,709s11,32,0,45-31.69,34.69-45.35,38.35S822.08,802,822.08,802s-5-21-3-24,69-53,69-53Z" style="fill:#3a54a8"/><path d="M504.08,721s-18,20-8,47,12,27,45,34,59-9,59-9-4-25-5-27S504.08,721,504.08,721Z" style="fill:#7196e4"/><path d="M517.08,741s-18,35,25,55,51,4,51,4l-11-32Z" style="fill:#3a56a9"/><path d="M956.65,647.83S974.08,676,959.08,705s-70,62-70,62l-81,52-29-7-22-14s6-19,14-24,134-128,137-128S956.65,647.83,956.65,647.83Z" style="fill:#213051"/><path d="M796.47,855s-20.39-3-18.39-18,23-40,23-40l7-2,9,2,7.57,12.56L822.08,841" style="fill:#ba5e91"/><path d="M593.08,682s15-40-3-29c-17.28,10.56-114-1-114-1a73.47,73.47,0,0,1-2-8c-1-5,0-10,2-16s8-16,11-21c2.84-4.73,21.78-31.82,23.82-34.74.11-.17.18-.26.18-.26a14.33,14.33,0,0,1,3.55.55c11.94,4.75,48,30.71,51.45,32.45l.09,0c-.21,3.66-5.32,8.27-6,8.89h0l0,0h0a98.52,98.52,0,0,1,32,2c18,4,30,30,30,30l4,38Z" style="fill:#fbd0d9"/><path d="M869.08,604s4,8,9,10c0,0-31-3-53,7s-13,52-13,52,8.48,4.74,10.74,5.87S840.08,681,841.08,681s7-3,7-7-14.66-36.52-2-25c11,10,42.14-2.44,47-2,2.39.21,2.8-4.68,5-3.79l2,.79,55,11s5-19-3-35-34-58-34-58S861.08,594,869.08,604Z" style="fill:#fdd0d7"/><path d="M566.17,605.05c-.21,3.66-5.32,8.27-6,8.89h0l0,0h0s-15,0-32,1c-16.73,1-35.41,9.72-36,10,2-2,6-5,15-9s28-6,33-7,3-1,1-6-18-16-26-21c-6.92-4.33-4.86-8.65-4.18-9.74.11-.17.18-.26.18-.26.52-.39,1.77-.15,3.55.55,11.94,4.75,48,30.71,51.45,32.45Z" style="fill:url(#linear-gradient)"/><path d="M925.08,571s3,9-2,12-25.28,16.42-29,22c-2,3-4.81,4.59,0,7,2,1,7,0,7,0s13,0,19,3,15,7,17,8a108.51,108.51,0,0,0-22-7c-11-2-34-3-39-2,0,0-5-6-3-10S925.08,571,925.08,571Z" style="fill:url(#linear-gradient-2)"/><path d="M925.08,638c-5.07-.51-46-7-78,18s11,34,20,34,34-11,36-14S945.08,640,925.08,638Z" style="fill:#212749"/><path d="M515.08,634s51,3,64,26-64-13-64-13-8-14-3-13S515.08,634,515.08,634Z" style="fill:#212749"/><path d="M815.08,795c-4.38,11.89-17,34-25.81,48.82C784,852.7,780.08,859,780.08,859l-63.5-26.5-122-29-24-15s-76-54-90-69-15-42-15-42a49.75,49.75,0,0,1,1.55-10.71,56.53,56.53,0,0,1,13.45-25.29c15-16,39-9,39-9L634.08,696Z" style="fill:#343e71"/><path d="M789.27,843.82C784,852.7,780.08,859,780.08,859l-63.5-26.5-122-29-24-15s-76-54-90-69-15-42-15-42a49.75,49.75,0,0,1,1.55-10.71C469,688.36,505.08,714,505.08,714l81,43Z" style="fill:#212749"/><path d="M642.08,853s4,3,13-2,5.74-12.22,5.74-12.22L635.08,806s-9.69-4.57-9.35-4.78S614.08,804,614.08,804l3,33,15,17Z" style="fill:#ba5e91"/><path d="M639.08,218,746.33,8.09c-4.71-.75-9.45-1.46-14.25-2.09A667.5,667.5,0,0,0,654,0L515.32,14.94c-56.21,14.29-113.48,41-159.24,89.06a293.76,293.76,0,0,0-40,53c-33.95,2-127.95,12.25-203,85-58.43,56.64-74.92,121.67-92,189-13.82,54.49-38.54,152-2,268,29.68,94.22,85.83,156.36,121,189l147.24,3c-14.44-36.09-65.66-178.5-68.24-388C216.08,259,639.08,218,639.08,218Z" style="fill:#d0e6fd"/><path d="M538.8,793.39l-29.22.11s-21,2-30,17-7,27-7,27v30s1,13,11,20,44.85,3.91,44.85,3.91Z" style="fill:#4a67b7"/><path d="M644.58,854.5c-2,4-17,10-17,10s-88,27-96,27c-6,0-13.74-5.1-20.18-14h0a61.35,61.35,0,0,1-5.82-10c-7-15-12-41,7-60s50-17,55-16,51,4,51,4c14,5,5,16,8,18s0,10,0,10l-2,1-.11.11c-.53.55-2.89,3.11-2.89,4.89,0,2,6-4,9-4s5,9,5,16S644.58,854.5,644.58,854.5Z" style="fill:#fff"/><path d="M644.58,854.5c-2,4-17,10-17,10s-88,27-96,27c-6,0-13.74-5.1-20.18-14h0s4.18-22,23.18-29,70-20,70-20,14.35-2,19.89-3.89c-.53.55-2.89,3.11-2.89,4.89,0,2,6-4,9-4s5,9,5,16S644.58,854.5,644.58,854.5Z" style="fill:#bed2f5"/><path d="M127.58,891.5s-8,1-8,8v9s0,6,7,5,1143,1,1143,1,7-1,8-5,0-12,0-12-2-6-8-6Z" style="fill:#38529f"/><path d="M886.08,740s-86,54-109,67-120,54-120,54l-8.71-15.19L614.08,786l91.5-50.5L859.08,663s19.91-18.41,41.11-27.5c8.85-3.8,17.94-6,25.89-4.5,27,5,34,20,34,20C978.08,709,886.08,740,886.08,740Z" style="fill:#353f72"/><path d="M886.08,740s-86,54-109,67-120,54-120,54l-8.71-15.19.45-1.29S730.08,807,761.08,784s104-83,134-143l5.11-5.5c8.85-3.8,17.94-6,25.89-4.5,27,5,34,20,34,20C978.08,709,886.08,740,886.08,740Z" style="fill:#27325b"/><path d="M537.49,890.46S521.08,882,516.08,871s-8-16-7-28c0,0,4,23,11,29,12.45,10.67,16,12,29,15Z" style="fill:#4a67b7"/><path d="M563.89,824.26c3.46,3.54,3.25,9.47,3.39,14.07a124.38,124.38,0,0,1-.78,17.89c-.22,1.91,2.78,1.9,3,0a123.84,123.84,0,0,0,.73-19.35c-.22-5.1-.43-10.86-4.22-14.73-1.35-1.39-3.47.74-2.12,2.12Z" style="fill:#4a67b7"/><path d="M579.57,821.83c1.62,5.79,3.28,11.68,3.34,17.73a28,28,0,0,1-1.07,8.29c-.66,2.21-2.52,5-.88,7.2,1.14,1.53,3.75,0,2.59-1.52-.63-.85.18-2.11.52-3a24.55,24.55,0,0,0,1.2-4.09,32.74,32.74,0,0,0,.6-8.26c-.28-5.86-1.84-11.55-3.41-17.17a1.5,1.5,0,0,0-2.89.79Z" style="fill:#4a67b7"/><path d="M592.62,821.22c2.59,10.49,5.27,21.55,2.54,32.3-.47,1.87,2.42,2.67,2.9.8,2.86-11.29.18-22.87-2.55-33.9-.46-1.87-3.35-1.08-2.89.8Z" style="fill:#4a67b7"/><path d="M606.47,818.84c1.17,11.41,5.92,22.95,1,34.14-.77,1.75,1.81,3.28,2.59,1.52a33.5,33.5,0,0,0,2.4-17.39c-.69-6.14-2.38-12.13-3-18.27-.2-1.91-3.2-1.93-3,0Z" style="fill:#4a67b7"/><path d="M620.58,815.74a2.43,2.43,0,0,0-.63.52,3.27,3.27,0,0,0-.35.48,3.85,3.85,0,0,0-.22.52,2.63,2.63,0,0,0-.13.84,2.44,2.44,0,0,0,.13.8,3,3,0,0,0,.59,1,2.71,2.71,0,0,0,.66.51,3,3,0,0,0,.76.28,3,3,0,0,0,1.22,0,1.57,1.57,0,0,0,.66-.38,1.11,1.11,0,0,0,.31-.49,1.15,1.15,0,0,0,.13-.58,1.42,1.42,0,0,0-.21-.75l-.9-1.56-.24,1.82,0,0-.31.23.18-.1-.35.15a.88.88,0,0,1,.23-.07l-.4.06H622a1.08,1.08,0,0,0,.58-.13,1.14,1.14,0,0,0,.48-.31,1.5,1.5,0,0,0,.44-1.06,1.56,1.56,0,0,0-.44-1.06l-.3-.23A1.48,1.48,0,0,0,622,816h-.21a2.52,2.52,0,0,0-.55.08,2.66,2.66,0,0,0-1,.55l-.23.3a1.12,1.12,0,0,0-.18.56.68.68,0,0,0,0,.4,1.16,1.16,0,0,0,.18.56l.9,1.55.9-2.2-.12,0,.4,0a1,1,0,0,1-.3,0l.4.06a1.68,1.68,0,0,1-.32-.09l.36.15a1.31,1.31,0,0,1-.28-.17l.3.23a1,1,0,0,1-.21-.21l.23.3a1,1,0,0,1-.13-.23l.15.36a1,1,0,0,1-.08-.29l0,.4a1.71,1.71,0,0,1,0-.32l0,.4a1.87,1.87,0,0,1,.08-.32l-.15.36a2.54,2.54,0,0,1,.16-.28l-.23.3a2.08,2.08,0,0,1,.21-.21l-.31.24.12-.08a1.55,1.55,0,0,0,.69-.9,1,1,0,0,0,0-.6,1.16,1.16,0,0,0-.18-.56,1.5,1.5,0,0,0-.89-.69,1.61,1.61,0,0,0-1.16.16Z" style="fill:#4a67b7"/><path d="M628.79,830.7a1.68,1.68,0,0,0-.65.26,2,2,0,0,0-.54.43,3.32,3.32,0,0,0-.32.42,3.63,3.63,0,0,0-.22.5.75.75,0,0,0,0,.16,2.34,2.34,0,0,0,0,.26,2.66,2.66,0,0,0,0,.28,2.42,2.42,0,0,0,.06.54.47.47,0,0,0,0,.17,2.41,2.41,0,0,0,.53.9l.11.11a3.36,3.36,0,0,0,.43.31,4.1,4.1,0,0,0,.48.21l.17,0a3.55,3.55,0,0,0,.47.06h.09a3.43,3.43,0,0,0,.56-.07.55.55,0,0,0,.17,0,2.11,2.11,0,0,0,.51-.23,1.12,1.12,0,0,0,.42-.39,1.14,1.14,0,0,0,.27-.51,1.07,1.07,0,0,0,0-.59,1.12,1.12,0,0,0-.18-.56,1.5,1.5,0,0,0-.89-.69l-.4,0a1.47,1.47,0,0,0-.76.2l-.13.08.36-.16a1,1,0,0,1-.23.06l.4,0h-.23l.4,0a.77.77,0,0,1-.26-.07l.36.15-.2-.11.3.23-.16-.16.23.3a.83.83,0,0,1-.09-.16l.15.36a.73.73,0,0,1-.05-.2l.05.4a.81.81,0,0,1,0-.22l-.05.4a1,1,0,0,1,.06-.23l-.15.36a1.09,1.09,0,0,1,.14-.23l-.24.31a.91.91,0,0,1,.17-.17l-.3.23a1.18,1.18,0,0,1,.19-.11l-.36.16a.6.6,0,0,1,.19-.06,1,1,0,0,0,.51-.26,1.21,1.21,0,0,0,.39-.42,1.16,1.16,0,0,0,.18-.56,1.22,1.22,0,0,0,0-.6,1.55,1.55,0,0,0-.69-.9l-.36-.15a1.55,1.55,0,0,0-.8,0Z" style="fill:#4a67b7"/><path d="M906.58,797.5s10-4,17-4,24,3,31,11,10,13,12,18,0,48,0,48-3,9-8,14-19,11-19,11-19.82,4.87-30.41-5.07Z" style="fill:#4360b0"/><path d="M929.08,876c-.83.75-1.66,1.48-2.48,2.19A123.47,123.47,0,0,1,906.82,892s-59.74-16-77.74-21-33-9-34-18c0,0,10-1,10-8s-8-9-2-16,15,0,15,0h4a3.21,3.21,0,0,0-.72-1.71c-.74-1-2.24-2.28-5.28-3.29-6-2-9-6-5-11s4-18,4-18,38,0,49-2,37,0,37,0,27,6,34,29S940.08,866,929.08,876Z" style="fill:#feffff"/><path d="M926.6,878.19A123.47,123.47,0,0,1,906.82,892s-59.74-16-77.74-21-33-9-34-18c0,0,10-1,10-8s-8-9-2-16,15,0,15,0h4a3.21,3.21,0,0,0-.72-1.71l9.22,3.21s6,0,22,3,43,9,43,9,30,10,30,27Z" style="fill:#bbceef"/><path d="M883.58,886.5l11,3s6,2,10,0,4-2,9-7,14-11,16-32v-12s-3,24-8,30-6,12-17,15A89.46,89.46,0,0,1,883.58,886.5Z" style="fill:#4a67b7"/><path d="M870.09,823.26c-.73,5-3.43,9.47-3.7,14.54a18.62,18.62,0,0,0,1.43,7.32,74.07,74.07,0,0,0,3,8.08c.87,1.73,3.46.21,2.59-1.51a67.84,67.84,0,0,1-2.75-7.37,16.22,16.22,0,0,1-1.3-6.93c.39-4.61,2.9-8.77,3.57-13.34.27-1.88-2.62-2.7-2.89-.79Z" style="fill:#4a67b7"/><path d="M854.11,822.36c.67,5.55-.8,11.08-.28,16.63.49,5.26,2.57,10.14,5,14.77.9,1.71,3.49.19,2.59-1.52-2.32-4.41-4.38-9.13-4.66-14.18-.29-5.25,1-10.46.35-15.7-.22-1.89-3.23-1.92-3,0Z" style="fill:#4a67b7"/><path d="M841.86,819.63a78.17,78.17,0,0,0-2.44,19.44c0,5.44,0,12,3.94,16.21,1.31,1.42,3.43-.71,2.12-2.12a11.83,11.83,0,0,1-2.64-6.5,56.69,56.69,0,0,1-.42-8.54,74.86,74.86,0,0,1,2.33-17.69c.48-1.88-2.41-2.67-2.89-.8Z" style="fill:#4a67b7"/><path d="M829.09,817.16c-2.61,5.23-1.75,11.29-3.26,16.82a21.8,21.8,0,0,0-.92,8.82,42.35,42.35,0,0,0,2.67,9.27c.68,1.79,3.58,1,2.9-.8a42.8,42.8,0,0,1-2.55-8.42c-.48-3,.14-5.64.91-8.5a43.13,43.13,0,0,0,1.15-7.76,21,21,0,0,1,1.69-7.91c.86-1.72-1.73-3.25-2.59-1.52Z" style="fill:#4a67b7"/><path d="M814.37,818.07a3,3,0,0,0,.46,1.48,8.53,8.53,0,0,1,.46.76l-.15-.36a1.27,1.27,0,0,1,.1.37l0-.39a.81.81,0,0,1,0,.22l0-.4a1.21,1.21,0,0,1,0,.18l.15-.36a.21.21,0,0,1-.06.1l.24-.3-.09.08.31-.23a.71.71,0,0,1-.15.08l.36-.15-.16,0,.4-.05H816l.4.05a.31.31,0,0,1-.13,0l.36.15-.07,0,.3.24-.06-.06.24.3a.16.16,0,0,1,0-.07l.15.36a.14.14,0,0,1,0-.07,1.54,1.54,0,0,0-.69-.89,1.52,1.52,0,0,0-1.16-.15,1.49,1.49,0,0,0-.89.68,1.56,1.56,0,0,0-.15,1.16,1.87,1.87,0,0,0,1.85,1.38,2.11,2.11,0,0,0,1.79-1,2.13,2.13,0,0,0,.28-1.2,3.31,3.31,0,0,0-.1-.63,5.72,5.72,0,0,0-.24-.57c-.17-.35-.44-.64-.59-1l.15.36a1.25,1.25,0,0,1-.08-.32l0,.4s0-.08,0-.11a1.56,1.56,0,0,0-.44-1.06,1.5,1.5,0,0,0-1.06-.44,1.46,1.46,0,0,0-1.06.44,1.54,1.54,0,0,0-.44,1.06Z" style="fill:#8ba2d4"/><path d="M580.08,679h269s7,1,8,5-3,6-5,6l-272,1s-7,1-7-4S575.08,680,580.08,679Z" style="fill:#4e5f93"/><path d="M585.86,690H846.19s6.77.74,7.74,3.72-2.9,4.47-4.84,4.47l-263.23.75s-6.78.74-6.78-3S581,690.74,585.86,690Z" style="fill:#191c3b"/><path d="M192.56,138H695.69a16.39,16.39,0,0,1,16.39,16.39V438.61A16.39,16.39,0,0,1,695.69,455H187.47a16.39,16.39,0,0,1-16.39-16.39V159.48A21.48,21.48,0,0,1,192.56,138Z" style="fill:#389cce;stroke:#38559e;stroke-miterlimit:10;stroke-width:20px"/><path d="M684.08,425s-49,10-70,21-37,27-45,38-60,87-60,87a179.25,179.25,0,0,0,26,21,186.1,186.1,0,0,0,26,14s5,1,8-1,33-32,33-32,140-32,145-33,61,1,61,1,3,21,10,23,23,13,23,13l26,28s2,5,8,2,51-32,51-32a5.64,5.64,0,0,0,0-6c-2-3-45-70-45-70s-21-29-33-39-50-26-50-26l-41-9Z" style="fill:#fcfefd"/><path d="M689.08,424a12.72,12.72,0,0,0-9,11c-1,9,6,38,34,40s44-14,47-26,2-23-12-29S689.08,422,689.08,424Z" style="fill:#e7a3ba"/><path d="M693.08,421s-9,4-6,12,12,25,32,26,35-14,36-22,2.39-13.61-8.3-17.31S694.08,418,693.08,421Z" style="fill:#b6618b"/><path d="M887,485.58c-1.29,10.3-30.88,184-30.88,184s-1.29,9-10.29,9l-41.43.07c-73.38.11-217.91.36-217.91.36s-8.28-.43-9.56-12-24.45-184-24.45-184,0-7.72,3.86-11.58,10.3-6.43,16.73-6.43H869s11.58,1.29,14.15,5.15S888.26,475.29,887,485.58Z" style="fill:#d6e7fb"/><path d="M887.31,485.58c-1.29,10.3-30.88,184-30.88,184s-1.28,9-10.29,9l-41.43.07c9.48-2.25,21.95-8.35,28.56-24.51,11.58-28.31,30.88-130,30.88-130l11.58-46.31S879.59,466.29,850,465h19.3s11.58,1.29,14.15,5.15S888.6,475.29,887.31,485.58Z" style="fill:#a0b8e6"/><circle cx="719.89" cy="572" r="28" style="fill:#fdfeff"/><circle cx="719.89" cy="572" r="21" style="fill:#344072"/><path d="M456.08,366.25h210.5c4.83,0,4.84-7.5,0-7.5H456.08c-4.82,0-4.83,7.5,0,7.5Z" style="fill:#d0e6fd"/><path d="M590.08,678s-7,3-9-9-12-97-12-97l-12-90s1-12,12-12,158,1,158,1l133-1,11.78.69s9.22,2.31,7.22,17.31-5,10-7,3-3-9-11-12-45-2-45-2l-237-1s-15-1-14,9S590.08,678,590.08,678Z" style="fill:#fdfeff"/><line x1="510.08" y1="376.5" x2="721.58" y2="376.5" style="fill:#fff"/><path d="M510.08,380.25h211.5c4.83,0,4.84-7.5,0-7.5H510.08c-4.82,0-4.83,7.5,0,7.5Z" style="fill:#6dc0a6"/><path d="M676.8,387a46.89,46.89,0,0,1-5.72-1.95l-.54-.23c-19.61-8.26-20-23.78-19-31.18a25.06,25.06,0,0,1,.9-4.13c.79-3.71,7-2.09,12.35.2C670.2,361,681.24,385.46,676.8,387Z" style="fill:#fed0da"/><path d="M775.48,379.4c-.93.48-1.91.93-3,1.37L772,381l-1,.41a46.21,46.21,0,0,1-4.7,1.54c-3.1-1,1.34-13.27,6.14-24.41,2.07-4.83,4.21-9.46,5.84-12.88,3.07-1.3,6.39-2.39,8.83-2.4,1.84,0,3.18.6,3.52,2.2a25.06,25.06,0,0,1,.9,4.13C792.51,356.6,792.18,370.89,775.48,379.4Z" style="fill:#fed0da"/><path d="M787.08,343.26V346s-6,22-9,23l-2.6,10.4-.4,1.6s-2.18.31-4.11.41c-1.52.08-2.89,0-2.89-.41,0-1-2-8,0-10,1.11-1.11,2.83-7.14,4.33-12.46,2.07-4.83,4.21-9.46,5.84-12.88C781.32,344.36,784.64,343.27,787.08,343.26Z" style="fill:#d1829f"/><path d="M676.8,387a1.66,1.66,0,0,1-.72.05,10.68,10.68,0,0,1-5.54-2.23,9.93,9.93,0,0,1-3.46-5.77s0-6-7-13a52,52,0,0,1-8.51-12.41,25.06,25.06,0,0,1,.9-4.13c.79-3.71,7-2.09,12.35.2C670.2,361,681.24,385.46,676.8,387Z" style="fill:#d1829f"/><path d="M668.08,350s-6,33,14,63,50,30,71,8,23-45,23-58-10-36-10-36S668.08,338,668.08,350Z" style="fill:#fcd1da"/><path d="M679.47,360c-.06.61,53.61,21,76.61-2s20-30,20-30l-6-8-19,6S679.86,356,679.47,360Z" style="fill:#d1829f"/><path d="M531.08,263.25h144.5c4.83,0,4.84-7.5,0-7.5H531.08c-4.82,0-4.83,7.5,0,7.5Z" style="fill:#d0e6fd"/><path d="M808.08,305c-2,17-13,25-13,25v4c-5,14-9,4-9,4a66,66,0,0,1-10,31c0-17-4-25-5-28a83.76,83.76,0,0,1-2-10,23.66,23.66,0,0,0,1.51-4.28c-3.31,8.63-11.51,16.06-18.51,22.28-9,8-20,13-55,14s-49-33-49-33-7-10-8-32,20-23,20-23-11-2-10-18c.58-9.21,10.75-11.79,19.29-12.32,1.36-.09,2.69-.12,3.93-.12h.92a64,64,0,0,1,6.86.43c12,0,26-11,26-11a49.25,49.25,0,0,1,36-7c31,5.91,29,33,29,33a57.88,57.88,0,0,1,13.84,2c4.69,1.3,9.62,3.45,13.16,7C808.08,278,810.08,288,808.08,305Z" style="fill:#212749"/><path d="M785.92,262c-.11,4.23-.36,8.94-.84,14-2,21-26,32-60,43s-65-3-68-22,18-22,18-22c-17-3-14-11-13-20,.5-4.46,3.94-7.94,7.29-10.32,1.36-.09,2.69-.12,3.93-.12h.92a64,64,0,0,1,6.86.43c12,0,26-11,26-11a49.25,49.25,0,0,1,36-7c31,5.91,29,33,29,33A57.88,57.88,0,0,1,785.92,262Z" style="fill:#394170"/><path d="M667.54,371.17S651.08,361,648.08,332s22-4,23-3S667.54,371.17,667.54,371.17Z" style="fill:#212749"/><path d="M335.08,852h124s-5,5-4,15,6,15,6,15l-131,1-8-1s-2-17-2-19,1-9,1-9S330.08,848,335.08,852Z" style="fill:#fcfdff"/><path d="M461.08,890s-275,3-292,1-17-13-17-13-1-18-1-26a6,6,0,0,1,2.12-4.83c3.19-2.69,8.88-2.17,8.88-2.17l297-1a4.21,4.21,0,0,1,3.62,2.12,4.45,4.45,0,0,1,.38,1.88c0,4-4,4-4,4h-124c-5,0-12,4-12,15s7,16,7,16l131-1C467.08,889,461.08,890,461.08,890Z" style="fill:#333f73"/><path d="M317.08,864.85v14.3a7.82,7.82,0,0,1-7.85,7.85h-48.3a7.84,7.84,0,0,1-7.85-7.85v-14.3a7.61,7.61,0,0,1,.27-2,7.85,7.85,0,0,1,7.58-5.81h48.3a7.85,7.85,0,0,1,7.85,7.85Z" style="fill:#f6fafb"/><path d="M316.58,862.09c-3.32,1.91-8.78,1.91-9.5,1.91-1,0-20-1-39,0-9.75.51-13.44-.29-14.73-1.19a7.85,7.85,0,0,1,7.58-5.81h48.3A7.83,7.83,0,0,1,316.58,862.09Z" style="fill:#d16797"/><path d="M316.73,881.49a7.86,7.86,0,0,1-7.5,5.51h-48.3a7.85,7.85,0,0,1-7.05-4.39C265.35,881.05,308.52,875.65,316.73,881.49Z" style="fill:#d16797"/><path d="M462.7,846.12c-1.82,1.45-6.62,1.88-6.62,1.88l-146,1s-142,1-152,0a8.22,8.22,0,0,1-4.88-1.83c3.19-2.69,8.88-2.17,8.88-2.17l297-1A4.21,4.21,0,0,1,462.7,846.12Z" style="fill:#1d2644"/><path d="M331,861.94c31.05,0,62.12.43,93.17,0,8.79-.11,17.58-.36,26.37-.87,1.91-.11,1.93-3.11,0-3-15.58.9-31.19,1-46.79,1L357.43,859l-26.41,0a1.5,1.5,0,0,0,0,3Z" style="fill:#cfdff8"/><path d="M334.93,875.15l90.78-.1,25.44,0a1.5,1.5,0,0,0,0-3l-90.78.1-25.44,0a1.5,1.5,0,0,0,0,3Z" style="fill:#cfdff8"/><path d="M437.08,845c-1,.2-1.94.36-2.85.5H161.3a10.72,10.72,0,0,1-10.72-10.72V798.22A10.72,10.72,0,0,1,161.3,787.5H435.86a10.65,10.65,0,0,1,6.69,2.35c1.4,2.17,2.48,5.66-3.47,7.15-4,1-25,0-25,0l-101,1s-10,0-10,15,0,27,22,27h116S447.08,843,437.08,845Z" style="fill:#5a7dcf"/><path d="M327.39,799h113.7a0,0,0,0,1,0,0v40a0,0,0,0,1,0,0H327.39a18.3,18.3,0,0,1-18.3-18.3V817.3A18.3,18.3,0,0,1,327.39,799Z" style="fill:#fdfdfd"/><path d="M303.08,798c-4.67,4.36-9.14,10.19-9,17,.2,9.62,9.5,15,7,21-1.47,3.55-6.34,5.7-10,5-7.57-1.45-11.63-15.46-10-26,0,0,1.82-11.75,12-19,1.52-1.08,6.67-4.75,9-3C303.48,794,303.29,796.6,303.08,798Z" style="fill:#fdfdfd"/><path d="M357.08,745c0,1-10,16-2,34l-25,6-73-5,3-34s8-2,9-2,87,1,87,1Z" style="fill:#fdfdfd"/><path d="M203.08,746c16.74,3.19,37.85-18.59,44-41,7-25.44-8.31-40.72-18-78-5.09-19.62-9.68-49.38-4-89-9.41,2.64-22.07,7.83-32,19-16.32,18.37-8,33.47-15,101-2.76,26.54-5.85,41.49,2,61C183,726.29,189.94,743.5,203.08,746Z" style="fill:#38559e"/><path d="M217.58,703.5a259.94,259.94,0,0,1-16.34-69.21,171,171,0,0,1,.34-35.69,117,117,0,0,1,3.48-17.52,94.71,94.71,0,0,1,6.52-16.58A105.9,105.9,0,0,0,206,581.32l-1,4.33c-.3,1.44-.51,2.9-.77,4.35s-.46,2.92-.64,4.38-.42,2.92-.51,4.39a162.86,162.86,0,0,0-.76,17.67c0,5.9.35,11.79.86,17.67s1.25,11.75,2.15,17.59,2,11.65,3.18,17.45,2.58,11.55,4.09,17.27S215.77,697.85,217.58,703.5Z" style="fill:#fff"/><path d="M203,747.72c10.56-2.18,16.74-16.94,18.58-24.67,2.62-11-.56-20.24-6.78-38.3-4.74-13.75-6.52-14.09-10.56-25.7-5.82-16.74-4.05-21.6-8.35-41.55-3.36-15.6-6.8-31.53-16.58-47.74a108,108,0,0,0-29-31.29A109.2,109.2,0,0,0,145,584.16c1.31,12.85,4.21,17.05,6,29.12,4.07,26.81-5.51,37-5.88,56.73C144.45,710.27,182.79,751.9,203,747.72Z" style="fill:#4561b4"/><path d="M202.08,758c-9.7,1.29-41.26,4.25-73-15a111.86,111.86,0,0,1-41-44c2.15-.56,4.5-1.14,7-1.71a224.39,224.39,0,0,1,40-5.29c11.69-.49,18.51-.77,25,1,18,4.92,29,24.5,35.22,41.26A164.41,164.41,0,0,1,202.08,758Z" style="fill:#354f7a"/><path d="M195.3,734.26c-7.35,3.32-24.27-1.1-38.8-5.87h0c-5.76-1.89-11.14-3.84-15.4-5.38-17.81-6.44-44.56-16.11-46-25.71h0A224.12,224.12,0,0,1,135.08,692c11.69-.49,18.51-.77,25,1C178.13,697.92,189.06,717.5,195.3,734.26Z" style="fill:#4360b0"/><path d="M156.48,728.38c-5.76-1.89-11.14-3.84-15.4-5.38-17.81-6.44-44.56-16.11-46-25.71h0c.62,1.68,5.41,10.89,37.91,21.72C146.57,723.5,153.32,726.45,156.48,728.38Z" style="fill:#d0e6fd"/><path d="M265.08,771s-1,7,16,7,73-1,73-1,6-2,6,4-2,6-6,6c-2,0-8.71.5-14.82,1H181a8.93,8.93,0,0,1-8.93-8.93A38.06,38.06,0,0,1,210.15,741H360.73c2.87,2.65,5,7-11.65,7h-78a9.39,9.39,0,0,0-6,9Z" style="fill:#dae9fc"/><path d="M273.69,756.74h72a1.5,1.5,0,0,0,0-3h-72a1.5,1.5,0,0,0,0,3Z" style="fill:#cfdff8"/><path d="M276.82,765.93H340a1.5,1.5,0,0,0,0-3h-63.2a1.5,1.5,0,0,0,0,3Z" style="fill:#cfdff8"/><path d="M323,805.65H436.86a1.5,1.5,0,0,0,0-3H323a1.5,1.5,0,0,0,0,3Z" style="fill:#cfdff8"/><path d="M363.58,683a23.5,23.5,0,1,0,23.5,23.5A23.5,23.5,0,0,0,363.58,683Zm-3,38a15.5,15.5,0,1,1,15.5-15.5A15.5,15.5,0,0,1,360.58,721Z" style="fill:#6080b2"/><path d="M363.08,672.3l-.58,4.05-1,7-7.82,54.5a3.14,3.14,0,0,1-3.09,3.19H302.21a3.14,3.14,0,0,1-3.09-3.19l-7.92-55.21-1-7.11-.46-3.21a4.16,4.16,0,0,1,4.16-4.16h65.05A4.15,4.15,0,0,1,363.08,672.3Z" style="fill:#6080b2"/><path d="M321.43,815H431.78a1.5,1.5,0,0,0,0-3H321.43a1.5,1.5,0,0,0,0,3Z" style="fill:#cfdff8"/><path d="M323.58,823.65h98a1.5,1.5,0,0,0,0-3h-98a1.5,1.5,0,0,0,0,3Z" style="fill:#cfdff8"/><path d="M350.58,833.24h79.05a1.5,1.5,0,0,0,0-3H350.58a1.5,1.5,0,0,0,0,3Z" style="fill:#cfdff8"/><rect x="242.08" y="779" width="75" height="9" rx="3.3" style="fill:#202b41"/><path d="M362.5,676.35l-1,7a81,81,0,0,1-70.3-.71l-1-7.11a79.63,79.63,0,0,0,8.9,3.49C324,687.13,347.67,681.67,362.5,676.35Z" style="fill:#c0cee2"/><path d="M319.05,653.61a13.87,13.87,0,0,1-2.61-7,17.35,17.35,0,0,1,1.53-7.83,27,27,0,0,0,1.93-8.26,54.87,54.87,0,0,0-.47-9.15c-.2-1.9-3.2-1.92-3,0a53.52,53.52,0,0,1,.46,9.38c-.22,3.21-1.42,6-2.47,9a17,17,0,0,0,2,15.4c1.11,1.57,3.71.07,2.6-1.51Z" style="fill:#fff"/><path d="M328.53,649.13a25.12,25.12,0,0,1-2.57-10.9,28.82,28.82,0,0,1,2.42-11.08c1.39-3.41,2.9-6.78,3.21-10.5a16.39,16.39,0,0,0-2.92-10.57c-1.09-1.57-3.69-.07-2.59,1.52a13.65,13.65,0,0,1,2.29,10.53c-.74,3.71-2.55,7.08-3.8,10.62a28.32,28.32,0,0,0,1.37,21.89c.85,1.74,3.44.22,2.59-1.51Z" style="fill:#fff"/><path d="M337,652c-2.67-4.29-4.85-9.64-2.87-14.66.91-2.31,2.63-4.21,3.6-6.52a18.85,18.85,0,0,0,1.46-7.63c0-1.93-3-1.94-3,0a15.81,15.81,0,0,1-1.9,7.91c-1.31,2.36-3,4.41-3.55,7.12-1.19,5.42.84,10.74,3.66,15.29,1,1.64,3.62.14,2.6-1.51Z" style="fill:#fff"/><path d="M191.25,724.26a26.94,26.94,0,0,0-1.53-2.46c-3.62-5.26-14-17.42-34.14-21.3-26-5-37,4-46-16-8.78-19.51-7.09-20-20.94-22.79l-1.06-.21s-43,8-55-13-26-73-25-101c0,0,35-17,79,1s30,35,43,45,34,6,50,29S202.93,687,191.25,724.26Z" style="fill:#5b7bd0"/><path d="M189.72,721.8c-3.62-5.26-14-17.42-34.14-21.3-26-5-37,4-46-16-8.78-19.51-7.09-20-20.94-22.79a142.7,142.7,0,0,1,52.94-3.21s32,31,39,41C184.78,705.49,187.89,715.08,189.72,721.8Z" style="fill:#4360b0"/><path d="M7.72,547.29c3.48,1.94,7,3.8,10.45,5.81l10.36,5.95h0l.15.11,8,5.83c2.66,1.94,5.26,4,7.89,5.93,5.25,4,10.5,7.92,15.69,12s10.43,8,15.58,12.1l15.46,12.24.12.09.19.19L123,638.14q7.81,7.7,15.71,15.31c5.24,5.09,10.43,10.23,15.72,15.25,2.63,2.52,5.32,5,7.95,7.46,1.33,1.22,2.65,2.48,4,3.67l2,1.76c.68.6,1.31,1.14,2.09,1.86s1.52,1.33,2.18,2.06l2,2.18c1.22,1.52,2.47,3,3.52,4.62a80.52,80.52,0,0,1,5.71,9.84A130.63,130.63,0,0,1,192,722.94q1.63,5.29,3,10.66c.9,3.57,1.61,7.19,2.24,10.82l-.49.12a204.59,204.59,0,0,0-6.53-20.94c-1.26-3.43-2.63-6.83-4.12-10.16s-3.08-6.63-4.85-9.83a79,79,0,0,0-5.85-9.23c-1.06-1.49-2.26-2.86-3.44-4.24l-1.9-1.95c-.63-.65-1.35-1.2-2-1.81-5.69-4.61-11.16-9.52-16.57-14.45-10.79-9.92-21.38-20-31.9-30.24s-20.92-20.53-31.29-30.88l0,0L27.4,560.73h0l-20-13Z" style="fill:#fff"/><path d="M175.86,691.65a117.19,117.19,0,0,1-5-13.89,130.62,130.62,0,0,1-3.36-14.39,98.34,98.34,0,0,1-1.31-14.74A57.22,57.22,0,0,1,168.08,634l-.58,3.64-.14.9c0,.31-.05.62-.08.92l-.13,1.83-.15,1.83c0,.61,0,1.22,0,1.84,0,1.22,0,2.44,0,3.66a111.38,111.38,0,0,0,1.52,14.58c.77,4.84,1.89,9.61,3.12,14.36q.9,3.56,2,7.08C174.29,687,175.06,689.33,175.86,691.65Z" style="fill:#fff"/><path d="M144.82,661.65a52.55,52.55,0,0,1-8.8-11.91A61.78,61.78,0,0,1,130.4,636a61.1,61.1,0,0,1-2.16-14.71,63.53,63.53,0,0,1,.23-7.43,32.85,32.85,0,0,1,.5-3.68l.61-3.65-.35,3.69a34.64,34.64,0,0,0-.27,3.67,71.21,71.21,0,0,0,2.41,21.84,65.41,65.41,0,0,0,5.32,13.68c.53,1.1,1.18,2.15,1.77,3.23s1.28,2.09,1.94,3.13A57.51,57.51,0,0,0,144.82,661.65Z" style="fill:#fff"/><path d="M46.58,639.5a43.89,43.89,0,0,1,15.1-10,45.26,45.26,0,0,1,8.79-2.58,55.67,55.67,0,0,1,9.1-1,69.67,69.67,0,0,1,9.14.42,73.2,73.2,0,0,1,9,1.65,70,70,0,0,1,16.91,6.47,103.88,103.88,0,0,0-17.24-5A80.63,80.63,0,0,0,79.63,628a56.77,56.77,0,0,0-8.83.84c-1.46.21-2.89.57-4.34.89s-2.86.77-4.24,1.28a49.54,49.54,0,0,0-8.13,3.6A57.1,57.1,0,0,0,46.58,639.5Z" style="fill:#fff"/><circle cx="203.58" cy="138.5" r="5.5" style="fill:#394170"/><circle cx="216.58" cy="138.5" r="5.5" style="fill:#6673aa"/><circle cx="230.58" cy="138.5" r="5.5" style="fill:#1839c6"/><circle cx="244.58" cy="138.5" r="5.5" style="fill:#a83939"/><path d="M201.08,170.25h31c4.83,0,4.84-7.5,0-7.5h-31c-4.82,0-4.83,7.5,0,7.5Z" style="fill:#f25079"/><line x1="243.08" y1="166" x2="305.58" y2="166" style="fill:#fff"/><path d="M243.08,169.75h62.5c4.83,0,4.84-7.5,0-7.5h-62.5c-4.82,0-4.83,7.5,0,7.5Z" style="fill:#6dc0a6"/><line x1="232.08" y1="314" x2="294.58" y2="314" style="fill:#fff"/><path d="M232.08,317.75h62.5c4.83,0,4.84-7.5,0-7.5h-62.5c-4.82,0-4.83,7.5,0,7.5Z" style="fill:#6dc0a6"/><line x1="221.08" y1="179.5" x2="320.08" y2="179.5" style="fill:#fff"/><path d="M221.08,183.25h99c4.83,0,4.84-7.5,0-7.5h-99c-4.82,0-4.83,7.5,0,7.5Z" style="fill:#6dc0a6"/><line x1="293.08" y1="206.5" x2="392.08" y2="206.5" style="fill:#fff"/><path d="M293.08,210.25h99c4.83,0,4.84-7.5,0-7.5h-99c-4.82,0-4.83,7.5,0,7.5Z" style="fill:#6dc0a6"/><line x1="306.08" y1="220.5" x2="452.58" y2="220.5" style="fill:#fff"/><path d="M306.08,224.25h146.5c4.83,0,4.84-7.5,0-7.5H306.08c-4.82,0-4.83,7.5,0,7.5Z" style="fill:#6dc0a6"/><line x1="261.08" y1="233.5" x2="407.58" y2="233.5" style="fill:#fff"/><path d="M261.08,237.25h146.5c4.83,0,4.84-7.5,0-7.5H261.08c-4.82,0-4.83,7.5,0,7.5Z" style="fill:#6dc0a6"/><line x1="270.08" y1="259.5" x2="368.58" y2="259.5" style="fill:#fff"/><path d="M270.08,263.25h98.5c4.83,0,4.84-7.5,0-7.5h-98.5c-4.82,0-4.83,7.5,0,7.5Z" style="fill:#6dc0a6"/><line x1="341.08" y1="349.5" x2="439.58" y2="349.5" style="fill:#fff"/><path d="M341.08,353.25h98.5c4.83,0,4.84-7.5,0-7.5h-98.5c-4.82,0-4.83,7.5,0,7.5Z" style="fill:#6dc0a6"/><line x1="359.08" y1="272.5" x2="570.58" y2="272.5" style="fill:#fff"/><path d="M359.08,276.25h211.5c4.83,0,4.84-7.5,0-7.5H359.08c-4.82,0-4.83,7.5,0,7.5Z" style="fill:#6dc0a6"/><line x1="233.08" y1="362.5" x2="444.58" y2="362.5" style="fill:#fff"/><path d="M233.08,366.25h211.5c4.83,0,4.84-7.5,0-7.5H233.08c-4.82,0-4.83,7.5,0,7.5Z" style="fill:#6dc0a6"/><line x1="235.08" y1="362.5" x2="446.58" y2="362.5" style="fill:#fff"/><path d="M235.08,366.25h211.5c4.83,0,4.84-7.5,0-7.5H235.08c-4.82,0-4.83,7.5,0,7.5Z" style="fill:#6dc0a6"/><path d="M234.08,196.25h199.5c4.83,0,4.84-7.5,0-7.5H234.08c-4.82,0-4.83,7.5,0,7.5Z" style="fill:#d0e6fd"/><path d="M234.08,329.25h199.5c4.83,0,4.84-7.5,0-7.5H234.08c-4.82,0-4.83,7.5,0,7.5Z" style="fill:#d0e6fd"/><path d="M248.08,224.25h47.5c4.83,0,4.84-7.5,0-7.5h-47.5c-4.82,0-4.83,7.5,0,7.5Z" style="fill:#d0e6fd"/><path d="M285.08,353.25h47.5c4.83,0,4.84-7.5,0-7.5h-47.5c-4.82,0-4.83,7.5,0,7.5Z" style="fill:#d0e6fd"/><path d="M248.08,287.25h47.5c4.83,0,4.84-7.5,0-7.5h-47.5c-4.82,0-4.83,7.5,0,7.5Z" style="fill:#d0e6fd"/><path d="M269.08,250.25h87.5c4.83,0,4.84-7.5,0-7.5h-87.5c-4.82,0-4.83,7.5,0,7.5Z" style="fill:#d0e6fd"/><path d="M248.08,380.25h87.5c4.83,0,4.84-7.5,0-7.5h-87.5c-4.82,0-4.83,7.5,0,7.5Z" style="fill:#d0e6fd"/><path d="M530.08,250.25h101.5c4.83,0,4.84-7.5,0-7.5H530.08c-4.82,0-4.83,7.5,0,7.5Z" style="fill:#d0e6fd"/><path d="M419.08,237.25h210.5c4.83,0,4.84-7.5,0-7.5H419.08c-4.82,0-4.83,7.5,0,7.5Z" style="fill:#d0e6fd"/><path d="M243.08,210.25h40.5c4.83,0,4.84-7.5,0-7.5h-40.5c-4.82,0-4.83,7.5,0,7.5Z" style="fill:#f25079"/><path d="M379.08,263.25h141.5c4.83,0,4.84-7.5,0-7.5H379.08c-4.82,0-4.83,7.5,0,7.5Z" style="fill:#f25079"/><path d="M450.08,353.25h141.5c4.83,0,4.84-7.5,0-7.5H450.08c-4.82,0-4.83,7.5,0,7.5Z" style="fill:#f25079"/><path d="M463.08,224.25h40.5c4.83,0,4.84-7.5,0-7.5h-40.5c-4.82,0-4.83,7.5,0,7.5Z" style="fill:#224eaf"/><path d="M234.08,341.25h40.5c4.83,0,4.84-7.5,0-7.5h-40.5c-4.82,0-4.83,7.5,0,7.5Z" style="fill:#224eaf"/><path d="M235.08,353.25h40.5c4.83,0,4.84-7.5,0-7.5h-40.5c-4.82,0-4.83,7.5,0,7.5Z" style="fill:#224eaf"/><path d="M367.08,250.25h153.5c4.83,0,4.84-7.5,0-7.5H367.08c-4.82,0-4.83,7.5,0,7.5Z" style="fill:#224eaf"/><path d="M346.08,380.25h153.5c4.83,0,4.84-7.5,0-7.5H346.08c-4.82,0-4.83,7.5,0,7.5Z" style="fill:#224eaf"/><path d="M270.08,276.25h77.5c4.83,0,4.84-7.5,0-7.5h-77.5c-4.82,0-4.83,7.5,0,7.5Z" style="fill:#224eaf"/><path d="M331.08,183.25h40.5c4.83,0,4.84-7.5,0-7.5h-40.5c-4.82,0-4.83,7.5,0,7.5Z" style="fill:#224eaf"/><path d="M402.08,210.25h25.5c4.83,0,4.84-7.5,0-7.5h-25.5c-4.82,0-4.83,7.5,0,7.5Z" style="fill:#f25079"/><path d="M1140.54,701.09c9.44-3.36,11.94-34.63-2.19-55.9-5.63-8.48-17.56-20.86-24.58-17.91-9.73,4.08-9.82,37.49,6.21,59C1121.52,688.39,1133,703.79,1140.54,701.09Z" style="fill:#466da4"/><path d="M1115.11,629.07a30.49,30.49,0,0,1,6.33,4.66,36.07,36.07,0,0,1,4.94,6.2,47.82,47.82,0,0,1,5.87,14.69,72.61,72.61,0,0,1,1.73,15.66,73.47,73.47,0,0,1-1.48,15.6,141.45,141.45,0,0,0-.08-15.55c-.18-2.57-.39-5.14-.75-7.69a74.07,74.07,0,0,0-1.37-7.57,57,57,0,0,0-2.14-7.37,47.88,47.88,0,0,0-3.11-7,41.11,41.11,0,0,0-4.33-6.32A39.94,39.94,0,0,0,1115.11,629.07Z" style="fill:#f9f9f9"/><polygon points="1018.08 867 1003.08 690 1025.08 688 1036.08 867 1018.08 867" style="fill:#252d54"/><path d="M1044.08,885h-35c-.53-1-3.88-7.5-1-14,3.7-8.34,14.24-8.91,16-9a22.73,22.73,0,0,1,3.38.08c6.5.62,13.87,3.95,16.62,10.92A17.66,17.66,0,0,1,1044.08,885Z" style="fill:#353f72"/><path d="M1044.08,885h-14.24c1.54-2.21,4.79-7.8,3.24-14a19.27,19.27,0,0,0-5.62-8.92c6.5.62,13.87,3.95,16.62,10.92A17.66,17.66,0,0,1,1044.08,885Z" style="fill:#212d60"/><rect x="981.08" y="878" width="89" height="17" rx="5.66" style="fill:#353f72"/><path d="M1070.08,883.66v5.68a5.67,5.67,0,0,1-5.66,5.66h-23.81c1.16-2.38,3.24-4.74,2.47-8-1.19-5-8.06-7.36-14.15-9h35.49A5.67,5.67,0,0,1,1070.08,883.66Z" style="fill:#212d60"/><path d="M1014.08,650a24,24,0,1,0,24,24A24,24,0,0,0,1014.08,650Zm0,33a9,9,0,1,1,9-9A9,9,0,0,1,1014.08,683Z" style="fill:#252d54"/><path d="M1106.08,565a24,24,0,1,0,24,24A24,24,0,0,0,1106.08,565Zm0,33a9,9,0,1,1,9-9A9,9,0,0,1,1106.08,598Z" style="fill:#252d54"/><path d="M923,453.52c-.32-1.72-1.22-7.59-5.27-9.49-3.62-1.69-8.58.35-10.54,2.11-13.29,11.95,21.79,91.42,47.43,88.53,4.71-.53,9.72-3.91,11.59-8.43C973.81,508,927.5,477.2,923,453.52Z" style="fill:#fcfefd"/><polygon points="1017.3 660.04 1092.32 593.52 1104.86 604.95 1034.84 671.25 1017.3 660.04" style="fill:#252d54"/><path d="M1034.12,449.31,1027.25,433a7.14,7.14,0,0,0-9.36-3.81l-26.23,11.05A22.48,22.48,0,0,1,983,442H913.7a5.15,5.15,0,0,0-4.46,7.73l46.5,80.54a5.15,5.15,0,0,0,8.93,0l28.1-48.67a32.29,32.29,0,0,1,15.41-13.6l22.13-9.32A7.15,7.15,0,0,0,1034.12,449.31Z" style="fill:#252d54"/><polygon points="1092.08 580 1003.08 458 1017.08 448 1105.08 573 1092.08 580" style="fill:#252d54"/><path d="M1204.35,784l-13.74,102.51A9.74,9.74,0,0,1,1181,895H1121.7a9.74,9.74,0,0,1-9.65-8.45L1098.31,784a9.74,9.74,0,0,1,9.65-11h86.74A9.74,9.74,0,0,1,1204.35,784Z" style="fill:#feffff"/><path d="M1204.35,784l-13.74,102.51A9.74,9.74,0,0,1,1181,895h-13.91l13.19-122h14.46A9.74,9.74,0,0,1,1204.35,784Z" style="fill:url(#linear-gradient-3)"/><path d="M1145.91,700.36s22.67-45.86,9.67-78.86c0,0-27,31-29,75S1145.91,700.36,1145.91,700.36Z" style="fill:#467aa9"/><path d="M1154.26,623.16a74.73,74.73,0,0,1,.09,11.78,112,112,0,0,1-1.38,11.71,198.17,198.17,0,0,1-5.42,23c-1.11,3.77-2.29,7.53-3.55,11.25s-2.63,7.41-4,11.08c-2.89,7.32-6,14.56-9.49,21.59l-.07,0q4.69-10.8,8.86-21.82c2.79-7.33,5.4-14.73,7.71-22.23a197.16,197.16,0,0,0,5.62-22.84,111.69,111.69,0,0,0,1.53-11.66,74.47,74.47,0,0,0,0-11.76Z" style="fill:#fcfcfc"/><path d="M1239.58,656.5a69.77,69.77,0,0,1-1,22.26c-7.46,38.78-41.88,86.74-83,94.74-6.46,1.26-17.22,3.35-25.63-1.43a18,18,0,0,1-2.37-1.57c-17.65-13.79-7.52-55.55,3.5-79.5,2.88-6.26,11.79-24.28,33.5-44.5,32.64-30.4,70-43.25,96-49-7.64,7.5-17.82,19.88-21,37A63.45,63.45,0,0,0,1239.58,656.5Z" style="fill:#5e7fd0"/><path d="M1134.17,763.6c6.8-15.07,14.19-29.82,22-44.38q5.82-10.92,12-21.62c4.14-7.13,8.39-14.2,12.85-21.15s9-13.82,13.85-20.51,9.8-13.28,15.16-19.55a200.47,200.47,0,0,1,17.06-17.91,96.65,96.65,0,0,1,20-14.48,96.39,96.39,0,0,0-19.81,14.67,198.07,198.07,0,0,0-16.84,18c-5.29,6.31-10.18,12.95-14.94,19.67S1186.24,670,1181.87,677s-8.54,14.07-12.61,21.23-8,14.4-11.81,21.7c-7.6,14.61-14.83,29.43-21.45,44.48Z" style="fill:#fff"/><path d="M1238.56,678.76c-7.46,38.78-41.88,86.74-83,94.74-6.46,1.26-17.22,3.35-25.63-1.43,5-16.73,20.71-58.73,54.13-69.07C1211,694.65,1228.94,686.31,1238.56,678.76Z" style="fill:#3851a0"/><path d="M1127.08,772c-10.35,2-31.44-30-30-56,.25-4.42,1.22-10,1-20a137.36,137.36,0,0,0-4-30c7.69,1.69,20,5.67,30,16C1152.51,711.41,1139.92,769.48,1127.08,772Z" style="fill:#4c67ae"/><path d="M1142.58,691.5a54.35,54.35,0,0,1,3.1,12.2,76.83,76.83,0,0,1,.5,12.6,99.14,99.14,0,0,1-1.44,12.52,85.21,85.21,0,0,1-3.11,12.2c.53-2,1-4.06,1.42-6.12s.81-4.11,1.12-6.17a113.34,113.34,0,0,0,1.27-12.46,85.69,85.69,0,0,0-.33-12.51l-.41-3.1c-.11-1-.39-2-.57-3.08C1143.81,695.51,1143.1,693.54,1142.58,691.5Z" style="fill:#fff"/><path d="M1094.08,666a261.56,261.56,0,0,1,18,20.07,108.51,108.51,0,0,1,7.94,11c.29.49.61,1,.88,1.48l.79,1.54a11.35,11.35,0,0,1,.71,1.66c.17.57.33,1.14.46,1.72a44.47,44.47,0,0,1,.86,6.82,194.49,194.49,0,0,1-1,27q-1.29,13.43-3.61,26.71,1.15-13.43,2.05-26.83c.27-4.47.53-8.94.65-13.41s.2-8.94-.06-13.36a42.24,42.24,0,0,0-.76-6.52c-.12-.52-.26-1-.41-1.53a9.18,9.18,0,0,0-.6-1.44l-.73-1.45c-.26-.48-.55-1-.82-1.43a126.27,126.27,0,0,0-7.55-11C1105.46,679.88,1099.81,672.91,1094.08,666Z" style="fill:#fff"/><path d="M1121.08,770c6.15-7.81-3.33-27.73-17-38-12.84-9.65-27.51-9.38-33-9a44.7,44.7,0,0,1,4,11c1.26,5.73.74,8.86,1,12,.87,10.39,10.3,20.88,21,25C1103.39,773.43,1116.34,776,1121.08,770Z" style="fill:#467aa9"/><path d="M1145.08,764s18-55,59-62,53,2,53,2-6.44,37.46-31.72,43.23-56.59,24.27-56.59,24.27S1130.08,774,1145.08,764Z" style="fill:#4662ab"/><path d="M1172.08,779c-6.93-7.24,4.84-36.32,27-49,8.84-5.06,25-10.78,30-5,6.88,8-8,37.92-32,50C1194.78,776.16,1177.63,784.79,1172.08,779Z" style="fill:#466da4"/><path d="M1186.08,769a74.16,74.16,0,0,1,5.67-14.61,72.61,72.61,0,0,1,8.56-13.23,47.66,47.66,0,0,1,11.83-10.5,35.36,35.36,0,0,1,7.2-3.33,30.63,30.63,0,0,1,7.74-1.33,40.89,40.89,0,0,0-7.4,2.25A42.08,42.08,0,0,0,1213,732a47.25,47.25,0,0,0-5.91,4.84,56.86,56.86,0,0,0-5.22,5.63,71.55,71.55,0,0,0-4.61,6.16c-1.46,2.11-2.81,4.31-4.12,6.53A139.82,139.82,0,0,0,1186.08,769Z" style="fill:#f9f9f9"/><rect x="1082.33" y="763" width="138" height="29" rx="8.96" style="fill:#feffff"/><path d="M1220.33,772V783a9,9,0,0,1-9,9h-43.55l1.34-29h42.21A9,9,0,0,1,1220.33,772Z" style="fill:url(#linear-gradient-4)"/><path d="M1071.76,723a41,41,0,0,1,15.39,6.25,48.69,48.69,0,0,1,12.11,11.59,67.09,67.09,0,0,1,4.54,7.05,67.84,67.84,0,0,1,3.56,7.58,63.84,63.84,0,0,1,4.22,16.07,99.14,99.14,0,0,0-5.65-15.46,77.15,77.15,0,0,0-8.27-14,54.66,54.66,0,0,0-5.28-6.18c-.93-1-2-1.88-3-2.8s-2.06-1.76-3.17-2.54A51.92,51.92,0,0,0,1071.76,723Z" style="fill:#f9f9f9"/><path d="M1080.58,742.5a12,12,0,0,1,7.17-.7,22.52,22.52,0,0,1,6.85,2.53,37.38,37.38,0,0,1,6,4.14,40.36,40.36,0,0,1,5.11,5.1c-.92-.78-1.82-1.57-2.76-2.3s-1.87-1.5-2.83-2.2a54.72,54.72,0,0,0-6-3.86,27.34,27.34,0,0,0-6.52-2.66,13.71,13.71,0,0,0-3.49-.47A13.27,13.27,0,0,0,1080.58,742.5Z" style="fill:#f9f9f9"/><path d="M1120.58,727.5c-2.2-3.41-13.09-1.8-18,4-.74.87-2.4,2.84-2,5,.63,3.34,5.94,5.56,10,5C1117.67,740.52,1122.73,730.82,1120.58,727.5Z" style="fill:#f44b8c"/><path d="M1119.08,730c-4.14.59-7.76,11.54-4,18,.4.69,2.06,3.53,5,4,3.36.53,6.74-2.29,8-5C1131.22,740.25,1123.52,729.37,1119.08,730Z" style="fill:#f44b8c"/><path d="M1124.08,731c-2.49,1.92.19,13.09,7,16,1.7.72,4.7,1.38,6,0,2-2.12-1.25-7.72-2-9s-3.95-6.8-9.17-7.25A2.46,2.46,0,0,0,1124.08,731Z" style="fill:#f44b8c"/><path d="M1128.08,729a18.17,18.17,0,0,0,4,7c3.65,3.9,9.9,6.86,12,5,1.59-1.41.74-5.48-1-8C1140.36,729,1134.47,727.47,1128.08,729Z" style="fill:#f44b8c"/><path d="M1133.08,730c5.05.5,11.57-1.59,12-5,.31-2.4-2.46-5-5-6-6.5-2.59-15.41,3.57-15,7C1125.37,728.42,1130.32,729.73,1133.08,730Z" style="fill:#f44b8c"/><path d="M1137.08,722c2.61-3,4-8.14,2-10-1.61-1.52-4.94-.37-6,0-6.66,2.31-11.82,10.25-10,13C1124.76,727.53,1133,726.68,1137.08,722Z" style="fill:#f44b8c"/><path d="M1132.08,717c1.85-5.07-3.2-12-9-12a8.55,8.55,0,0,0-8,6c-1.34,5.13,3.62,10.86,9,11C1127.35,722.09,1130.94,720.12,1132.08,717Z" style="fill:#f44b8c"/><path d="M1116.08,715c-1.91-.6-7.61-2.37-11,1a6.94,6.94,0,0,0-2,6c.75,3.89,5.41,6,9,6,5.63-.07,10.87-5.57,10-9C1121.5,716.69,1118.25,715.68,1116.08,715Z" style="fill:#f44b8c"/><path d="M1119.08,723c-.25.39-2,3.18-1,6,1.21,3.43,5.72,4.85,9,4,.66-.17,3.16-.82,4-3,1.25-3.21-2.58-6.64-3-7s-4-3.43-7-2A5,5,0,0,0,1119.08,723Z" style="fill:#281a3b"/><path d="M1161.08,767a116.65,116.65,0,0,1,16.07-25.82,112.37,112.37,0,0,1,22.2-21,90.1,90.1,0,0,1,27.49-13.3,85.2,85.2,0,0,1,30.24-2.91,104.27,104.27,0,0,0-15.11,1.07c-2.5.27-5,.87-7.42,1.34-1.23.28-2.43.63-3.65.94l-1.82.48-1.79.58a90.06,90.06,0,0,0-13.92,5.67,95.65,95.65,0,0,0-12.87,7.77,106,106,0,0,0-11.68,9.47,134.22,134.22,0,0,0-10.47,10.86,147.16,147.16,0,0,0-9.28,11.94A125.12,125.12,0,0,0,1161.08,767Z" style="fill:url(#linear-gradient-5)"/><path d="M1182.08,736a109,109,0,0,1,15-7.42c2.58-1.07,5.23-2,7.89-2.88s5.38-1.58,8.12-2.22a53.48,53.48,0,0,1,16.84-1.31,25.31,25.31,0,0,1,8.22,2.2,16.44,16.44,0,0,1,6.42,5.39,17.33,17.33,0,0,0-6.81-4.49,27,27,0,0,0-8-1.54,45.6,45.6,0,0,0-8.17.31,74.71,74.71,0,0,0-8.11,1.4,143.89,143.89,0,0,0-15.89,4.6C1192.41,731.86,1187.22,733.83,1182.08,736Z" style="fill:url(#linear-gradient-6)"/><path d="M1154.22,724.23a125.23,125.23,0,0,1,12.48-16.35,128.36,128.36,0,0,1,14.92-14.2A94.67,94.67,0,0,1,1199,682.6a76.69,76.69,0,0,1,9.57-3.83,69.25,69.25,0,0,1,10-2.27,71.81,71.81,0,0,0-19.35,6.62,98,98,0,0,0-17.14,11.15,133.8,133.8,0,0,0-15,14q-3.5,3.75-6.73,7.75C1158.24,718.67,1156.15,721.39,1154.22,724.23Z" style="fill:#fff"/><path d="M1164.58,656.5a57.11,57.11,0,0,1,2.08,13.07,115.16,115.16,0,0,1-.14,13.27Q1166,689.46,1165,696c-.68,4.36-1.47,8.71-2.56,13,.34-2.18.67-4.36,1-6.54s.61-4.37.85-6.55c.51-4.38,1-8.75,1.24-13.14s.49-8.78.38-13.17c0-1.1-.07-2.19-.13-3.29s-.1-2.19-.25-3.28-.19-2.19-.37-3.27Z" style="fill:#fff"/></g></g></svg>