<svg xmlns="http://www.w3.org/2000/svg" viewBox="0 0 561 337"><g id="Layer_2" data-name="Layer 2"><g id="Banner"><path d="M31.48,10H534.61A16.39,16.39,0,0,1,551,26.39V310.61A16.39,16.39,0,0,1,534.61,327H26.39A16.39,16.39,0,0,1,10,310.61V31.48A21.48,21.48,0,0,1,31.48,10Z" style="fill:#389cce;stroke:#38559e;stroke-miterlimit:10;stroke-width:20px"/><path d="M295,238.25H505.5c4.83,0,4.83-7.5,0-7.5H295c-4.83,0-4.83,7.5,0,7.5Z" style="fill:#d0e6fd"/><line x1="349" y1="248.5" x2="532.5" y2="248.5" style="fill:#fff"/><path d="M349,252.25H532.5c4.83,0,4.83-7.5,0-7.5H349c-4.83,0-4.83,7.5,0,7.5Z" style="fill:#6dc0a6"/><path d="M370,135.25H514.5c4.83,0,4.83-7.5,0-7.5H370c-4.83,0-4.83,7.5,0,7.5Z" style="fill:#d0e6fd"/><circle cx="42.5" cy="10.5" r="5.5" style="fill:#394170"/><circle cx="55.5" cy="10.5" r="5.5" style="fill:#6673aa"/><circle cx="69.5" cy="10.5" r="5.5" style="fill:#1839c6"/><circle cx="83.5" cy="10.5" r="5.5" style="fill:#a83939"/><path d="M40,42.25H71c4.83,0,4.83-7.5,0-7.5H40c-4.83,0-4.83,7.5,0,7.5Z" style="fill:#f25079"/><line x1="82" y1="38" x2="144.5" y2="38" style="fill:#fff"/><path d="M82,41.75h62.5c4.83,0,4.83-7.5,0-7.5H82c-4.83,0-4.83,7.5,0,7.5Z" style="fill:#6dc0a6"/><line x1="71" y1="186" x2="133.5" y2="186" style="fill:#fff"/><path d="M71,189.75h62.5c4.83,0,4.83-7.5,0-7.5H71c-4.83,0-4.83,7.5,0,7.5Z" style="fill:#6dc0a6"/><line x1="60" y1="51.5" x2="159" y2="51.5" style="fill:#fff"/><path d="M60,55.25h99c4.83,0,4.83-7.5,0-7.5H60c-4.83,0-4.83,7.5,0,7.5Z" style="fill:#6dc0a6"/><line x1="132" y1="78.5" x2="231" y2="78.5" style="fill:#fff"/><path d="M132,82.25h99c4.83,0,4.83-7.5,0-7.5H132c-4.83,0-4.83,7.5,0,7.5Z" style="fill:#6dc0a6"/><line x1="145" y1="92.5" x2="291.5" y2="92.5" style="fill:#fff"/><path d="M145,96.25H291.5c4.83,0,4.83-7.5,0-7.5H145c-4.83,0-4.83,7.5,0,7.5Z" style="fill:#6dc0a6"/><line x1="100" y1="105.5" x2="246.5" y2="105.5" style="fill:#fff"/><path d="M100,109.25H246.5c4.83,0,4.83-7.5,0-7.5H100c-4.83,0-4.83,7.5,0,7.5Z" style="fill:#6dc0a6"/><line x1="109" y1="131.5" x2="207.5" y2="131.5" style="fill:#fff"/><path d="M109,135.25h98.5c4.83,0,4.83-7.5,0-7.5H109c-4.83,0-4.83,7.5,0,7.5Z" style="fill:#6dc0a6"/><line x1="180" y1="221.5" x2="278.5" y2="221.5" style="fill:#fff"/><path d="M180,225.25h98.5c4.83,0,4.83-7.5,0-7.5H180c-4.83,0-4.83,7.5,0,7.5Z" style="fill:#6dc0a6"/><line x1="198" y1="144.5" x2="409.5" y2="144.5" style="fill:#fff"/><path d="M198,148.25H409.5c4.83,0,4.83-7.5,0-7.5H198c-4.83,0-4.83,7.5,0,7.5Z" style="fill:#6dc0a6"/><line x1="72" y1="234.5" x2="283.5" y2="234.5" style="fill:#fff"/><path d="M72,238.25H283.5c4.83,0,4.83-7.5,0-7.5H72c-4.83,0-4.83,7.5,0,7.5Z" style="fill:#6dc0a6"/><line x1="74" y1="234.5" x2="285.5" y2="234.5" style="fill:#fff"/><path d="M74,238.25H285.5c4.83,0,4.83-7.5,0-7.5H74c-4.83,0-4.83,7.5,0,7.5Z" style="fill:#6dc0a6"/><path d="M73,68.25H272.5c4.83,0,4.83-7.5,0-7.5H73c-4.83,0-4.83,7.5,0,7.5Z" style="fill:#d0e6fd"/><path d="M73,201.25H272.5c4.83,0,4.83-7.5,0-7.5H73c-4.83,0-4.83,7.5,0,7.5Z" style="fill:#d0e6fd"/><path d="M87,96.25h47.5c4.83,0,4.83-7.5,0-7.5H87c-4.83,0-4.83,7.5,0,7.5Z" style="fill:#d0e6fd"/><path d="M124,225.25h47.5c4.83,0,4.83-7.5,0-7.5H124c-4.83,0-4.83,7.5,0,7.5Z" style="fill:#d0e6fd"/><path d="M87,159.25h47.5c4.83,0,4.83-7.5,0-7.5H87c-4.83,0-4.83,7.5,0,7.5Z" style="fill:#d0e6fd"/><path d="M108,122.25h87.5c4.83,0,4.83-7.5,0-7.5H108c-4.83,0-4.83,7.5,0,7.5Z" style="fill:#d0e6fd"/><path d="M87,252.25h87.5c4.83,0,4.83-7.5,0-7.5H87c-4.83,0-4.83,7.5,0,7.5Z" style="fill:#d0e6fd"/><path d="M369,122.25H470.5c4.83,0,4.83-7.5,0-7.5H369c-4.83,0-4.83,7.5,0,7.5Z" style="fill:#d0e6fd"/><path d="M258,109.25H468.5c4.83,0,4.83-7.5,0-7.5H258c-4.83,0-4.83,7.5,0,7.5Z" style="fill:#d0e6fd"/><path d="M82,82.25h40.5c4.83,0,4.83-7.5,0-7.5H82c-4.83,0-4.83,7.5,0,7.5Z" style="fill:#f25079"/><path d="M218,135.25H359.5c4.83,0,4.83-7.5,0-7.5H218c-4.83,0-4.83,7.5,0,7.5Z" style="fill:#f25079"/><path d="M289,225.25H430.5c4.83,0,4.83-7.5,0-7.5H289c-4.83,0-4.83,7.5,0,7.5Z" style="fill:#f25079"/><path d="M302,96.25h40.5c4.83,0,4.83-7.5,0-7.5H302c-4.83,0-4.83,7.5,0,7.5Z" style="fill:#224eaf"/><path d="M73,213.25h40.5c4.83,0,4.83-7.5,0-7.5H73c-4.83,0-4.83,7.5,0,7.5Z" style="fill:#224eaf"/><path d="M74,225.25h40.5c4.83,0,4.83-7.5,0-7.5H74c-4.83,0-4.83,7.5,0,7.5Z" style="fill:#224eaf"/><path d="M206,122.25H359.5c4.83,0,4.83-7.5,0-7.5H206c-4.83,0-4.83,7.5,0,7.5Z" style="fill:#224eaf"/><path d="M185,252.25H338.5c4.83,0,4.83-7.5,0-7.5H185c-4.83,0-4.83,7.5,0,7.5Z" style="fill:#224eaf"/><path d="M109,148.25h77.5c4.83,0,4.83-7.5,0-7.5H109c-4.83,0-4.83,7.5,0,7.5Z" style="fill:#224eaf"/><path d="M170,55.25h40.5c4.83,0,4.83-7.5,0-7.5H170c-4.83,0-4.83,7.5,0,7.5Z" style="fill:#224eaf"/><path d="M241,82.25h25.5c4.83,0,4.83-7.5,0-7.5H241c-4.83,0-4.83,7.5,0,7.5Z" style="fill:#f25079"/><line x1="94" y1="262.5" x2="193" y2="262.5" style="fill:#fff"/><path d="M94,266.25h99c4.83,0,4.83-7.5,0-7.5H94c-4.83,0-4.83,7.5,0,7.5Z" style="fill:#6dc0a6"/><line x1="107" y1="276.5" x2="253.5" y2="276.5" style="fill:#fff"/><path d="M107,280.25H253.5c4.83,0,4.83-7.5,0-7.5H107c-4.83,0-4.83,7.5,0,7.5Z" style="fill:#6dc0a6"/><line x1="62" y1="289.5" x2="208.5" y2="289.5" style="fill:#fff"/><path d="M62,293.25H208.5c4.83,0,4.83-7.5,0-7.5H62c-4.83,0-4.83,7.5,0,7.5Z" style="fill:#6dc0a6"/><path d="M49,280.25H96.5c4.83,0,4.83-7.5,0-7.5H49c-4.83,0-4.83,7.5,0,7.5Z" style="fill:#d0e6fd"/><path d="M70,306.25h87.5c4.83,0,4.83-7.5,0-7.5H70c-4.83,0-4.83,7.5,0,7.5Z" style="fill:#d0e6fd"/><path d="M331,306.25H432.5c4.83,0,4.83-7.5,0-7.5H331c-4.83,0-4.83,7.5,0,7.5Z" style="fill:#d0e6fd"/><path d="M220,293.25H430.5c4.83,0,4.83-7.5,0-7.5H220c-4.83,0-4.83,7.5,0,7.5Z" style="fill:#d0e6fd"/><path d="M44,266.25H84.5c4.83,0,4.83-7.5,0-7.5H44c-4.83,0-4.83,7.5,0,7.5Z" style="fill:#f25079"/><path d="M264,280.25h40.5c4.83,0,4.83-7.5,0-7.5H264c-4.83,0-4.83,7.5,0,7.5Z" style="fill:#224eaf"/><path d="M168,306.25H321.5c4.83,0,4.83-7.5,0-7.5H168c-4.83,0-4.83,7.5,0,7.5Z" style="fill:#224eaf"/><path d="M203,266.25h25.5c4.83,0,4.83-7.5,0-7.5H203c-4.83,0-4.83,7.5,0,7.5Z" style="fill:#f25079"/></g></g></svg>