<svg xmlns="http://www.w3.org/2000/svg" viewBox="0 0 137 86"><g id="Layer_2" data-name="Layer 2"><g id="Banner"><path d="M135.87,80.64A9.9,9.9,0,0,0,137,76V10a9.9,9.9,0,0,0-1.13-4.6L72.57,43Z" style="fill:#fffffd"/><path d="M1.2,5.22A9.84,9.84,0,0,0,0,10V76a9.84,9.84,0,0,0,1.2,4.74L64.75,43Z" style="fill:#fffffd"/><path d="M133.32,2.23A10,10,0,0,0,127,0H10A10,10,0,0,0,3.82,2.12L68.66,40.67Z" style="fill:#fffffd"/><path d="M3.82,83.88A10,10,0,0,0,10,86H127a10,10,0,0,0,6.28-2.23L68.66,45.33Z" style="fill:#fffffd"/><path d="M68.66,40.67,3.82,2.12A9.92,9.92,0,0,0,1.2,5.22L64.75,43Z" style="fill:#38559e"/><path d="M72.57,43l63.3-37.64a9.93,9.93,0,0,0-2.55-3.13L68.66,40.67Z" style="fill:#38559e"/><polygon points="64.75 43 68.66 45.33 72.57 43 68.66 40.67 64.75 43" style="fill:#38559e"/></g></g></svg>