<svg xmlns="http://www.w3.org/2000/svg" viewBox="0 0 123 138.78"><g id="Layer_2" data-name="Layer 2"><g id="Banner"><path d="M122.9,39.75V99a10.12,10.12,0,0,1-5.05,8.75L66.5,137.43a10.12,10.12,0,0,1-10.1,0L5.05,107.79A10.13,10.13,0,0,1,0,99V39.75A10.11,10.11,0,0,1,5.05,31L56.4,1.35a10.12,10.12,0,0,1,10.1,0L117.85,31a10.08,10.08,0,0,1,5.05,8.75Z" style="fill:#659ad2"/><path d="M123,39.72V99a10.09,10.09,0,0,1-5,8.75L66.59,137.43a10.07,10.07,0,0,1-10.1,0L5.13,107.78a10.15,10.15,0,0,1-3.8-3.87l60-34.42L121.72,34.8A10.05,10.05,0,0,1,123,39.72Z" style="fill:#004482"/><path d="M61.45,107.68a38.25,38.25,0,1,1,14.91-3A38.05,38.05,0,0,1,61.45,107.68Zm0-57.35A19.1,19.1,0,1,0,80.6,69.43,19.14,19.14,0,0,0,61.45,50.33Z" style="fill:#fff"/><path d="M122.9,39.52v59.3a10.11,10.11,0,0,1-1.21,4.79L61.19,69.29,121.62,34.6A10.16,10.16,0,0,1,122.9,39.52Z" style="fill:#00599c"/><polygon points="93.81 67.53 93.91 62.82 98.42 62.92 98.52 67.33 103.03 67.43 103.03 72.04 98.42 72.04 98.52 76.54 93.81 76.54 93.91 71.83 89.31 71.83 89.41 67.43 93.81 67.53" style="fill:#fff"/><polygon points="110.81 67.53 110.92 62.82 115.42 62.92 115.52 67.33 120.03 67.43 120.03 72.04 115.42 72.04 115.52 76.54 110.81 76.54 110.92 71.83 106.31 71.83 106.41 67.43 110.81 67.53" style="fill:#fff"/></g></g></svg>