<svg xmlns="http://www.w3.org/2000/svg" viewBox="0 0 131 130.24"><g id="Layer_2" data-name="Layer 2"><g id="Banner"><path d="M34.06,28.58V11.41S38.14.49,58.37.05,83.11,2,83.11,2,94.9,5.15,96.94,13.74l.15,34.64s-.3,14.26-16,14.41-36.68.58-36.68.58-6.55,1.17-10.33,5.1a16.64,16.64,0,0,0-4.22,9.17v19.5l-12.66.29S10,95.54,6.55,91,0,75.89,0,67.3,1.6,45.9,6.4,40.52A21.69,21.69,0,0,1,17.47,34l47.88-.29-.14-4.51Z" style="fill:#3571a3"/><circle cx="43.88" cy="14.39" r="4.44" style="fill:#fff"/><path d="M96.94,101.65v17.18s-4.08,10.91-24.31,11.35-24.74-1.89-24.74-1.89-11.79-3.2-13.83-11.79l-.15-34.64s.3-14.27,16-14.41,36.68-.59,36.68-.59,6.55-1.16,10.33-5.09a16.64,16.64,0,0,0,4.22-9.17V33.1l12.66-.3s7.14,1.9,10.63,6.41S131,54.35,131,62.93s-1.6,21.4-6.4,26.79a21.78,21.78,0,0,1-11.07,6.55l-47.88.29.14,4.51Z" style="fill:#d6e7fb"/><circle cx="87.11" cy="115.84" r="4.44" style="fill:#fff"/></g></g></svg>