<svg xmlns="http://www.w3.org/2000/svg" xmlns:xlink="http://www.w3.org/1999/xlink" viewBox="0 0 1368.94 688.38"><defs><linearGradient id="linear-gradient" x1="583.01" y1="372.28" x2="657.09" y2="372.28" gradientUnits="userSpaceOnUse"><stop offset="0" stop-color="#fbd0d9"/><stop offset="0.45" stop-color="#da9cb1"/><stop offset="0.59" stop-color="#d695ac"/><stop offset="0.8" stop-color="#c9829f"/><stop offset="1" stop-color="#ba6a8f"/></linearGradient><linearGradient id="linear-gradient-2" x1="988.22" y1="360.92" x2="1013.73" y2="405.11" gradientUnits="userSpaceOnUse"><stop offset="0" stop-color="#ba6a8f"/><stop offset="0.65" stop-color="#da9cb1"/><stop offset="0.74" stop-color="#dea3b6"/><stop offset="0.87" stop-color="#ebb6c5"/><stop offset="1" stop-color="#fbd0d9"/></linearGradient><linearGradient id="linear-gradient-3" x1="1257.97" y1="607.88" x2="1295.36" y2="607.88" gradientUnits="userSpaceOnUse"><stop offset="0" stop-color="#fff"/><stop offset="0.65" stop-color="#38529f"/></linearGradient><linearGradient id="linear-gradient-4" x1="1258.74" y1="551.38" x2="1311.25" y2="551.38" xlink:href="#linear-gradient-3"/><linearGradient id="linear-gradient-5" x1="1251.09" y1="509.24" x2="1348.05" y2="509.24" gradientUnits="userSpaceOnUse"><stop offset="0" stop-color="#fff"/><stop offset="0.65" stop-color="#fcfcfc"/></linearGradient><linearGradient id="linear-gradient-6" x1="1272.54" y1="502.85" x2="1336.28" y2="502.85" xlink:href="#linear-gradient-5"/></defs><g id="Layer_2" data-name="Layer 2"><g id="Banner"><polygon points="623 652.88 620 674.88 1012 673.88 1011 633.88 816 577.88 623 652.88" style="fill:#314a9a"/><path d="M1029,489.88s7,65-15,77-41,17-42,17-49-3-49-3-19-9-8-18,24-43,37-49S1029,489.88,1029,489.88Z" style="fill:#7195e1"/><path d="M718,449.88c0,2,9,41,9,41s52.7,25.17,54.35,27.08,48.3,9.87,50.48,9.39S890,508.88,893,506.88s9-33,9-36-11-44-11-44Z" style="fill:#1a1e3b"/><path d="M1023,482.88s11,32,0,45-31.7,34.69-45.35,38.34S913,575.88,913,575.88s-5-21-3-24,69-53,69-53Z" style="fill:#3a54a8"/><path d="M595,494.88s-18,20-8,47,12,27,45,34,59-9,59-9-4-25-5-27S595,494.88,595,494.88Z" style="fill:#7196e4"/><path d="M608,514.88s-18,35,25,55,51,4,51,4l-11-32Z" style="fill:#3a56a9"/><path d="M1047.57,421.7s17.43,28.18,2.43,57.18-70,62-70,62l-81,52-29-7-22-14s6-19,14-24,134-128,137-128S1047.57,421.7,1047.57,421.7Z" style="fill:#213051"/><path d="M31.48,27.88H534.61A16.39,16.39,0,0,1,551,44.27V328.48a16.39,16.39,0,0,1-16.39,16.39H26.39A16.39,16.39,0,0,1,10,328.48V49.35A21.48,21.48,0,0,1,31.48,27.88Z" style="fill:#389cce;stroke:#38559e;stroke-miterlimit:10;stroke-width:20px"/><path d="M295,256.13H505.5c4.83,0,4.83-7.5,0-7.5H295c-4.83,0-4.83,7.5,0,7.5Z" style="fill:#d0e6fd"/><line x1="349" y1="266.38" x2="532.5" y2="266.38" style="fill:#fff"/><path d="M349,270.13H532.5c4.83,0,4.83-7.5,0-7.5H349c-4.83,0-4.83,7.5,0,7.5Z" style="fill:#6dc0a6"/><path d="M370,153.13H514.5c4.83,0,4.83-7.5,0-7.5H370c-4.83,0-4.83,7.5,0,7.5Z" style="fill:#d0e6fd"/><circle cx="42.5" cy="28.38" r="5.5" style="fill:#394170"/><circle cx="55.5" cy="28.38" r="5.5" style="fill:#6673aa"/><circle cx="69.5" cy="28.38" r="5.5" style="fill:#1839c6"/><circle cx="83.5" cy="28.38" r="5.5" style="fill:#a83939"/><path d="M40,60.13H71c4.83,0,4.83-7.5,0-7.5H40c-4.83,0-4.83,7.5,0,7.5Z" style="fill:#f25079"/><line x1="82" y1="55.88" x2="144.5" y2="55.88" style="fill:#fff"/><path d="M82,59.63h62.5c4.83,0,4.83-7.5,0-7.5H82c-4.83,0-4.83,7.5,0,7.5Z" style="fill:#6dc0a6"/><line x1="71" y1="203.88" x2="133.5" y2="203.88" style="fill:#fff"/><path d="M71,207.63h62.5c4.83,0,4.83-7.5,0-7.5H71c-4.83,0-4.83,7.5,0,7.5Z" style="fill:#6dc0a6"/><line x1="60" y1="69.38" x2="159" y2="69.38" style="fill:#fff"/><path d="M60,73.13h99c4.83,0,4.83-7.5,0-7.5H60c-4.83,0-4.83,7.5,0,7.5Z" style="fill:#6dc0a6"/><line x1="132" y1="96.38" x2="231" y2="96.38" style="fill:#fff"/><path d="M132,100.13h99c4.83,0,4.83-7.5,0-7.5H132c-4.83,0-4.83,7.5,0,7.5Z" style="fill:#6dc0a6"/><line x1="145" y1="110.38" x2="291.5" y2="110.38" style="fill:#fff"/><path d="M145,114.13H291.5c4.83,0,4.83-7.5,0-7.5H145c-4.83,0-4.83,7.5,0,7.5Z" style="fill:#6dc0a6"/><line x1="100" y1="123.38" x2="246.5" y2="123.38" style="fill:#fff"/><path d="M100,127.13H246.5c4.83,0,4.83-7.5,0-7.5H100c-4.83,0-4.83,7.5,0,7.5Z" style="fill:#6dc0a6"/><line x1="109" y1="149.38" x2="207.5" y2="149.38" style="fill:#fff"/><path d="M109,153.13h98.5c4.83,0,4.83-7.5,0-7.5H109c-4.83,0-4.83,7.5,0,7.5Z" style="fill:#6dc0a6"/><line x1="180" y1="239.38" x2="278.5" y2="239.38" style="fill:#fff"/><path d="M180,243.13h98.5c4.83,0,4.83-7.5,0-7.5H180c-4.83,0-4.83,7.5,0,7.5Z" style="fill:#6dc0a6"/><line x1="198" y1="162.38" x2="409.5" y2="162.38" style="fill:#fff"/><path d="M198,166.13H409.5c4.83,0,4.83-7.5,0-7.5H198c-4.83,0-4.83,7.5,0,7.5Z" style="fill:#6dc0a6"/><line x1="72" y1="252.38" x2="283.5" y2="252.38" style="fill:#fff"/><path d="M72,256.13H283.5c4.83,0,4.83-7.5,0-7.5H72c-4.83,0-4.83,7.5,0,7.5Z" style="fill:#6dc0a6"/><line x1="74" y1="252.38" x2="285.5" y2="252.38" style="fill:#fff"/><path d="M74,256.13H285.5c4.83,0,4.83-7.5,0-7.5H74c-4.83,0-4.83,7.5,0,7.5Z" style="fill:#6dc0a6"/><path d="M73,86.13H272.5c4.83,0,4.83-7.5,0-7.5H73c-4.83,0-4.83,7.5,0,7.5Z" style="fill:#d0e6fd"/><path d="M73,219.13H272.5c4.83,0,4.83-7.5,0-7.5H73c-4.83,0-4.83,7.5,0,7.5Z" style="fill:#d0e6fd"/><path d="M87,114.13h47.5c4.83,0,4.83-7.5,0-7.5H87c-4.83,0-4.83,7.5,0,7.5Z" style="fill:#d0e6fd"/><path d="M124,243.13h47.5c4.83,0,4.83-7.5,0-7.5H124c-4.83,0-4.83,7.5,0,7.5Z" style="fill:#d0e6fd"/><path d="M87,177.13h47.5c4.83,0,4.83-7.5,0-7.5H87c-4.83,0-4.83,7.5,0,7.5Z" style="fill:#d0e6fd"/><path d="M108,140.13h87.5c4.83,0,4.83-7.5,0-7.5H108c-4.83,0-4.83,7.5,0,7.5Z" style="fill:#d0e6fd"/><path d="M87,270.13h87.5c4.83,0,4.83-7.5,0-7.5H87c-4.83,0-4.83,7.5,0,7.5Z" style="fill:#d0e6fd"/><path d="M369,140.13H470.5c4.83,0,4.83-7.5,0-7.5H369c-4.83,0-4.83,7.5,0,7.5Z" style="fill:#d0e6fd"/><path d="M258,127.13H468.5c4.83,0,4.83-7.5,0-7.5H258c-4.83,0-4.83,7.5,0,7.5Z" style="fill:#d0e6fd"/><path d="M82,100.13h40.5c4.83,0,4.83-7.5,0-7.5H82c-4.83,0-4.83,7.5,0,7.5Z" style="fill:#f25079"/><path d="M218,153.13H359.5c4.83,0,4.83-7.5,0-7.5H218c-4.83,0-4.83,7.5,0,7.5Z" style="fill:#f25079"/><path d="M289,243.13H430.5c4.83,0,4.83-7.5,0-7.5H289c-4.83,0-4.83,7.5,0,7.5Z" style="fill:#f25079"/><path d="M302,114.13h40.5c4.83,0,4.83-7.5,0-7.5H302c-4.83,0-4.83,7.5,0,7.5Z" style="fill:#224eaf"/><path d="M73,231.13h40.5c4.83,0,4.83-7.5,0-7.5H73c-4.83,0-4.83,7.5,0,7.5Z" style="fill:#224eaf"/><path d="M74,243.13h40.5c4.83,0,4.83-7.5,0-7.5H74c-4.83,0-4.83,7.5,0,7.5Z" style="fill:#224eaf"/><path d="M206,140.13H359.5c4.83,0,4.83-7.5,0-7.5H206c-4.83,0-4.83,7.5,0,7.5Z" style="fill:#224eaf"/><path d="M185,270.13H338.5c4.83,0,4.83-7.5,0-7.5H185c-4.83,0-4.83,7.5,0,7.5Z" style="fill:#224eaf"/><path d="M109,166.13h77.5c4.83,0,4.83-7.5,0-7.5H109c-4.83,0-4.83,7.5,0,7.5Z" style="fill:#224eaf"/><path d="M170,73.13h40.5c4.83,0,4.83-7.5,0-7.5H170c-4.83,0-4.83,7.5,0,7.5Z" style="fill:#224eaf"/><path d="M241,100.13h25.5c4.83,0,4.83-7.5,0-7.5H241c-4.83,0-4.83,7.5,0,7.5Z" style="fill:#f25079"/><line x1="94" y1="280.38" x2="193" y2="280.38" style="fill:#fff"/><path d="M94,284.13h99c4.83,0,4.83-7.5,0-7.5H94c-4.83,0-4.83,7.5,0,7.5Z" style="fill:#6dc0a6"/><line x1="107" y1="294.38" x2="253.5" y2="294.38" style="fill:#fff"/><path d="M107,298.13H253.5c4.83,0,4.83-7.5,0-7.5H107c-4.83,0-4.83,7.5,0,7.5Z" style="fill:#6dc0a6"/><line x1="62" y1="307.38" x2="208.5" y2="307.38" style="fill:#fff"/><path d="M62,311.13H208.5c4.83,0,4.83-7.5,0-7.5H62c-4.83,0-4.83,7.5,0,7.5Z" style="fill:#6dc0a6"/><path d="M49,298.13H96.5c4.83,0,4.83-7.5,0-7.5H49c-4.83,0-4.83,7.5,0,7.5Z" style="fill:#d0e6fd"/><path d="M70,324.13h87.5c4.83,0,4.83-7.5,0-7.5H70c-4.83,0-4.83,7.5,0,7.5Z" style="fill:#d0e6fd"/><path d="M331,324.13H432.5c4.83,0,4.83-7.5,0-7.5H331c-4.83,0-4.83,7.5,0,7.5Z" style="fill:#d0e6fd"/><path d="M220,311.13H430.5c4.83,0,4.83-7.5,0-7.5H220c-4.83,0-4.83,7.5,0,7.5Z" style="fill:#d0e6fd"/><path d="M44,284.13H84.5c4.83,0,4.83-7.5,0-7.5H44c-4.83,0-4.83,7.5,0,7.5Z" style="fill:#f25079"/><path d="M264,298.13h40.5c4.83,0,4.83-7.5,0-7.5H264c-4.83,0-4.83,7.5,0,7.5Z" style="fill:#224eaf"/><path d="M168,324.13H321.5c4.83,0,4.83-7.5,0-7.5H168c-4.83,0-4.83,7.5,0,7.5Z" style="fill:#224eaf"/><path d="M203,284.13h25.5c4.83,0,4.83-7.5,0-7.5H203c-4.83,0-4.83,7.5,0,7.5Z" style="fill:#f25079"/><path d="M887.39,628.83s-20.39-3-18.39-18,23-40,23-40l7-2,9,2,7.57,12.56L913,614.88" style="fill:#ba5e91"/><path d="M684,455.88s15-40-3-29c-17.28,10.56-114-1-114-1a73.47,73.47,0,0,1-2-8c-1-5,0-10,2-16s8-16,11-21c2.84-4.73,21.78-31.82,23.82-34.74.11-.17.18-.26.18-.26a14.33,14.33,0,0,1,3.55.55c11.94,4.75,48,30.71,51.45,32.45l.09.05c-.21,3.66-5.32,8.27-6,8.89h0l-.05.05h0a98.52,98.52,0,0,1,32,2c18,4,30,30,30,30l4,38Z" style="fill:#fbd0d9"/><path d="M960,377.88s4,8,9,10c0,0-31-3-53,7s-13,52-13,52,8.48,4.73,10.74,5.87S931,454.88,932,454.88s7-3,7-7-14.67-36.52-2-25c11,10,42.14-2.44,47-2,2.39.21,2.79-4.69,5-3.79l2,.79,55,11s5-19-3-35-34-58-34-58S952,367.88,960,377.88Z" style="fill:#fdd0d7"/><path d="M657.09,378.93c-.21,3.66-5.32,8.27-6,8.89h0l-.05.05h0s-15,0-32,1c-16.73,1-35.41,9.72-36,10,2-2,6-5,15-9s28-6,33-7,3-1,1-6-18-16-26-21c-6.92-4.33-4.86-8.65-4.18-9.74.11-.17.18-.26.18-.26.52-.39,1.77-.15,3.55.55,11.94,4.75,48,30.71,51.45,32.45Z" style="fill:url(#linear-gradient)"/><path d="M1016,344.88s3,9-2,12-25.28,16.41-29,22c-2,3-4.82,4.59,0,7,2,1,7,0,7,0s13,0,19,3,15,7,17,8a108.51,108.51,0,0,0-22-7c-11-2-34-3-39-2,0,0-5-6-3-10S1016,344.88,1016,344.88Z" style="fill:url(#linear-gradient-2)"/><path d="M1016,411.88c-5.07-.51-46-7-78,18s11,34,20,34,34-11,36-14S1036,413.88,1016,411.88Z" style="fill:#212749"/><path d="M606,407.88s51,3,64,26-64-13-64-13-8-14-3-13S606,407.88,606,407.88Z" style="fill:#212749"/><path d="M906,568.88c-4.38,11.89-17,34-25.81,48.82-5.27,8.88-9.19,15.18-9.19,15.18l-63.5-26.5-122-29-24-15s-76-54-90-69-15-42-15-42a49.75,49.75,0,0,1,1.55-10.71,56.53,56.53,0,0,1,13.45-25.29c15-16,39-9,39-9L725,469.88Z" style="fill:#343e71"/><path d="M880.19,617.7c-5.27,8.88-9.19,15.18-9.19,15.18l-63.5-26.5-122-29-24-15s-76-54-90-69-15-42-15-42a49.75,49.75,0,0,1,1.55-10.71c1.82,21.57,38,47.21,38,47.21l81,43Z" style="fill:#212749"/><path d="M733,626.88s4,3,13-2,5.74-12.22,5.74-12.22L726,579.88s-9.7-4.57-9.35-4.79S705,577.88,705,577.88l3,33,15,17Z" style="fill:#ba5e91"/><path d="M629.72,567.27l-29.22.11s-21,2-30,17-7,27-7,27v30s1,13,11,20,44.85,3.91,44.85,3.91Z" style="fill:#4a67b7"/><path d="M735.5,628.38c-2,4-17,10-17,10s-88,27-96,27c-6,0-13.74-5.1-20.18-14h0a61.35,61.35,0,0,1-5.82-10c-7-15-12-41,7-60s50-17,55-16,51,4,51,4c14,5,5,16,8,18s0,10,0,10l-2,1-.11.11c-.53.55-2.89,3.11-2.89,4.89,0,2,6-4,9-4s5,9,5,16S735.5,628.38,735.5,628.38Z" style="fill:#fff"/><path d="M735.5,628.38c-2,4-17,10-17,10s-88,27-96,27c-6,0-13.74-5.1-20.18-14h0s4.18-22,23.18-29,70-20,70-20,14.35-2,19.89-3.89c-.53.55-2.89,3.11-2.89,4.89,0,2,6-4,9-4s5,9,5,16S735.5,628.38,735.5,628.38Z" style="fill:#bed2f5"/><path d="M218.5,665.38s-8,1-8,8v9s0,6,7,5,1143,1,1143,1,7-1,8-5,0-12,0-12-2-6-8-6Z" style="fill:#38529f"/><path d="M977,513.88s-86,54-109,67-120,54-120,54l-8.71-15.19L705,559.88l91.5-50.5L950,436.88s19.91-18.41,41.11-27.5c8.85-3.8,17.94-6,25.89-4.5,27,5,34,20,34,20C1069,482.88,977,513.88,977,513.88Z" style="fill:#353f72"/><path d="M977,513.88s-86,54-109,67-120,54-120,54l-8.71-15.19.45-1.29S821,580.88,852,557.88s104-83,134-143l5.11-5.5c8.85-3.8,17.94-6,25.89-4.5,27,5,34,20,34,20C1069,482.88,977,513.88,977,513.88Z" style="fill:#27325b"/><path d="M628.41,664.33S612,655.88,607,644.88s-8-16-7-28c0,0,4,23,11,29,12.45,10.67,16,12,29,15Z" style="fill:#4a67b7"/><path d="M654.81,598.13c3.46,3.55,3.25,9.48,3.39,14.07a124.45,124.45,0,0,1-.78,17.9c-.23,1.91,2.78,1.89,3,0a122.63,122.63,0,0,0,.72-19.35c-.21-5.1-.42-10.86-4.21-14.74-1.35-1.38-3.47.74-2.12,2.12Z" style="fill:#4a67b7"/><path d="M670.49,595.71c1.62,5.79,3.27,11.67,3.34,17.73a27.91,27.91,0,0,1-1.07,8.28c-.67,2.22-2.52,5-.88,7.2,1.14,1.53,3.75,0,2.59-1.51-.63-.85.18-2.12.52-3a24,24,0,0,0,1.2-4.09,33.18,33.18,0,0,0,.6-8.26c-.28-5.86-1.84-11.55-3.41-17.17a1.5,1.5,0,0,0-2.89.8Z" style="fill:#4a67b7"/><path d="M683.54,595.1c2.59,10.49,5.27,21.55,2.54,32.3-.48,1.87,2.42,2.67,2.89.79,2.87-11.29.19-22.86-2.54-33.89-.46-1.88-3.36-1.08-2.89.8Z" style="fill:#4a67b7"/><path d="M697.39,592.71c1.17,11.42,5.91,22.95,1,34.15-.76,1.75,1.82,3.28,2.59,1.51A33.39,33.39,0,0,0,703.4,611c-.69-6.14-2.38-12.12-3-18.27-.2-1.9-3.2-1.92-3,0Z" style="fill:#4a67b7"/><path d="M711.5,589.61a2.31,2.31,0,0,0-.63.53,3.27,3.27,0,0,0-.35.48,3,3,0,0,0-.22.52,2.36,2.36,0,0,0-.13.83,2.17,2.17,0,0,0,.13.8,3,3,0,0,0,.59,1,2.45,2.45,0,0,0,.66.5,2.71,2.71,0,0,0,.76.29,3,3,0,0,0,1.22,0,1.49,1.49,0,0,0,.66-.39,1.11,1.11,0,0,0,.31-.48,1.27,1.27,0,0,0,.13-.58,1.48,1.48,0,0,0-.21-.76l-.91-1.55-.23,1.82,0,0-.31.24.18-.11-.36.15.24-.06-.4.05h.21a1.72,1.72,0,0,0,1.06-.44,1.56,1.56,0,0,0,.44-1.06,1.54,1.54,0,0,0-.44-1.06l-.31-.24a1.5,1.5,0,0,0-.75-.2h-.21a2.53,2.53,0,0,0-.55.09,2.56,2.56,0,0,0-1,.54l-.24.31a1,1,0,0,0-.17.56.65.65,0,0,0,0,.39,1,1,0,0,0,.17.56l.91,1.56.9-2.21-.12,0,.4-.06h-.3l.4,0a.9.9,0,0,1-.32-.09l.36.15a1.22,1.22,0,0,1-.29-.17l.31.24a1.39,1.39,0,0,1-.21-.21l.23.3a1.76,1.76,0,0,1-.14-.23l.15.36a1.53,1.53,0,0,1-.07-.29l0,.4a1.71,1.71,0,0,1,0-.32l0,.39a1.18,1.18,0,0,1,.08-.31l-.15.36a1.28,1.28,0,0,1,.16-.28l-.23.3a1.34,1.34,0,0,1,.2-.21l-.3.24.12-.09a1.53,1.53,0,0,0,.69-.89,1.22,1.22,0,0,0,0-.6,1.12,1.12,0,0,0-.18-.56,1.52,1.52,0,0,0-.9-.69,1.54,1.54,0,0,0-1.15.15Z" style="fill:#4a67b7"/><path d="M719.71,604.58a2,2,0,0,0-.66.25,2,2,0,0,0-.53.44,3.32,3.32,0,0,0-.32.42,2.72,2.72,0,0,0-.22.5.88.88,0,0,0-.05.15,2.51,2.51,0,0,0,0,.27c0,.09,0,.19,0,.28a5,5,0,0,0,.06.54,1.09,1.09,0,0,0,.05.17,2.29,2.29,0,0,0,.53.9.52.52,0,0,0,.11.1,3,3,0,0,0,.43.32c.15.08.31.14.48.21l.16,0,.48.07h.09a2.67,2.67,0,0,0,.56-.06l.16,0a2.34,2.34,0,0,0,.51-.23,1.24,1.24,0,0,0,.43-.39,1,1,0,0,0,.26-.51,1,1,0,0,0,0-.6,1.09,1.09,0,0,0-.18-.55,1.43,1.43,0,0,0-.89-.69l-.4-.06a1.45,1.45,0,0,0-.76.21l-.13.07.35-.15a.79.79,0,0,1-.22.06l.4,0h-.23l.4,0a1.11,1.11,0,0,1-.26-.07l.36.15a.82.82,0,0,1-.2-.12l.3.24a.81.81,0,0,1-.16-.16l.23.3a.56.56,0,0,1-.09-.17l.15.36a.59.59,0,0,1-.05-.19l.05.4a.81.81,0,0,1,0-.22l-.05.4a.86.86,0,0,1,.06-.23l-.15.36a1.71,1.71,0,0,1,.13-.23l-.23.3a.85.85,0,0,1,.17-.16l-.3.23.18-.11-.35.15.19,0a1.06,1.06,0,0,0,.51-.27,1.13,1.13,0,0,0,.39-.42,1,1,0,0,0,.17-.56,1.08,1.08,0,0,0,0-.59,1.49,1.49,0,0,0-.69-.9l-.36-.15a1.55,1.55,0,0,0-.8,0Z" style="fill:#4a67b7"/><path d="M997.5,571.38s10-4,17-4,24,3,31,11,10,13,12,18,0,48,0,48-3,9-8,14-19,11-19,11-19.83,4.87-30.41-5.07Z" style="fill:#4360b0"/><path d="M1020,649.88c-.83.75-1.66,1.48-2.48,2.19a123.47,123.47,0,0,1-19.78,13.81s-59.74-16-77.74-21-33-9-34-18c0,0,10-1,10-8s-8-9-2-16,15,0,15,0h4a3.21,3.21,0,0,0-.72-1.71c-.74-1-2.24-2.28-5.28-3.29-6-2-9-6-5-11s4-18,4-18,38,0,49-2,37,0,37,0,27,6,34,29S1031,639.88,1020,649.88Z" style="fill:#feffff"/><path d="M1017.52,652.07a123.47,123.47,0,0,1-19.78,13.81s-59.74-16-77.74-21-33-9-34-18c0,0,10-1,10-8s-8-9-2-16,15,0,15,0h4a3.21,3.21,0,0,0-.72-1.71l9.22,3.21s6,0,22,3,43,9,43,9,30,10,30,27Z" style="fill:#bbceef"/><path d="M974.5,660.38l11,3s6,2,10,0,4-2,9-7,14-11,16-32v-12s-3,24-8,30-6,12-17,15A89.46,89.46,0,0,1,974.5,660.38Z" style="fill:#4a67b7"/><path d="M961,597.13c-.72,5-3.43,9.48-3.7,14.55a18.58,18.58,0,0,0,1.44,7.31,73.47,73.47,0,0,0,3,8.09c.87,1.72,3.46.21,2.59-1.51a67.84,67.84,0,0,1-2.75-7.37,16.22,16.22,0,0,1-1.3-6.93c.39-4.61,2.9-8.77,3.57-13.34.27-1.89-2.62-2.7-2.9-.8Z" style="fill:#4a67b7"/><path d="M945,596.23c.67,5.56-.8,11.08-.29,16.63.49,5.26,2.58,10.14,5,14.77.9,1.71,3.49.2,2.59-1.51-2.32-4.41-4.39-9.14-4.66-14.18-.29-5.25,1-10.46.35-15.71-.23-1.89-3.23-1.91-3,0Z" style="fill:#4a67b7"/><path d="M932.78,593.5a78.22,78.22,0,0,0-2.44,19.44c0,5.45,0,12,3.94,16.21,1.31,1.43,3.43-.7,2.12-2.12a11.83,11.83,0,0,1-2.64-6.49,56.82,56.82,0,0,1-.42-8.55,74.92,74.92,0,0,1,2.33-17.69c.48-1.87-2.41-2.67-2.89-.8Z" style="fill:#4a67b7"/><path d="M920,591c-2.61,5.23-1.75,11.29-3.27,16.82a22,22,0,0,0-.91,8.82A42.35,42.35,0,0,0,918.5,626c.68,1.79,3.58,1,2.9-.8a43,43,0,0,1-2.55-8.42c-.48-3,.14-5.65.9-8.5a42.4,42.4,0,0,0,1.16-7.76,21.06,21.06,0,0,1,1.69-7.92c.86-1.72-1.73-3.24-2.59-1.51Z" style="fill:#4a67b7"/><path d="M905.29,591.94a2.93,2.93,0,0,0,.46,1.49,6.39,6.39,0,0,1,.46.76l-.15-.36a1.56,1.56,0,0,1,.1.37l0-.4V594l0-.4a1.21,1.21,0,0,1,0,.18l.15-.36-.06.1.24-.3-.09.08.31-.24-.15.09.36-.15-.16,0,.4-.05H907l.4.05-.13,0,.36.15-.07,0,.3.23-.06,0,.24.3,0-.07.16.35a.14.14,0,0,1,0-.06,1.59,1.59,0,0,0-.69-.9,1.52,1.52,0,0,0-1.16-.15,1.55,1.55,0,0,0-.9.69,1.67,1.67,0,0,0-.15,1.16A1.88,1.88,0,0,0,907,596a2.11,2.11,0,0,0,1.79-1,2.23,2.23,0,0,0,.28-1.21,2.69,2.69,0,0,0-.11-.62,4.17,4.17,0,0,0-.24-.58c-.16-.34-.43-.63-.58-1l.15.36a1.58,1.58,0,0,1-.09-.31l.06.39a.37.37,0,0,1,0-.11,1.5,1.5,0,0,0-1.5-1.5,1.54,1.54,0,0,0-1.06.44,1.52,1.52,0,0,0-.44,1.06Z" style="fill:#8ba2d4"/><path d="M671,452.88H940s7,1,8,5-3,6-5,6l-272,1s-7,1-7-4S666,453.88,671,452.88Z" style="fill:#4e5f93"/><path d="M676.77,463.88H937.11s6.77.74,7.74,3.72-2.91,4.47-4.84,4.47l-263.24.74s-6.77.75-6.77-3S671.94,464.62,676.77,463.88Z" style="fill:#191c3b"/><path d="M775,198.88s-49,10-70,21-37,27-45,38-60,87-60,87a179.25,179.25,0,0,0,26,21,186.1,186.1,0,0,0,26,14s5,1,8-1,33-32,33-32,140-32,145-33,61,1,61,1,3,21,10,23,23,13,23,13l26,28s2,5,8,2,51-32,51-32a5.64,5.64,0,0,0,0-6c-2-3-45-70-45-70s-21-29-33-39-50-26-50-26l-41-9Z" style="fill:#fcfefd"/><path d="M780,197.88a12.72,12.72,0,0,0-9,11c-1,9,6,38,34,40s44-14,47-26,2-23-12-29S780,195.88,780,197.88Z" style="fill:#e7a3ba"/><path d="M784,194.88s-9,4-6,12,12,25,32,26,35-14,36-22,2.39-13.61-8.3-17.31S785,191.88,784,194.88Z" style="fill:#b6618b"/><path d="M977.9,259.46c-1.29,10.29-30.88,184-30.88,184s-1.29,9-10.29,9l-41.43.07c-73.38.11-217.91.36-217.91.36s-8.28-.43-9.56-12-24.45-184-24.45-184,0-7.72,3.86-11.58,10.29-6.43,16.73-6.43H959.88S971.46,240.16,974,244,979.18,249.17,977.9,259.46Z" style="fill:#d6e7fb"/><path d="M978.23,259.46c-1.29,10.29-30.88,184-30.88,184s-1.29,9-10.29,9l-41.43.07A39.72,39.72,0,0,0,924.19,428c11.58-28.31,30.88-129.95,30.88-129.95l11.58-46.32s3.86-11.58-25.73-12.86h19.3s11.58,1.28,14.15,5.14S979.52,249.17,978.23,259.46Z" style="fill:#a0b8e6"/><circle cx="810.81" cy="345.88" r="28" style="fill:#fdfeff"/><circle cx="810.81" cy="345.88" r="21" style="fill:#344072"/><path d="M681,451.88s-7,3-9-9-12-97-12-97l-12-90s1-12,12-12,158,1,158,1l133-1,11.78.69s9.22,2.31,7.22,17.31-5,10-7,3-3-9-11-12-45-2-45-2l-237-1s-15-1-14,9S681,451.88,681,451.88Z" style="fill:#fdfeff"/><path d="M767.72,160.83a46.89,46.89,0,0,1-5.72-2l-.54-.23c-19.61-8.26-20-23.78-19-31.18a25.06,25.06,0,0,1,.9-4.13c.79-3.71,7-2.09,12.35.2C761.12,134.86,772.16,159.34,767.72,160.83Z" style="fill:#fed0da"/><path d="M866.4,153.28c-.93.48-1.91.93-2.95,1.37l-.54.23-1,.41a46.21,46.21,0,0,1-4.7,1.54c-3.1-1,1.34-13.27,6.14-24.41,2.07-4.83,4.21-9.46,5.84-12.88,3.07-1.3,6.39-2.39,8.83-2.4,1.84,0,3.18.6,3.52,2.2a25.06,25.06,0,0,1,.9,4.13C883.43,130.48,883.1,144.77,866.4,153.28Z" style="fill:#fed0da"/><path d="M878,117.14v2.74s-6,22-9,23l-2.6,10.4-.4,1.6s-2.18.31-4.11.41c-1.52.08-2.89,0-2.89-.41,0-1-2-8,0-10,1.11-1.11,2.83-7.14,4.33-12.46,2.07-4.83,4.21-9.46,5.84-12.88C872.24,118.24,875.56,117.15,878,117.14Z" style="fill:#d1829f"/><path d="M767.72,160.83a1.66,1.66,0,0,1-.72,0,10.68,10.68,0,0,1-5.54-2.23,9.93,9.93,0,0,1-3.46-5.77s0-6-7-13a52,52,0,0,1-8.51-12.41,25.06,25.06,0,0,1,.9-4.13c.79-3.71,7-2.09,12.35.2C761.12,134.86,772.16,159.34,767.72,160.83Z" style="fill:#d1829f"/><path d="M759,123.88s-6,33,14,63,50,30,71,8,23-45,23-58-10-36-10-36S759,111.88,759,123.88Z" style="fill:#fcd1da"/><path d="M770.39,133.9c-.06.6,53.61,21,76.61-2s20-30,20-30l-6-8-19,6S770.78,129.92,770.39,133.9Z" style="fill:#d1829f"/><path d="M899,78.88c-2,17-13,25-13,25v4c-5,14-9,4-9,4a66,66,0,0,1-10,31c0-17-4-25-5-28a83.76,83.76,0,0,1-2-10,23.66,23.66,0,0,0,1.51-4.28C858.2,109.23,850,116.66,843,122.88c-9,8-20,13-55,14s-49-33-49-33-7-10-8-32,20-23,20-23-11-2-10-18c.58-9.21,10.75-11.79,19.29-12.32,1.36-.09,2.69-.12,3.93-.12h.92a64,64,0,0,1,6.86.43c12,0,26-11,26-11a49.25,49.25,0,0,1,36-7c31,5.91,29,33,29,33a57.88,57.88,0,0,1,13.84,2c4.69,1.3,9.62,3.45,13.16,7C899,51.88,901,61.88,899,78.88Z" style="fill:#212749"/><path d="M876.84,35.89c-.11,4.23-.36,8.94-.84,14-2,21-26,32-60,43s-65-3-68-22,18-22,18-22c-17-3-14-11-13-20,.5-4.46,3.94-7.94,7.29-10.32,1.36-.09,2.69-.12,3.93-.12h.92a64,64,0,0,1,6.86.43c12,0,26-11,26-11a49.25,49.25,0,0,1,36-7c31,5.91,29,33,29,33A57.88,57.88,0,0,1,876.84,35.89Z" style="fill:#394170"/><path d="M758.46,145.05S742,134.88,739,105.88s22-4,23-3S758.46,145.05,758.46,145.05Z" style="fill:#212749"/><path d="M426,625.88H550s-5,5-4,15,6,15,6,15l-131,1-8-1s-2-17-2-19,1-9,1-9S421,621.88,426,625.88Z" style="fill:#fcfdff"/><path d="M552,663.88s-275,3-292,1-17-13-17-13-1-18-1-26a6,6,0,0,1,2.12-4.83c3.19-2.69,8.88-2.17,8.88-2.17l297-1a4.21,4.21,0,0,1,3.62,2.12,4.45,4.45,0,0,1,.38,1.88c0,4-4,4-4,4H426c-5,0-12,4-12,15s7,16,7,16l131-1C558,662.88,552,663.88,552,663.88Z" style="fill:#333f73"/><path d="M408,638.73V653a7.82,7.82,0,0,1-7.85,7.85h-48.3A7.84,7.84,0,0,1,344,653v-14.3a7.61,7.61,0,0,1,.27-2,7.85,7.85,0,0,1,7.58-5.81h48.3a7.85,7.85,0,0,1,7.85,7.85Z" style="fill:#f6fafb"/><path d="M407.5,636c-3.32,1.91-8.78,1.91-9.5,1.91-1,0-20-1-39,0-9.75.51-13.44-.29-14.73-1.19a7.85,7.85,0,0,1,7.58-5.81h48.3A7.83,7.83,0,0,1,407.5,636Z" style="fill:#d16797"/><path d="M407.65,655.37a7.86,7.86,0,0,1-7.5,5.51h-48.3a7.85,7.85,0,0,1-7.05-4.39C356.27,654.93,399.44,649.53,407.65,655.37Z" style="fill:#d16797"/><path d="M553.62,620c-1.82,1.45-6.62,1.88-6.62,1.88l-146,1s-142,1-152,0a8.22,8.22,0,0,1-4.88-1.83c3.19-2.69,8.88-2.17,8.88-2.17l297-1A4.21,4.21,0,0,1,553.62,620Z" style="fill:#1d2644"/><path d="M421.94,635.82c31.05,0,62.12.43,93.16,0,8.8-.11,17.59-.35,26.37-.87,1.92-.11,1.94-3.11,0-3-15.57.91-31.18,1-46.78,1l-46.34-.08-26.41,0a1.5,1.5,0,0,0,0,3Z" style="fill:#cfdff8"/><path d="M425.85,649l90.78-.09,25.44,0a1.5,1.5,0,0,0,0-3l-90.78.1-25.44,0a1.5,1.5,0,0,0,0,3Z" style="fill:#cfdff8"/><path d="M528,618.88c-1,.2-1.94.36-2.85.5H252.22a10.72,10.72,0,0,1-10.72-10.72V572.1a10.72,10.72,0,0,1,10.72-10.72H526.78a10.65,10.65,0,0,1,6.69,2.35c1.4,2.17,2.48,5.66-3.47,7.15-4,1-25,0-25,0l-101,1s-10,0-10,15,0,27,22,27H532S538,616.88,528,618.88Z" style="fill:#5a7dcf"/><path d="M418.3,572.88H532a0,0,0,0,1,0,0v40a0,0,0,0,1,0,0H418.3a18.3,18.3,0,0,1-18.3-18.3v-3.39A18.3,18.3,0,0,1,418.3,572.88Z" style="fill:#fdfdfd"/><path d="M394,571.88c-4.67,4.35-9.14,10.19-9,17,.2,9.62,9.5,15,7,21-1.47,3.54-6.35,5.69-10,5-7.57-1.45-11.63-15.47-10-26,0,0,1.82-11.75,12-19,1.51-1.08,6.67-4.75,9-3C394.39,567.92,394.21,570.47,394,571.88Z" style="fill:#fdfdfd"/><path d="M448,518.88c0,1-10,16-2,34l-25,6-73-5,3-34s8-2,9-2,87,1,87,1Z" style="fill:#fdfdfd"/><path d="M294,519.88c16.74,3.18,37.85-18.6,44-41,7-25.44-8.32-40.72-18-78-5.1-19.63-9.69-49.38-4-89-9.41,2.63-22.07,7.83-32,19-16.33,18.36-8,33.46-15,101-2.76,26.54-5.85,41.49,2,61C273.93,500.17,280.86,517.37,294,519.88Z" style="fill:#38559e"/><path d="M308.5,477.38a260.18,260.18,0,0,1-16.34-69.21,171.1,171.1,0,0,1,.33-35.7A118.6,118.6,0,0,1,296,355a94.61,94.61,0,0,1,6.52-16.57,105.9,105.9,0,0,0-5.57,16.82l-1,4.32c-.29,1.45-.51,2.91-.76,4.36s-.46,2.91-.64,4.38-.42,2.91-.52,4.39a167.91,167.91,0,0,0-.76,17.66c0,5.9.36,11.8.87,17.68s1.24,11.75,2.15,17.59,2,11.65,3.18,17.44,2.57,11.55,4.08,17.28S306.69,471.73,308.5,477.38Z" style="fill:#fff"/><path d="M294,521.6c10.56-2.18,16.74-17,18.58-24.67,2.62-11-.56-20.25-6.79-38.31-4.73-13.75-6.52-14.08-10.55-25.7-5.83-16.74-4.06-21.59-8.36-41.54-3.36-15.6-6.79-31.53-16.57-47.75a108.22,108.22,0,0,0-29-31.29A109.25,109.25,0,0,0,236,358c1.31,12.84,4.21,17,6,29.11,4.07,26.82-5.52,37-5.88,56.73C235.37,484.15,273.71,525.78,294,521.6Z" style="fill:#4561b4"/><path d="M293,531.88c-9.7,1.29-41.26,4.25-73-15a111.86,111.86,0,0,1-41-44c2.15-.56,4.5-1.14,7-1.71a224.39,224.39,0,0,1,40-5.29c11.69-.49,18.51-.77,25,1,18.05,4.92,29,24.5,35.22,41.26A164.41,164.41,0,0,1,293,531.88Z" style="fill:#354f7a"/><path d="M286.22,508.14c-7.35,3.32-24.27-1.1-38.8-5.87h0c-5.76-1.89-11.14-3.84-15.4-5.38-17.81-6.44-44.56-16.11-46-25.71h.05A224.12,224.12,0,0,1,226,465.88c11.69-.49,18.51-.77,25,1C269.05,471.8,280,491.38,286.22,508.14Z" style="fill:#4360b0"/><path d="M247.4,502.26c-5.76-1.89-11.14-3.84-15.4-5.38-17.81-6.44-44.56-16.11-46-25.71h.05c.62,1.68,5.41,10.89,37.91,21.72C237.49,497.38,244.24,500.33,247.4,502.26Z" style="fill:#d0e6fd"/><path d="M356,544.88s-1,7,16,7,73-1,73-1,6-2,6,4-2,6-6,6c-2,0-8.71.5-14.82,1H271.93A8.93,8.93,0,0,1,263,553a38.06,38.06,0,0,1,38.07-38.07H451.65c2.87,2.65,5,7-11.65,7H362a9.39,9.39,0,0,0-6,9Z" style="fill:#dae9fc"/><path d="M364.61,530.61h72a1.5,1.5,0,0,0,0-3h-72a1.5,1.5,0,0,0,0,3Z" style="fill:#cfdff8"/><path d="M367.74,539.81h63.19a1.5,1.5,0,0,0,0-3H367.74a1.5,1.5,0,0,0,0,3Z" style="fill:#cfdff8"/><path d="M413.91,579.53H527.78a1.5,1.5,0,0,0,0-3H413.91a1.5,1.5,0,0,0,0,3Z" style="fill:#cfdff8"/><path d="M454.5,456.88a23.5,23.5,0,1,0,23.5,23.5A23.5,23.5,0,0,0,454.5,456.88Zm-3,38a15.5,15.5,0,1,1,15.5-15.5A15.5,15.5,0,0,1,451.5,494.88Z" style="fill:#6080b2"/><path d="M454,446.18l-.58,4.05-1,7-7.82,54.5a3.14,3.14,0,0,1-3.09,3.19H393.13a3.14,3.14,0,0,1-3.09-3.19l-7.92-55.21-1-7.11-.46-3.21A4.16,4.16,0,0,1,384.8,442h65.05A4.15,4.15,0,0,1,454,446.18Z" style="fill:#6080b2"/><path d="M412.35,588.92H522.7a1.5,1.5,0,0,0,0-3H412.35a1.5,1.5,0,0,0,0,3Z" style="fill:#cfdff8"/><path d="M414.5,597.53h98a1.5,1.5,0,0,0,0-3h-98a1.5,1.5,0,0,0,0,3Z" style="fill:#cfdff8"/><path d="M441.5,607.11h79a1.5,1.5,0,0,0,0-3h-79a1.5,1.5,0,0,0,0,3Z" style="fill:#cfdff8"/><rect x="333" y="552.88" width="75" height="9" rx="3.3" style="fill:#202b41"/><path d="M453.42,450.23l-1,7a81,81,0,0,1-70.3-.71l-1-7.11a79.63,79.63,0,0,0,8.9,3.49C414.93,461,438.59,455.55,453.42,450.23Z" style="fill:#c0cee2"/><path d="M410,427.49a14.09,14.09,0,0,1-2.61-7,17.65,17.65,0,0,1,1.53-7.83,26.69,26.69,0,0,0,1.94-8.26,55,55,0,0,0-.47-9.15c-.2-1.9-3.2-1.92-3,0a53.63,53.63,0,0,1,.45,9.39c-.21,3.2-1.41,6-2.46,9a17,17,0,0,0,2,15.4c1.11,1.57,3.71.07,2.59-1.51Z" style="fill:#fff"/><path d="M419.45,423a25.15,25.15,0,0,1-2.57-10.9A28.78,28.78,0,0,1,419.3,401c1.38-3.42,2.9-6.79,3.2-10.5A16.31,16.31,0,0,0,419.59,380c-1.09-1.57-3.69-.08-2.59,1.51A13.68,13.68,0,0,1,419.29,392c-.74,3.71-2.56,7.07-3.8,10.62a28.28,28.28,0,0,0,1.37,21.89c.85,1.73,3.44.21,2.59-1.51Z" style="fill:#fff"/><path d="M427.89,425.91c-2.66-4.29-4.84-9.65-2.86-14.66.91-2.32,2.63-4.22,3.6-6.52a18.85,18.85,0,0,0,1.46-7.63c0-1.93-3-1.94-3,0a15.78,15.78,0,0,1-1.9,7.9c-1.31,2.37-3,4.42-3.55,7.12-1.19,5.42.84,10.74,3.66,15.3,1,1.64,3.62.13,2.59-1.51Z" style="fill:#fff"/><path d="M282.17,498.14a26.94,26.94,0,0,0-1.53-2.46c-3.62-5.26-14-17.42-34.14-21.3-26-5-37,4-46-16-8.78-19.51-7.09-20-20.94-22.79l-1.06-.21s-43,8-55-13-26-73-25-101c0,0,35-17,79,1s30,35,43,45,34,6,50,29S293.85,460.9,282.17,498.14Z" style="fill:#5b7bd0"/><path d="M280.64,495.68c-3.62-5.26-14-17.42-34.14-21.3-26-5-37,4-46-16-8.78-19.51-7.09-20-20.94-22.79a142.7,142.7,0,0,1,52.94-3.21s32,31,39,41C275.7,479.37,278.81,489,280.64,495.68Z" style="fill:#4360b0"/><path d="M98.64,321.17c3.48,1.94,7,3.79,10.45,5.8l10.35,5.95h0l.16.12,8,5.83c2.66,1.94,5.25,3.95,7.89,5.92,5.25,4,10.5,7.92,15.69,12s10.43,8,15.57,12.1l15.47,12.23.12.1.19.18L213.92,412q7.82,7.69,15.7,15.31c5.24,5.09,10.44,10.23,15.73,15.24,2.63,2.52,5.31,5,8,7.47,1.33,1.22,2.65,2.47,4,3.67l2,1.76c.68.6,1.31,1.14,2.09,1.85s1.52,1.34,2.18,2.07l2,2.18c1.22,1.52,2.47,3,3.52,4.62a81.83,81.83,0,0,1,5.71,9.84,130.15,130.15,0,0,1,8.11,20.78q1.63,5.31,3,10.67c.9,3.57,1.6,7.19,2.24,10.82l-.49.11a204.59,204.59,0,0,0-6.53-20.94q-1.89-5.14-4.12-10.16c-1.47-3.34-3.08-6.63-4.85-9.82a77,77,0,0,0-5.86-9.23c-1.05-1.49-2.25-2.86-3.43-4.24l-1.9-1.95c-.63-.66-1.36-1.21-2-1.81-5.69-4.61-11.16-9.52-16.57-14.46-10.79-9.91-21.38-20-31.91-30.24S189.56,395,179.19,384.68l0,0L118.31,334.6l0,0-20-13Z" style="fill:#fff"/><path d="M266.78,465.53a117.19,117.19,0,0,1-5-13.89,133.53,133.53,0,0,1-3.37-14.39,99.78,99.78,0,0,1-1.3-14.74A57.11,57.11,0,0,1,259,407.88l-.58,3.63-.15.91c0,.3,0,.61-.07.92l-.13,1.83-.15,1.83c0,.61,0,1.22,0,1.83,0,1.22,0,2.45,0,3.67a111.38,111.38,0,0,0,1.52,14.58c.77,4.84,1.89,9.61,3.12,14.36q.9,3.56,2,7.07C265.21,460.87,266,463.2,266.78,465.53Z" style="fill:#fff"/><path d="M235.74,435.53a52.39,52.39,0,0,1-8.8-11.92,61.68,61.68,0,0,1-7.78-28.47,63.46,63.46,0,0,1,.23-7.43,32.54,32.54,0,0,1,.5-3.68l.61-3.65-.35,3.68a32.53,32.53,0,0,0-.27,3.68,62.29,62.29,0,0,0,.05,7.36,64.47,64.47,0,0,0,2.35,14.48,65.92,65.92,0,0,0,5.33,13.67c.53,1.11,1.18,2.15,1.76,3.23s1.29,2.1,1.95,3.14A56.09,56.09,0,0,0,235.74,435.53Z" style="fill:#fff"/><path d="M137.5,413.38a44,44,0,0,1,15.09-10,46.37,46.37,0,0,1,8.79-2.57,54.82,54.82,0,0,1,9.11-1,69.67,69.67,0,0,1,9.14.42,73.2,73.2,0,0,1,9,1.65,69.54,69.54,0,0,1,16.91,6.47,103,103,0,0,0-17.25-4.95,80.59,80.59,0,0,0-17.71-1.6,56.65,56.65,0,0,0-8.82.85c-1.46.21-2.9.56-4.34.89s-2.86.76-4.24,1.28a48.7,48.7,0,0,0-8.13,3.6A55.81,55.81,0,0,0,137.5,413.38Z" style="fill:#fff"/><path d="M1231.45,475c9.44-3.36,12-34.64-2.18-55.9-5.64-8.49-17.56-20.86-24.58-17.91-9.74,4.08-9.83,37.49,6.21,59C1212.44,462.26,1223.9,477.66,1231.45,475Z" style="fill:#466da4"/><path d="M1206,403a30.42,30.42,0,0,1,6.32,4.66,35.28,35.28,0,0,1,5,6.2,48,48,0,0,1,5.87,14.69,72.54,72.54,0,0,1,1.73,15.66,74.12,74.12,0,0,1-1.48,15.6,144,144,0,0,0-.08-15.55c-.18-2.58-.4-5.14-.76-7.69a71.59,71.59,0,0,0-1.36-7.58,56.4,56.4,0,0,0-2.14-7.36,46.88,46.88,0,0,0-3.12-7,41,41,0,0,0-4.32-6.32A39.94,39.94,0,0,0,1206,403Z" style="fill:#f9f9f9"/><polygon points="1109 640.88 1094 463.88 1116 461.88 1127 640.88 1109 640.88" style="fill:#252d54"/><path d="M1135,658.88h-35c-.53-1-3.88-7.5-1-14,3.7-8.34,14.24-8.91,16-9a22.73,22.73,0,0,1,3.38.08c6.5.62,13.87,3.95,16.62,10.92A17.66,17.66,0,0,1,1135,658.88Z" style="fill:#353f72"/><path d="M1135,658.88h-14.24c1.54-2.21,4.79-7.8,3.24-14a19.27,19.27,0,0,0-5.62-8.92c6.5.62,13.87,3.95,16.62,10.92A17.66,17.66,0,0,1,1135,658.88Z" style="fill:#212d60"/><rect x="1072" y="651.88" width="89" height="17" rx="5.66" style="fill:#353f72"/><path d="M1161,657.54v5.68a5.67,5.67,0,0,1-5.66,5.66h-23.81c1.16-2.38,3.24-4.74,2.47-8-1.19-5-8.06-7.36-14.15-9h35.49A5.67,5.67,0,0,1,1161,657.54Z" style="fill:#212d60"/><path d="M1105,423.88a24,24,0,1,0,24,24A24,24,0,0,0,1105,423.88Zm0,33a9,9,0,1,1,9-9A9,9,0,0,1,1105,456.88Z" style="fill:#252d54"/><path d="M1197,338.88a24,24,0,1,0,24,24A24,24,0,0,0,1197,338.88Zm0,33a9,9,0,1,1,9-9A9,9,0,0,1,1197,371.88Z" style="fill:#252d54"/><path d="M1014,227.39c-.33-1.71-1.22-7.59-5.27-9.48-3.63-1.7-8.58.34-10.54,2.11-13.29,11.95,21.79,91.41,47.43,88.53,4.7-.54,9.72-3.91,11.59-8.44C1064.72,281.84,1018.42,251.08,1014,227.39Z" style="fill:#fcfefd"/><polygon points="1108.22 433.92 1183.24 367.4 1195.78 378.83 1125.76 445.13 1108.22 433.92" style="fill:#252d54"/><path d="M1125,223.19l-6.87-16.31a7.15,7.15,0,0,0-9.37-3.81l-26.22,11.05a22.49,22.49,0,0,1-8.72,1.76h-69.24a5.15,5.15,0,0,0-4.46,7.72l46.5,80.55a5.16,5.16,0,0,0,8.93,0l28.1-48.68a32.2,32.2,0,0,1,15.4-13.59l22.14-9.32A7.15,7.15,0,0,0,1125,223.19Z" style="fill:#252d54"/><polygon points="1183 353.88 1094 231.88 1108 221.88 1196 346.88 1183 353.88" style="fill:#252d54"/><path d="M1295.27,557.92l-13.74,102.51a9.74,9.74,0,0,1-9.65,8.45h-59.26a9.74,9.74,0,0,1-9.65-8.45l-13.74-102.51a9.74,9.74,0,0,1,9.65-11h86.74A9.74,9.74,0,0,1,1295.27,557.92Z" style="fill:#feffff"/><path d="M1295.27,557.92l-13.74,102.51a9.74,9.74,0,0,1-9.65,8.45H1258l13.19-122h14.46A9.74,9.74,0,0,1,1295.27,557.92Z" style="fill:url(#linear-gradient-3)"/><path d="M1236.82,474.24s22.68-45.86,9.68-78.86c0,0-27,31-29,75S1236.82,474.24,1236.82,474.24Z" style="fill:#467aa9"/><path d="M1245.18,397a74.72,74.72,0,0,1,.09,11.78,112.6,112.6,0,0,1-1.38,11.71,198.65,198.65,0,0,1-5.42,23q-1.67,5.65-3.55,11.25t-4,11.08c-2.88,7.31-6,14.56-9.48,21.58l-.07,0c3.13-7.2,6.1-14.47,8.85-21.82s5.41-14.74,7.72-22.23a199.73,199.73,0,0,0,5.62-22.84,114.63,114.63,0,0,0,1.53-11.67,75.56,75.56,0,0,0,0-11.75Z" style="fill:#fcfcfc"/><path d="M1330.5,430.38a69.77,69.77,0,0,1-1,22.26c-7.46,38.78-41.88,86.74-83,94.74-6.46,1.26-17.22,3.35-25.63-1.43a18,18,0,0,1-2.37-1.57c-17.65-13.79-7.52-55.55,3.5-79.5,2.88-6.26,11.79-24.28,33.5-44.5,32.64-30.4,70-43.25,96-49-7.64,7.5-17.82,19.88-21,37A63.45,63.45,0,0,0,1330.5,430.38Z" style="fill:#5e7fd0"/><path d="M1225.09,537.48c6.8-15.07,14.19-29.82,22-44.38q5.82-10.92,12-21.62c4.15-7.13,8.4-14.21,12.86-21.15s9-13.83,13.85-20.51,9.8-13.28,15.16-19.55A199.06,199.06,0,0,1,1318,392.36a96.65,96.65,0,0,1,20-14.48,96.07,96.07,0,0,0-19.81,14.66,198.19,198.19,0,0,0-16.84,18c-5.3,6.31-10.18,13-14.94,19.66s-9.25,13.63-13.62,20.61-8.55,14.08-12.61,21.24-8,14.4-11.81,21.7c-7.6,14.6-14.84,29.42-21.45,44.47Z" style="fill:#fff"/><path d="M1329.48,452.64c-7.46,38.78-41.88,86.74-83,94.74-6.46,1.26-17.22,3.35-25.63-1.43,5-16.73,20.71-58.73,54.13-69.07C1302,468.53,1319.86,460.19,1329.48,452.64Z" style="fill:#3851a0"/><path d="M1218,545.88c-10.35,2-31.44-30-30-56,.24-4.43,1.22-10.06,1-20a137.27,137.27,0,0,0-4-30c7.69,1.69,20,5.66,30,16C1243.43,485.29,1230.84,543.36,1218,545.88Z" style="fill:#4c67ae"/><path d="M1233.5,465.38a54.25,54.25,0,0,1,3.09,12.19,78.13,78.13,0,0,1,.51,12.61,99.14,99.14,0,0,1-1.44,12.52,83.94,83.94,0,0,1-3.12,12.2c.54-2,1-4.07,1.43-6.12s.8-4.11,1.12-6.18a110.94,110.94,0,0,0,1.26-12.46,82.81,82.81,0,0,0-.33-12.5l-.4-3.1c-.11-1-.39-2.05-.58-3.08C1234.73,469.38,1234,467.41,1233.5,465.38Z" style="fill:#fff"/><path d="M1185,439.88a263.53,263.53,0,0,1,18,20.06,111.85,111.85,0,0,1,7.94,11c.29.49.61,1,.88,1.47l.79,1.55a10.91,10.91,0,0,1,.71,1.66c.17.57.33,1.14.46,1.71a43.36,43.36,0,0,1,.85,6.83,191.45,191.45,0,0,1-1,27q-1.27,13.43-3.6,26.71,1.15-13.43,2-26.83c.26-4.48.53-8.94.65-13.41s.2-8.94-.06-13.36a43.79,43.79,0,0,0-.76-6.53c-.12-.51-.26-1-.41-1.53a9.09,9.09,0,0,0-.6-1.43l-.73-1.46c-.26-.48-.55-.95-.83-1.43a125.32,125.32,0,0,0-7.54-11C1196.38,453.76,1190.73,446.79,1185,439.88Z" style="fill:#fff"/><path d="M1212,543.88c6.15-7.81-3.33-27.73-17-38-12.84-9.66-27.51-9.39-33-9a44.54,44.54,0,0,1,4,11c1.26,5.72.74,8.86,1,12,.86,10.38,10.3,20.88,21,25C1194.31,547.3,1207.26,549.9,1212,543.88Z" style="fill:#467aa9"/><path d="M1236,537.88s18-55,59-62,53,2,53,2-6.44,37.45-31.72,43.22-56.59,24.28-56.59,24.28S1221,547.88,1236,537.88Z" style="fill:#4662ab"/><path d="M1263,552.88c-6.93-7.24,4.84-36.32,27-49,8.84-5.06,25-10.79,30-5,6.87,8-8,37.92-32,50C1285.69,550,1268.55,558.67,1263,552.88Z" style="fill:#466da4"/><path d="M1277,542.88a74.16,74.16,0,0,1,5.67-14.61,72.27,72.27,0,0,1,8.56-13.23,48,48,0,0,1,11.82-10.51,36.39,36.39,0,0,1,7.2-3.32,30.35,30.35,0,0,1,7.75-1.33,39.36,39.36,0,0,0-7.4,2.25,41.59,41.59,0,0,0-6.7,3.71,49.1,49.1,0,0,0-5.92,4.85,56.56,56.56,0,0,0-5.21,5.62,73.14,73.14,0,0,0-4.61,6.16c-1.47,2.12-2.81,4.32-4.12,6.54A139.82,139.82,0,0,0,1277,542.88Z" style="fill:#f9f9f9"/><rect x="1173.25" y="536.88" width="138" height="29" rx="8.96" style="fill:#feffff"/><path d="M1311.25,545.84v11.08a9,9,0,0,1-9,9h-43.55l1.34-29h42.21A9,9,0,0,1,1311.25,545.84Z" style="fill:url(#linear-gradient-4)"/><path d="M1162.68,496.83a41.16,41.16,0,0,1,15.39,6.25,48.87,48.87,0,0,1,12.11,11.59,67.23,67.23,0,0,1,4.54,7.06,69.52,69.52,0,0,1,3.56,7.57,63.91,63.91,0,0,1,4.22,16.08,98.77,98.77,0,0,0-5.65-15.46,78.15,78.15,0,0,0-8.27-14,55.54,55.54,0,0,0-5.29-6.17c-.92-1-1.94-1.88-2.94-2.8s-2.06-1.76-3.17-2.54A52,52,0,0,0,1162.68,496.83Z" style="fill:#f9f9f9"/><path d="M1171.5,516.38a12,12,0,0,1,7.17-.71,22.8,22.8,0,0,1,6.85,2.54,37.29,37.29,0,0,1,6,4.14,39.16,39.16,0,0,1,5.12,5.1c-.92-.78-1.82-1.57-2.76-2.31S1192,523.65,1191,523a57.38,57.38,0,0,0-6-3.87,27.51,27.51,0,0,0-6.52-2.66A14.16,14.16,0,0,0,1175,516,12.5,12.5,0,0,0,1171.5,516.38Z" style="fill:#f9f9f9"/><path d="M1211.5,501.38c-2.2-3.42-13.09-1.8-18,4-.74.87-2.41,2.84-2,5,.63,3.34,5.94,5.56,10,5C1208.59,514.39,1213.65,504.7,1211.5,501.38Z" style="fill:#f44b8c"/><path d="M1210,503.88c-4.14.58-7.76,11.53-4,18,.4.68,2,3.53,5,4,3.36.53,6.74-2.29,8-5C1222.13,514.13,1214.44,503.24,1210,503.88Z" style="fill:#f44b8c"/><path d="M1215,504.88c-2.49,1.91.19,13.09,7,16,1.7.72,4.7,1.38,6,0,2-2.12-1.25-7.72-2-9s-4-6.81-9.17-7.25C1216,504.56,1215.46,504.52,1215,504.88Z" style="fill:#f44b8c"/><path d="M1219,502.88a17.91,17.91,0,0,0,4,7c3.65,3.9,9.9,6.86,12,5,1.59-1.41.73-5.48-1-8C1231.28,502.92,1225.38,501.35,1219,502.88Z" style="fill:#f44b8c"/><path d="M1224,503.88c5,.5,11.56-1.59,12-5,.31-2.41-2.46-5-5-6-6.5-2.6-15.41,3.56-15,7C1216.29,502.29,1221.24,503.6,1224,503.88Z" style="fill:#f44b8c"/><path d="M1228,495.88c2.6-3,4-8.14,2-10-1.61-1.53-4.94-.37-6,0-6.66,2.31-11.82,10.24-10,13C1215.68,501.41,1223.94,500.56,1228,495.88Z" style="fill:#f44b8c"/><path d="M1223,490.88c1.85-5.08-3.2-12-9-12a8.54,8.54,0,0,0-8,6c-1.34,5.12,3.61,10.85,9,11C1218.27,496,1221.86,494,1223,490.88Z" style="fill:#f44b8c"/><path d="M1207,488.88c-1.91-.6-7.61-2.38-11,1a6.91,6.91,0,0,0-2,6c.74,3.88,5.41,6,9,6,5.63-.07,10.87-5.57,10-9C1212.42,490.57,1209.17,489.55,1207,488.88Z" style="fill:#f44b8c"/><path d="M1210,496.88c-.25.39-2,3.17-1,6,1.21,3.42,5.72,4.85,9,4,.66-.18,3.16-.83,4-3,1.24-3.21-2.58-6.64-3-7s-4-3.43-7-2A4.85,4.85,0,0,0,1210,496.88Z" style="fill:#281a3b"/><path d="M1252,540.88a116.05,116.05,0,0,1,16.07-25.82,112.08,112.08,0,0,1,22.2-21,89.87,89.87,0,0,1,27.49-13.3,84.74,84.74,0,0,1,30.24-2.91,102.87,102.87,0,0,0-15.11,1.06c-2.5.28-5,.87-7.42,1.35-1.23.28-2.44.63-3.65.94l-1.82.47-1.8.58a90.4,90.4,0,0,0-13.91,5.68,95,95,0,0,0-12.87,7.76,107.12,107.12,0,0,0-11.69,9.48,135.82,135.82,0,0,0-10.47,10.85A151.13,151.13,0,0,0,1260,528,122.51,122.51,0,0,0,1252,540.88Z" style="fill:url(#linear-gradient-5)"/><path d="M1273,509.88a107.89,107.89,0,0,1,15-7.42c2.58-1.07,5.22-2,7.89-2.88s5.38-1.58,8.12-2.22a53.19,53.19,0,0,1,16.84-1.31,25.31,25.31,0,0,1,8.22,2.2,16.28,16.28,0,0,1,6.42,5.39,17.18,17.18,0,0,0-6.81-4.49,27,27,0,0,0-8-1.55,46.55,46.55,0,0,0-8.17.32,74.68,74.68,0,0,0-8.11,1.39,146.91,146.91,0,0,0-15.9,4.6C1283.33,505.74,1278.14,507.71,1273,509.88Z" style="fill:url(#linear-gradient-6)"/><path d="M1245.14,498.1a124.26,124.26,0,0,1,12.48-16.34,126.75,126.75,0,0,1,14.92-14.2,94.14,94.14,0,0,1,17.36-11.08,73.17,73.17,0,0,1,9.57-3.83,67.67,67.67,0,0,1,10-2.27,72.14,72.14,0,0,0-19.35,6.61A98,98,0,0,0,1273,468.14a133.8,133.8,0,0,0-15,14q-3.49,3.76-6.73,7.76C1249.16,492.55,1247.06,495.27,1245.14,498.1Z" style="fill:#fff"/><path d="M1255.5,430.38a57.11,57.11,0,0,1,2.08,13.07,115.21,115.21,0,0,1-.15,13.27c-.32,4.41-.8,8.8-1.47,13.17s-1.48,8.71-2.56,13c.33-2.19.67-4.36.95-6.55s.6-4.36.85-6.55c.5-4.37,1-8.74,1.24-13.13s.49-8.78.37-13.17c0-1.1-.06-2.19-.12-3.29s-.1-2.2-.25-3.28-.19-2.2-.37-3.28Z" style="fill:#fff"/></g></g></svg>