<svg xmlns="http://www.w3.org/2000/svg" viewBox="0 0 47.74 47.54"><g id="Layer_2" data-name="Layer 2"><g id="Banner"><path d="M47.74,23.66a.57.57,0,0,0-.6-.57l-5.21.18a17.93,17.93,0,0,0-1.13-5.84l4.82-1.84a.58.58,0,0,0,.33-.76,23.14,23.14,0,0,0-2.11-4,.58.58,0,0,0-.81-.16l-4.22,2.92a18.42,18.42,0,0,0-4.14-4.31l3-4.1a.58.58,0,0,0-.13-.82,23.82,23.82,0,0,0-3.92-2.25.58.58,0,0,0-.77.31l-2,4.7A17.85,17.85,0,0,0,25.1,5.74l.35-5.1A.58.58,0,0,0,24.9,0a25,25,0,0,0-4.5.22.6.6,0,0,0-.49.68L20.77,6a17.87,17.87,0,0,0-5.63,2L12.68,3.42a.59.59,0,0,0-.8-.23A24.33,24.33,0,0,0,8.2,5.81a.59.59,0,0,0,0,.83l3.48,3.83A17.94,17.94,0,0,0,8,15.16L3.41,12.63a.59.59,0,0,0-.8.23,23.53,23.53,0,0,0-1.7,4.2.58.58,0,0,0,.41.72l5.07,1.38a18,18,0,0,0-.59,4.61c0,.43,0,.86,0,1.28l-5.3.33A.59.59,0,0,0,0,26a23.9,23.9,0,0,0,.82,4.45.59.59,0,0,0,.73.39l5.1-1.59a18,18,0,0,0,2.68,5.25L5,37.68a.59.59,0,0,0-.12.82A24.67,24.67,0,0,0,8,41.8a.59.59,0,0,0,.83-.06l3.48-4.12a18.16,18.16,0,0,0,5.06,3l-2,5a.6.6,0,0,0,.34.76,23.66,23.66,0,0,0,4.38,1.12.58.58,0,0,0,.67-.49l.71-5.36a17.56,17.56,0,0,0,2.42.17,18,18,0,0,0,3.46-.34l1,5.28a.59.59,0,0,0,.7.46,24.27,24.27,0,0,0,4.3-1.4.6.6,0,0,0,.29-.78L31.39,40.2a18.11,18.11,0,0,0,4.89-3.29L40,40.75a.58.58,0,0,0,.83,0,23.93,23.93,0,0,0,2.86-3.49.59.59,0,0,0-.17-.81L39,33.61a17.91,17.91,0,0,0,2.37-5.42l5.1,1.23a.58.58,0,0,0,.7-.43,24,24,0,0,0,.54-5.08ZM24.39,33.73a10,10,0,1,1,9.44-9.44A10,10,0,0,1,24.39,33.73Z" style="fill:#389cce"/></g></g></svg>