<svg xmlns="http://www.w3.org/2000/svg" viewBox="0 0 112.21 153.98"><g id="Layer_2" data-name="Layer 2"><g id="Banner"><circle cx="57.99" cy="92.95" r="54.22" style="fill:#2a3e71"/><path d="M28,129c-7.69.09-15.88,18.57-11.38,23.51,2.51,2.75,9.06,1.42,12.89-1.52,6.69-5.12,6.92-16.5,2.28-20.47A5.89,5.89,0,0,0,28,129Z" style="fill:#2a3e71"/><path d="M95.81,133.28c2.81,7.95.22,18.93-4.66,20-4.24.9-10.75-5.6-11.31-12.65-.6-7.45,5.49-15.17,10-14.64C93.37,126.39,95.31,131.88,95.81,133.28Z" style="fill:#2a3e71"/><circle cx="54.22" cy="91.16" r="54.22" style="fill:#5e7ed1"/><circle cx="54.22" cy="91.16" r="40.7" style="fill:#cbe0ff"/><circle cx="54.11" cy="91.06" r="31.41" style="fill:#fcfefd"/><circle cx="54.11" cy="91.06" r="1.62" style="fill:#293160"/><path d="M28,28.12c-.62-2.62-2.1-10.33,2.27-15.93C34,7.44,40.07,6.58,47,6.13c27.09-1.78,46.33-3,53.08,9.1,1.36,2.43,4.23,9,0,21.23" style="fill:none;stroke:#26335f;stroke-miterlimit:10;stroke-width:10px"/><path d="M13.63,48.59c2.4.91,4.88-5,13.65-9.86a40.49,40.49,0,0,1,13.65-4.55C34.52,24.24,23,21.66,16.66,25.84,8.37,31.28,10,47.24,13.63,48.59Z" style="fill:#607bcc"/><path d="M82.68,38.58c-.21,2.56,6.15,3.33,13.23,10.43A40,40,0,0,1,104,60.88c7.81-8.89,7.14-20.63,1.37-25.62C97.89,28.78,83,34.76,82.68,38.58Z" style="fill:#607bcc"/><path d="M53,72.86l.08,17.73a1.5,1.5,0,0,0,3,0L56,72.86a1.5,1.5,0,0,0-3,0Z" style="fill:#293160"/><path d="M52.9,89.92,37.74,110.39c-1.15,1.56,1.45,3,2.59,1.52L55.49,91.43c1.15-1.55-1.45-3.05-2.59-1.51Z" style="fill:#293160"/></g></g></svg>