<svg xmlns="http://www.w3.org/2000/svg" viewBox="0 0 83.13 83.12"><g id="Layer_2" data-name="Layer 2"><g id="Banner"><path d="M41.58,83.12h0a41.69,41.69,0,0,1-10.73-1.4l2.36-8.82A32.63,32.63,0,0,0,41.56,74Zm10.76-1.41L50,72.89a32.14,32.14,0,0,0,7.81-3.24l4.58,7.9A40.82,40.82,0,0,1,52.34,81.71ZM20.8,77.57A41.42,41.42,0,0,1,12.2,71l6.45-6.46a32.6,32.6,0,0,0,6.72,5.15ZM71,70.94,64.5,64.49a33,33,0,0,0,5.16-6.72l7.9,4.57A41.15,41.15,0,0,1,71,70.94ZM5.58,62.38a41.44,41.44,0,0,1-4.16-10L10.24,50a32.17,32.17,0,0,0,3.25,7.81ZM81.72,52.31,72.89,50a32.44,32.44,0,0,0,1.1-8.4v-.08l9.14,0v.06A41.73,41.73,0,0,1,81.72,52.31ZM9.13,41.71l-3.4-.11H0v0a41.83,41.83,0,0,1,1.39-10.7l8.83,2.34a32.61,32.61,0,0,0-1.08,8.36ZM72.88,33.1a32.2,32.2,0,0,0-3.26-7.81l7.9-4.59a41.67,41.67,0,0,1,4.18,10ZM13.45,25.39,5.54,20.82a41.48,41.48,0,0,1,6.6-8.61l6.46,6.45A32.75,32.75,0,0,0,13.45,25.39Zm51-6.8a33,33,0,0,0-6.72-5.15l4.56-7.91a41.69,41.69,0,0,1,8.61,6.59Zm-39.14-5.1-4.59-7.9a42,42,0,0,1,10-4.17l2.38,8.82A32.57,32.57,0,0,0,25.31,13.49Zm24.6-3.27a32.54,32.54,0,0,0-8.35-1.09H41.5V0h.06A41.75,41.75,0,0,1,52.25,1.39Z" style="fill:#2a3e71"/><path d="M41.56,7.31A34.26,34.26,0,1,0,75.82,41.56,34.25,34.25,0,0,0,41.56,7.31Zm0,58.69A24.44,24.44,0,1,1,66,41.56,24.44,24.44,0,0,1,41.56,66Z" style="fill:#2a3e71"/></g></g></svg>