<svg xmlns="http://www.w3.org/2000/svg" viewBox="0 0 98.95 113"><g id="Layer_2" data-name="Layer 2"><g id="Banner"><polygon points="0 0 8.36 101.01 49.29 113 89.87 101.37 98.95 0.36 0 0" style="fill:#38529f"/><polygon points="89.33 11.47 82.02 92.85 49.34 102.22 49.34 11.32 89.33 11.47" style="fill:#38529f"/><polygon points="89.33 11.47 82.02 92.85 49.34 102.22 49.34 11.32 89.33 11.47" style="fill:#506cb2"/><polygon points="18.48 21.75 80.47 21.75 74.47 84.75 48.98 91.25 23.98 84.25 22.98 65.25 34.98 65.25 35.98 74.25 48.98 78.25 62.98 74.25 64.97 59.25 21.98 59.25 20.98 46.25 64.97 46.25 65.97 34.25 19.98 34.25 18.48 21.75" style="fill:#fff"/></g></g></svg>