<svg xmlns="http://www.w3.org/2000/svg" viewBox="0 0 112.38 109.3"><g id="Layer_2" data-name="Layer 2"><g id="Banner"><path d="M13.85,16C11.15,19.16-1.66,34.62.18,56.57,2.38,82.74,23.57,96.44,27.52,99c3.35,2.17,28,17.54,54.69,6.13,17.16-7.34,25.32-21.57,27.82-26.4a58.38,58.38,0,0,1-66.95,9.9C38.59,86.38,21.49,77.11,13.85,56.1A59.78,59.78,0,0,1,13.85,16Z" style="fill:#0868ac"/><path d="M42.61,5.19c-1.58-.47-13.32,16-9.43,34.88C36.64,56.85,50.4,65.35,53,67c2.32,1.43,21.64,12.93,41,3.3,11.43-5.69,16.67-15.64,18.38-19.33-2.31,2.51-11,11.35-25,12.73C76,64.77,67.5,60.27,63.35,58,60.3,56.31,46.3,48.17,41.67,32.53,37.31,17.81,43.94,5.58,42.61,5.19Z" style="fill:#0868ac"/><path d="M66.65,0c-.46-.13-7.86,11.15-4.24,23.1C65,31.56,71.73,36,73.72,37.24c1.81,1.17,13.13,8.53,24.52,3.3A23.26,23.26,0,0,0,109.08,29.7c-1.7,1.38-9.06,7.06-19.33,6.13a27.06,27.06,0,0,1-15.08-6.6c-1.88-1.57-7.71-6.56-9.43-14.61S67,.1,66.65,0Z" style="fill:#0868ac"/></g></g></svg>