<svg xmlns="http://www.w3.org/2000/svg" viewBox="0 0 112.97 113.5"><g id="Layer_2" data-name="Layer 2"><g id="Banner"><path d="M56.32,39.54c-22.52.39-22.52,33.89,0,34.27C78.84,73.43,78.84,39.92,56.32,39.54Zm0,29c-15.59-.27-15.59-23.46,0-23.72C71.91,45.08,71.91,68.27,56.32,68.54Z" style="fill:#2a3e71"/><path d="M109.07,56.79h-9.5A1.57,1.57,0,0,1,98,55.27c0-.37,0-.73,0-1.1a1.57,1.57,0,0,1,1.42-1.64l9.45-.92a3.89,3.89,0,0,0,3.46-4.51c-1.14-4-1.23-13.08-7.48-11.1l-8.25,3.54a1.57,1.57,0,0,1-2.08-.83c-.39-1-.82-1.89-1.28-2.81a1.56,1.56,0,0,1,.59-2l7.51-4.63a3.88,3.88,0,0,0,1.14-5.56c-2.78-3.1-6.82-11.2-11.57-6.7L85.5,23.16a1.56,1.56,0,0,1-2.19.18c-.81-.67-1.65-1.31-2.53-1.92a1.58,1.58,0,0,1-.42-2.14l4.39-6.86c3-5.85-6-7.43-9.75-9.19a3.88,3.88,0,0,0-5,2.69L67.84,14A1.58,1.58,0,0,1,66,15.16c-1-.21-2-.39-3.11-.54a1.59,1.59,0,0,1-1.35-1.75l1-8.37c.1-6.53-8.59-4-12.75-4a3.88,3.88,0,0,0-3.33,4.6L48,13.38a1.58,1.58,0,0,1-1.22,1.84c-1,.22-2.07.47-3.07.75a1.56,1.56,0,0,1-1.91-1c-1.31-3.76-2.76-7.88-2.76-7.88-2.76-5.93-9.51.11-13.23,2a3.89,3.89,0,0,0-1,5.6l4.87,6.48a1.58,1.58,0,0,1-.26,2.17c-.82.67-1.62,1.38-2.38,2.11a1.57,1.57,0,0,1-2.2,0l-5.77-5.74c-5.08-4.13-8.52,4.25-11,7.55A3.89,3.89,0,0,0,9.63,32.7l7.68,4a1.58,1.58,0,0,1,.73,2c-.41,1-.78,1.92-1.12,2.9a1.58,1.58,0,0,1-2,1L6.63,39.72C.26,38.22.84,47.26,0,51.35a3.88,3.88,0,0,0,3.79,4.23l9.06.2a1.6,1.6,0,0,1,1.56,1.56c0,1,.07,2,.14,3a1.56,1.56,0,0,1-1.36,1.69l-9,1.1c-6.39,1.43-1.92,9.33-.88,13.36a3.88,3.88,0,0,0,5.26,2.15l7.91-3.62a1.58,1.58,0,0,1,2.09.77c.44.94.91,1.86,1.41,2.77a1.58,1.58,0,0,1-.53,2.09l-7.21,4.67c-5.11,4.08,2.34,9.21,5,12.38a3.88,3.88,0,0,0,5.67-.36L28.2,91a1.57,1.57,0,0,1,2.17-.25c.83.63,1.7,1.24,2.59,1.81a1.57,1.57,0,0,1,.49,2.14c-2.06,3.39-4.31,7.09-4.31,7.1-2.82,5.9,6.15,7.28,10,9a3.88,3.88,0,0,0,4.94-2.8l2-8.42a1.57,1.57,0,0,1,1.81-1.18c1,.18,2,.33,3.09.45a1.58,1.58,0,0,1,1.38,1.72c-.37,4-.8,8.67-.8,8.67-.27,2.76,2.28,4.6,4.87,4.26,4-.31,12,.88,11.2-5.23l-1.82-8.38A1.58,1.58,0,0,1,67,98c1-.24,2-.51,3-.81a1.58,1.58,0,0,1,1.94,1l3,7.86a1.54,1.54,0,0,0,.08.19c2.93,5.7,9.48-.44,13.14-2.39A3.89,3.89,0,0,0,89,98.16L83.8,91.58A1.57,1.57,0,0,1,84,89.42q1.19-1,2.28-2.16a1.58,1.58,0,0,1,2.22,0l6,5.74.16.14c5.12,3.85,8.34-4.53,10.78-7.88a3.89,3.89,0,0,0-1.68-5.43l-8.2-4a1.58,1.58,0,0,1-.78-2q.56-1.42,1-2.88a1.57,1.57,0,0,1,2-1l8.7,2.76.21,0C113,74,112.23,65,113,60.93A3.89,3.89,0,0,0,109.07,56.79ZM56.32,76.45c-26-.45-26-39.1,0-39.54C82.31,37.35,82.31,76,56.32,76.45Z" style="fill:#2a3e71"/></g></g></svg>