<svg id="Layer_1" data-name="Layer 1" xmlns="http://www.w3.org/2000/svg" viewBox="0 0 43 48">
  <path d="M45.5.1H2.5L6.3,43,24,48.1,41.7,43,45.5.1Z" transform="translate(-2.5 -0.1)" style="fill: #0277bd"/>
  <path d="M24,3.9V44.2l14.1-4L41.3,3.9Z" transform="translate(-2.5 -0.1)" style="fill: #039be5"/>
  <path d="M35.5,10.2H24v5.1h6.2l-.4,5.1H24v5.1h5.6L29.2,31,24,32.8v5.3l10-3.3.9-14.5h0Z" transform="translate(-2.5 -0.1)" style="fill: #fff"/>
  <path d="M24,10.2v5.1H12.8l-.4-5.1ZM18.2,20.3l.3,5.1H24V20.3Zm.5,7.6H13.6l.4,6.9,10,3.3V32.8L18.8,31Z" transform="translate(-2.5 -0.1)" style="fill: #eee"/>
</svg>
