<svg id="Layer_1" data-name="Layer 1" xmlns="http://www.w3.org/2000/svg" viewBox="0 0 43 48">
  <g>
    <path d="M45.5,0H2.5L6.3,42.9,24,48l17.7-5.1L45.5,0Z" transform="translate(-2.5)" style="fill: #e65100"/>
    <path d="M24,3.8V44.1l14.1-4L41.3,3.8Z" transform="translate(-2.5)" style="fill: #ff6d00"/>
    <path d="M24,25.3V20.2H34.9L34,34.7,24,38V32.7l5.2-1.8.4-5.7C29.6,25.3,24,25.3,24,25.3ZM35.2,15.2l.4-5.1H24v5.1Z" transform="translate(-2.5)" style="fill: #fff"/>
    <path d="M24,32.7V38L14,34.7l-.5-6.9h5.1l.3,3.2ZM17.8,15.2H24V10.1H12.5l.9,15.2H24V20.2H18.2Z" transform="translate(-2.5)" style="fill: #eee"/>
  </g>
</svg>
