<svg xmlns="http://www.w3.org/2000/svg" viewBox="0 0 98.95 113"><g id="Layer_2" data-name="Layer 2"><g id="Banner"><polygon points="0 0 8.36 101.01 49.29 113 89.87 101.37 98.95 0.36 0 0" style="fill:#fed500"/><polygon points="49.78 9.33 49.66 102.95 82.96 93.62 90.23 10.42 49.78 9.33" style="fill:#ffe783"/><polygon points="34.64 20.71 45.05 20.83 45.42 97.62 16.23 90.23 16.11 71.7 25.92 73.39 26.52 81.27 34.27 82.84 34.64 20.71" style="fill:#fff"/><polygon points="53.41 21.07 53.65 65.64 71.82 63.1 70.85 79.45 53.41 85.27 53.65 97.62 79.21 91.93 81.15 52.32 65.16 52.08 65.04 32.58 81.27 32.58 83.33 21.2 53.41 21.07" style="fill:#fff"/></g></g></svg>