<svg xmlns="http://www.w3.org/2000/svg" viewBox="0 0 321 321">
  <defs>
    <style>
      .clc-1 {
        fill: #fff;
      }
    </style>
  </defs>
  <g id="Layer_2" data-name="Layer 2">
    <g id="Banner">
      <rect width="321" height="321" rx="15.28"/>
      <g>
        <g>
          <path class="clc-1" d="M81.11,192.85c-3.34,1.67-10,3.34-18.57,3.34-19.83,0-34.75-12.52-34.75-35.58,0-22,14.92-36.93,36.73-36.93,8.76,0,14.29,1.87,16.69,3.13L79,134.21a33.17,33.17,0,0,0-14.19-2.92c-16.48,0-27.44,10.54-27.44,29,0,17.22,9.91,28.28,27,28.28,5.52,0,11.16-1.15,14.81-2.93Z"/>
          <path class="clc-1" d="M62.54,199.19c-22.93,0-37.75-15.14-37.75-38.58s16.34-39.93,39.73-39.93c10.32,0,16.08,2.42,18.08,3.47l2.19,1.14L80.9,138.46l-3.19-1.55a29.79,29.79,0,0,0-12.88-2.62c-15.3,0-24.44,9.73-24.44,26,0,15.83,9,25.28,24,25.28A33.39,33.39,0,0,0,77.92,183l3.29-1.6,3.42,13.09-2.18,1.09C78.92,197.3,71.83,199.19,62.54,199.19Zm2-72.51c-20.17,0-33.73,13.63-33.73,33.93,0,20.1,12.17,32.58,31.75,32.58a48.55,48.55,0,0,0,15-2.12l-.36-1.39a42.69,42.69,0,0,1-12.76,1.9c-18.52,0-30-12-30-31.28,0-19.74,11.67-32,30.44-32a38.7,38.7,0,0,1,12.25,1.91l.49-1.66A40.53,40.53,0,0,0,64.52,126.68Z"/>
        </g>
        <g>
          <path class="clc-1" d="M93,142c0-3.86,2.61-6.58,6.26-6.58s6.05,2.72,6.16,6.58c0,3.65-2.4,6.47-6.26,6.47C95.48,148.47,93,145.65,93,142Zm0,36.83c0-3.86,2.61-6.58,6.26-6.58s6.05,2.72,6.16,6.58c0,3.65-2.4,6.47-6.26,6.47C95.48,185.3,93,182.48,93,178.83Z"/>
          <path class="clc-1" d="M99.14,188.3A9.11,9.11,0,0,1,90,178.83c0-5.55,3.89-9.58,9.26-9.58s9,3.91,9.15,9.5S104.5,188.3,99.14,188.3Zm.1-13.05c-2,0-3.26,1.37-3.26,3.58,0,1.73,1,3.47,3.16,3.47a3.16,3.16,0,0,0,3.26-3.47C102.37,177.81,102,175.25,99.24,175.25Zm-.1-23.78A9.12,9.12,0,0,1,90,142c0-5.55,3.89-9.58,9.26-9.58s9,3.91,9.15,9.5S104.5,151.47,99.14,151.47Zm.1-13.05c-2,0-3.26,1.37-3.26,3.58,0,1.72,1,3.47,3.16,3.47A3.16,3.16,0,0,0,102.4,142C102.37,141,102,138.42,99.24,138.42Z"/>
        </g>
        <g>
          <path class="clc-1" d="M160.86,198.32l-28.38-75.64h7.09L168,198.32Z"/>
          <path class="clc-1" d="M172.29,201.32H158.78l-30.63-81.64h13.5Zm-9.35-6h.69L137.5,125.68h-.69Z"/>
        </g>
        <g>
          <path class="clc-1" d="M230.15,169.32l-48.41,24.83V187l41.11-20.45v-.21l-41.11-20.45v-7.2l48.41,24.83Z"/>
          <path class="clc-1" d="M178.74,199.06v-14l37.58-18.69-37.58-18.7v-14l54.41,27.91v9.51Zm6-10.25v.43L212.56,175Zm41.11-24.17v3.51l1.3-.67v-2.17ZM184.74,144l27.83,13.85-27.83-14.28Z"/>
        </g>
        <g>
          <path class="clc-1" d="M293.21,193v5.21H241V193Z"/>
          <rect class="clc-1" x="238.04" y="189.98" width="58.17" height="11.22"/>
        </g>
      </g>
    </g>
  </g>
</svg>
