<?xml version="1.0" encoding="UTF-8"?><svg id="Layer_2" xmlns="http://www.w3.org/2000/svg" viewBox="0 0 374.04 73.5"><defs><style>.cls-1{fill:#fff;}.cls-1,.clss-2{stroke-width:0px;}.clss-2{fill:#ef5d35;}</style></defs><g id="Layer_1-2"><path class="cls-1" d="m266.07,37.92l-4.03-9.67-3.73-8.97-6.55-15.81h0l-.73-1.72c-.29-.71-.98-1.18-1.74-1.17h-6.23c-.77,0-1.45.46-1.74,1.17l-.73,1.72h0l-6.55,15.79-3.71,8.98-4.05,9.68-2.62,6.36c-.4.97.06,2.08,1.03,2.47.23.09.47.14.71.16h7.08c.77-.01,1.46-.48,1.76-1.19l2.65-6.44h0l.58-1.38h17.38l.56,1.38h0l2.65,6.44c.3.71.99,1.17,1.76,1.19h7.08c1.05-.02,1.89-.87,1.89-1.91,0-.25-.05-.49-.15-.72l-2.57-6.36Zm-24.91-8.97l.3-.73,3.73-8.97.97-2.3h0l.97,2.33,3.74,8.97.29.73-10-.03Z" marker-end="none" marker-start="none"/><path class="cls-1" d="m0,2.46C0,1.41.85.56,1.89.56h15.35c2.29,0,4.58.21,6.84.66,1.99.39,3.9,1.15,5.61,2.25,1.61,1.11,2.92,2.61,3.8,4.35.99,2.14,1.46,4.49,1.36,6.85.08,2.35-.37,4.68-1.32,6.82-.8,1.76-2.06,3.27-3.64,4.38-1.64,1.15-3.49,1.94-5.46,2.33-2.23.49-4.52.72-6.8.7h-7.46v16.2c0,.51-.19.99-.55,1.35-.36.36-.84.56-1.34.56H1.89c-.51,0-.99-.2-1.34-.56C.19,46.09,0,45.61,0,45.1H0V2.46Zm10.23,17.77h6.82c.89.02,1.78-.07,2.65-.25.81-.16,1.59-.46,2.3-.88.68-.42,1.24-1.01,1.64-1.7.44-.84.65-1.78.61-2.73.06-1.02-.23-2.03-.82-2.86-.55-.72-1.27-1.29-2.09-1.67-.91-.41-1.87-.66-2.86-.76-1.05-.09-2.05-.15-3.03-.15h-5.21v11Z" marker-end="none" marker-start="none"/><path class="cls-1" d="m338.22,2.46c0-.51.2-.99.56-1.35.36-.35.85-.55,1.35-.55h16.06c2.26,0,4.51.23,6.73.69,1.99.41,3.88,1.19,5.58,2.3,1.62,1.09,2.93,2.59,3.8,4.33,1,2.12,1.48,4.45,1.41,6.79.09,3-.81,5.94-2.56,8.37-1.83,2.36-4.5,3.92-7.45,4.35l10.08,16.74c.53.9.24,2.07-.65,2.61-.3.17-.64.26-.98.26h-7.76c-.71,0-1.36-.39-1.68-1.02l-9.17-17.55h-4.99v16.67c0,.52-.2,1.02-.57,1.38-.37.36-.88.55-1.4.53h-6.44c-.5,0-.99-.19-1.35-.55-.36-.35-.56-.84-.56-1.34h0V2.46Zm10.32,17.27h5.97c.98.02,1.95,0,2.92-.1.96-.05,1.91-.25,2.8-.59.81-.31,1.52-.84,2.06-1.52.61-.89.9-1.96.82-3.03.06-.99-.2-1.98-.73-2.82-.44-.67-1.05-1.22-1.76-1.6-.81-.4-1.67-.66-2.56-.78-.93-.12-1.88-.18-2.82-.18h-6.71v10.62Z" marker-end="none" marker-start="none"/><path class="cls-1" d="m41.39,2.46c0-1.04.83-1.88,1.86-1.9h16.11c2.25,0,4.5.23,6.71.69,1.99.41,3.88,1.19,5.58,2.3,1.61,1.1,2.92,2.59,3.8,4.33,1,2.12,1.48,4.45,1.41,6.79.06,3-.85,5.94-2.61,8.37-1.84,2.36-4.52,3.92-7.49,4.35l10.14,16.74c.36.59.37,1.32.03,1.92-.34.59-.97.96-1.65.96h-7.77c-.71.02-1.36-.38-1.68-1.01l-9.09-17.55h-5.14v16.67c0,.5-.18.98-.53,1.33-.35.36-.83.56-1.33.56h-6.47c-.5,0-.98-.19-1.33-.54-.35-.36-.55-.84-.55-1.34h0V2.46Zm10.21,17.27h6.06c.95.05,1.9.05,2.85,0,.95-.04,1.89-.24,2.77-.59.82-.3,1.53-.82,2.06-1.51.62-.89.92-1.96.83-3.03.05-.99-.2-1.98-.73-2.82-.45-.68-1.07-1.23-1.8-1.59-.81-.4-1.67-.66-2.56-.78-.92-.12-1.85-.18-2.77-.18h-6.71v10.5Z" marker-end="none" marker-start="none"/><path class="cls-1" d="m301.72.58c.5,0,.99.2,1.34.56.36.36.55.84.55,1.35,0,.24-.05.48-.14.71l-16.67,40.2-.99,2.38c-.3.71-.99,1.17-1.76,1.19h-5.67c-.77,0-1.46-.48-1.74-1.19l-1.01-2.38-16.5-40.2c-.19-.46-.2-.99,0-1.46.19-.46.57-.83,1.03-1.02.23-.09.47-.14.71-.14h7c.77,0,1.47.47,1.76,1.18l11.71,28.17,11.64-28.17c.29-.71.98-1.18,1.74-1.18h6.99Z" marker-end="none" marker-start="none"/><path class="cls-1" d="m194.38.58c.5,0,.99.2,1.34.56.35.36.55.85.54,1.35,0,.24-.05.48-.14.71l-16.59,40.2-1,2.38c-.29.71-.98,1.18-1.74,1.19h-5.68c-.76-.02-1.45-.48-1.74-1.19l-1.01-2.38-6.44-15.54-6.41,15.54-.92,2.38c-.29.71-.98,1.18-1.74,1.19h-5.76c-.77-.02-1.46-.48-1.76-1.19l-.99-2.38L127.66,3.2c-.19-.47-.19-.99.01-1.46.2-.46.58-.83,1.05-1.01.23-.1.48-.15.73-.15h7.08c.77,0,1.46.47,1.74,1.18l11.64,28.17,6.43-15.56-4.55-11.17c-.2-.46-.2-.98-.01-1.44.19-.47.55-.83,1.01-1.03.23-.1.48-.15.73-.15h7.08c.77,0,1.47.47,1.76,1.18l5.27,12.62,6.36,15.55,11.59-28.17c.29-.71.98-1.18,1.76-1.18h7.05Z" marker-end="none" marker-start="none"/><path class="cls-1" d="m319.54,9.63l-3.99,9.68h13.29c.52-.02,1.03.18,1.41.54.37.37.58.88.56,1.4h0v5.27c.03,1.05-.79,1.92-1.83,1.97h-17.17l-4.03,9.69h21.06c1.05,0,1.9.84,1.91,1.89h0v5.27c0,.51-.2.99-.56,1.34-.36.35-.84.55-1.34.54h-33.34c-.5,0-.98-.18-1.34-.53-.36-.35-.56-.83-.57-1.33,0-.26.05-.51.15-.74l2.65-6.44,4.02-9.69,3.74-8.97,4-9.68,3.26-7.88c.29-.71.98-1.17,1.74-1.17h15.67c1.05,0,1.9.85,1.91,1.9h0v5.04c0,1.05-.86,1.9-1.91,1.9h-9.36.06Z" marker-end="none" marker-start="none"/><path class="cls-1" d="m212.05,9.63l-4,9.68h15.75c.51,0,1,.21,1.35.57.35.37.55.86.53,1.37,0,.24-.05.48-.14.71l-2.17,5.25c-.29.7-.99,1.17-1.76,1.16h-17.3l-4.02,9.72h15.74c1.04,0,1.89.83,1.91,1.87,0,.26-.06.51-.15.75l-2.17,5.24c-.3.71-.99,1.17-1.76,1.17h-25.76c-.5,0-.99-.2-1.35-.56-.35-.36-.55-.85-.55-1.35,0-.24.04-.48.14-.7l2.67-6.42,4.02-9.72,3.74-8.97,4-9.68,3.24-7.87c.29-.74,1.01-1.22,1.8-1.21h25.76c.63,0,1.22.32,1.57.85.35.52.42,1.19.19,1.77l-2.26,5.26c-.28.72-.97,1.18-1.74,1.17l-17.29-.06Z" marker-end="none" marker-start="none"/><path class="cls-1" d="m125.37,15.75v.09c-3.91-11.33-15.72-17.9-27.41-15.26-11.69,2.65-19.51,13.67-18.16,25.58,1.35,11.91,11.45,20.89,23.43,20.85h35.14l-13-31.26Zm-22.14,27.09c-10.68.02-19.35-8.62-19.37-19.3s8.63-19.35,19.31-19.37c10.68-.02,19.35,8.63,19.37,19.31h0c.01,5.13-2.02,10.05-5.64,13.68-3.62,3.64-8.54,5.68-13.67,5.68Z" marker-end="none" marker-start="none"/><path class="clss-2" d="m114.88,23.52c0,6.46-5.25,11.69-11.71,11.69-6.46,0-11.69-5.26-11.68-11.72s5.25-11.69,11.71-11.68h0c6.46.01,11.69,5.25,11.68,11.71Z" marker-end="none" marker-start="none"/><path class="cls-1" d="m8.24,57.41h2.51l4.05,13.76h-3.41l-.79-2.94h-5.33l-1.52,3.03H.38l7.87-13.85Zm.59,3.94l-2.27,4.35h3.38l-1.11-4.35Z" marker-end="none" marker-start="none"/><path class="cls-1" d="m19.44,57.41h9.26l-.39,2.79h-6.26l-.38,2.8h5.74l-.49,2.83h-5.71l-.7,5.43h-3.03l1.95-13.85Z" marker-end="none" marker-start="none"/><path class="cls-1" d="m32.11,57.41h9.24l-.44,2.79h-6.21l-.33,2.8h5.68l-.41,2.83h-5.68l-.74,5.43h-3.03l1.93-13.85Z" marker-end="none" marker-start="none"/><path class="cls-1" d="m42.98,64.35c.13-1.07.47-2.1.99-3.03,1-1.76,2.61-3.07,4.53-3.7.98-.33,2-.5,3.03-.5.99,0,1.98.16,2.91.5.82.34,1.55.86,2.14,1.51.58.65,1,1.42,1.23,2.25.25.99.29,2.02.14,3.03-.14,1.06-.47,2.09-.99,3.03-.48.87-1.12,1.65-1.88,2.29-.76.65-1.62,1.16-2.56,1.51-.98.34-2,.51-3.03.52-1.03,0-2.06-.16-3.03-.52-.82-.33-1.55-.85-2.14-1.51-.57-.66-.97-1.45-1.18-2.29-.28-1.01-.33-2.06-.15-3.09Zm3.15,0c-.11.58-.11,1.18,0,1.77.12.51.35.98.67,1.39s.74.73,1.21.93c.54.24,1.13.35,1.73.33.61,0,1.22-.11,1.79-.33,1.11-.42,2.02-1.25,2.55-2.32.3-.55.5-1.15.59-1.77.11-.59.11-1.19,0-1.78-.09-.55-.32-1.07-.67-1.51-.33-.4-.75-.71-1.23-.91-.55-.23-1.15-.33-1.74-.3-.62-.02-1.24.09-1.82.31-.56.21-1.07.52-1.51.91-.43.45-.79.96-1.06,1.52-.26.55-.43,1.15-.5,1.76Z" marker-end="none" marker-start="none"/><path class="cls-1" d="m62.04,57.41h5.29c.66-.02,1.31.04,1.96.18.55.13,1.06.37,1.51.7.44.32.78.77.96,1.28.21.65.26,1.34.14,2-.12.92-.5,1.79-1.11,2.49-.62.7-1.47,1.15-2.39,1.29l2.68,5.82h-3.55l-2.12-5.5h-1.52l-.77,5.5h-3.03l1.95-13.76Zm2.29,5.69h2.67c.27-.05.53-.14.77-.25.27-.1.5-.26.7-.47.21-.24.33-.55.35-.87.1-.27.1-.56,0-.83-.16-.22-.37-.39-.62-.48-.23-.11-.47-.19-.71-.23h-2.77l-.38,3.13Z" marker-end="none" marker-start="none"/><path class="cls-1" d="m75.77,57.41h4.55c1.02-.01,2.04.1,3.03.35.89.22,1.72.63,2.44,1.19.7.56,1.22,1.31,1.52,2.15.33,1.05.4,2.16.23,3.25-.25,2.05-1.35,3.91-3.03,5.12-.8.59-1.7,1.03-2.65,1.32-.98.3-2,.46-3.03.45h-4.94l1.89-13.83Zm1.51,10.95h1.59c.66,0,1.32-.06,1.97-.21.6-.12,1.17-.36,1.67-.71.51-.34.94-.78,1.26-1.3.34-.61.56-1.28.65-1.97.1-.6.05-1.21-.14-1.78-.16-.48-.45-.9-.83-1.22-.42-.34-.9-.59-1.41-.73-.56-.16-1.14-.24-1.73-.24h-1.83l-1.2,8.16Z" marker-end="none" marker-start="none"/><path class="cls-1" d="m96.27,57.41h2.47l4.08,13.76h-3.41l-.77-3.03h-5.33l-1.52,3.03h-3.39l7.88-13.76Zm.61,4l-2.27,4.29h3.36l-1.09-4.29Z" marker-end="none" marker-start="none"/><path class="cls-1" d="m107.32,57.41h5.12c.6-.01,1.2.03,1.79.12.53.07,1.04.24,1.52.5.44.25.79.62,1.03,1.06.23.58.3,1.21.18,1.82-.06.72-.36,1.41-.86,1.94-.53.51-1.17.89-1.88,1.1h0c.41.06.81.19,1.18.38.33.17.62.42.83.73.23.3.4.65.49,1.01.08.42.08.85,0,1.26-.08.67-.33,1.3-.73,1.84-.37.47-.83.86-1.35,1.16-.55.3-1.14.52-1.76.64-.61.13-1.24.2-1.86.2h-5.64l1.94-13.76Zm1.52,11.2h2.73c.24-.01.49-.04.73-.1.25-.04.49-.13.7-.27.21-.13.39-.3.53-.5.17-.22.27-.48.29-.76.06-.27.01-.55-.14-.78-.13-.2-.31-.36-.53-.46-.25-.11-.51-.18-.77-.21h-3.15l-.38,3.08Zm.77-5.76h2.2c.23,0,.47-.03.7-.09.23-.05.45-.13.65-.25.19-.08.36-.19.5-.34.15-.21.24-.45.27-.7.03-.24,0-.49-.09-.71-.1-.19-.24-.34-.42-.44-.2-.11-.41-.19-.64-.23-.23-.02-.47-.02-.7,0h-2.11l-.36,2.76Z" marker-end="none" marker-start="none"/><path class="cls-1" d="m121.23,57.41h3.03l-1.52,10.95h5.62l-.39,2.81h-8.68l1.94-13.76Z" marker-end="none" marker-start="none"/><path class="cls-1" d="m132.81,57.41h9.32l-.39,2.79h-6.27l-.38,2.65h6.06l-.44,2.72h-6.06l-.39,2.79h6.68l-.29,2.81h-9.74l1.91-13.76Z" marker-end="none" marker-start="none"/><path class="cls-1" d="m144.99,68.03h2.79l-2.5,5.47h-2.48l2.2-5.47Z" marker-end="none" marker-start="none"/><path class="cls-1" d="m159.97,57.41h4.54c1.02-.01,2.04.1,3.03.35.89.22,1.72.63,2.44,1.19.7.56,1.23,1.31,1.52,2.15.32,1.05.39,2.15.21,3.23-.11,1.08-.47,2.11-1.03,3.03-.53.83-1.21,1.56-2,2.14-.8.59-1.7,1.03-2.65,1.32-.98.3-2,.46-3.03.45h-4.96l1.93-13.86Zm1.51,10.95h1.61c.67,0,1.33-.06,1.99-.21.59-.12,1.16-.36,1.65-.71.5-.34.92-.78,1.23-1.3.34-.61.57-1.28.67-1.97.09-.6.04-1.2-.14-1.78-.17-.47-.46-.9-.85-1.22-.41-.34-.88-.59-1.39-.73-.58-.17-1.18-.25-1.79-.24h-1.79l-1.18,8.16Z" marker-end="none" marker-start="none"/><path class="cls-1" d="m176.01,57.41h9.35l-.38,2.79h-6.33l-.36,2.65h5.99l-.38,2.8h-5.99l-.39,2.79h6.67l-.38,2.82h-9.71l1.92-13.85Z" marker-end="none" marker-start="none"/><path class="cls-1" d="m189.32,57.41h5.18c.67-.02,1.33.04,1.99.18.55.11,1.07.35,1.52.68.43.33.75.77.94,1.27.21.66.26,1.36.14,2.03-.09.72-.32,1.4-.68,2.02-.31.53-.74.98-1.26,1.32-.52.33-1.1.57-1.7.69-.68.14-1.37.2-2.06.19h-2.23l-.73,5.38h-3.03l1.92-13.76Zm2.21,5.83h2.83c.25-.06.49-.15.71-.27.22-.14.41-.31.56-.52.17-.23.27-.51.29-.8.06-.29.01-.58-.14-.83-.12-.23-.32-.4-.55-.5-.26-.12-.54-.2-.82-.23-.3-.02-.6-.02-.9,0h-1.51l-.49,3.15Z" marker-end="none" marker-start="none"/><path class="cls-1" d="m202.85,57.41h9.3l-.38,2.79h-6.29l-.35,2.65h5.97l-.38,2.8h-5.99l-.39,2.79h6.67l-.38,2.82h-9.71l1.92-13.85Z" marker-end="none" marker-start="none"/><path class="cls-1" d="m216.16,57.41h4.12l4.55,9.54h0l1.33-9.54h3.03l-1.92,13.76h-3.97l-4.55-9.82h0l-1.36,9.8h-3.03l1.8-13.74Z" marker-end="none" marker-start="none"/><path class="cls-1" d="m233.17,57.41h4.55c1.02-.01,2.04.11,3.03.35.88.22,1.71.63,2.43,1.19.69.57,1.22,1.31,1.51,2.15.59,2.1.3,4.35-.8,6.23-.53.84-1.21,1.56-2.02,2.14-.79.59-1.69,1.04-2.64,1.32-.98.3-2,.46-3.03.45h-4.95l1.92-13.83Zm1.51,10.95h1.59c.66,0,1.32-.06,1.97-.21.6-.12,1.17-.36,1.67-.71.5-.34.92-.78,1.23-1.3.34-.61.56-1.28.65-1.97.11-.6.06-1.21-.14-1.78-.16-.48-.45-.9-.83-1.22-.42-.34-.9-.59-1.41-.73-.58-.17-1.17-.25-1.77-.24h-1.8l-1.15,8.16Z" marker-end="none" marker-start="none"/><path class="cls-1" d="m253.63,57.41h2.47l4.06,13.76h-3.42l-.79-3.03h-5.33l-1.52,3.03h-3.35l7.88-13.76Zm.61,4l-2.27,4.29h3.36l-1.09-4.29Z" marker-end="none" marker-start="none"/><path class="cls-1" d="m264.68,57.41h5.06c.6-.01,1.2.03,1.79.12.53.07,1.05.24,1.52.5.44.24.8.61,1.03,1.06.49,1.29.21,2.74-.74,3.74-.52.52-1.16.9-1.86,1.11h0c.41.06.8.18,1.17.38.33.18.62.42.85.72.22.31.38.65.47,1.02.08.41.08.83,0,1.24-.06.67-.31,1.3-.71,1.84-.38.47-.84.86-1.36,1.16-.55.31-1.14.52-1.76.64-.61.13-1.23.2-1.85.2h-5.64l2.05-13.73Zm1.52,11.2h2.71c.25,0,.5-.03.74-.1.49-.09.93-.36,1.23-.77.16-.22.25-.48.29-.76.1-.52-.19-1.04-.68-1.24-.24-.11-.5-.18-.76-.21h-3.03l-.5,3.08Zm.79-5.7h2.2c.24,0,.47-.03.7-.09.23-.05.45-.13.65-.25.2-.11.37-.27.5-.47.15-.2.24-.44.27-.69.07-.25.06-.52-.04-.76-.09-.18-.24-.33-.41-.44-.2-.11-.41-.18-.64-.23-.24,0-.48,0-.71,0h-2.06l-.45,2.93Z" marker-end="none" marker-start="none"/><path class="cls-1" d="m278.56,57.41h3.03l-1.52,10.95h5.7l-.39,2.81h-8.64l1.82-13.76Z" marker-end="none" marker-start="none"/><path class="cls-1" d="m290.24,57.41h9.35l-.38,2.79h-6.32l-.43,2.65h5.99l-.39,2.8h-5.97l-.33,2.71h6.67l-.39,2.81h-9.7l1.91-13.76Z" marker-end="none" marker-start="none"/><path class="cls-1" d="m302.35,68.03h2.85l-2.5,5.47h-2.5l2.15-5.47Z" marker-end="none" marker-start="none"/><path class="cls-1" d="m317.44,57.41h9.25l-.4,2.79h-6.06l-.49,2.8h5.73l-.47,2.83h-5.71l-.74,5.43h-3.03l1.92-13.85Z" marker-end="none" marker-start="none"/><path class="cls-1" d="m333.49,57.41h2.5l4.08,13.76h-3.44l-.79-3.03h-5.33l-1.52,3.03h-3.33l7.83-13.76Zm.61,4l-2.23,4.29h3.3l-1.08-4.29Z" marker-end="none" marker-start="none"/><path class="cls-1" d="m350.89,60.77c-.22-.33-.55-.58-.92-.71s-.77-.2-1.17-.2c-.23-.03-.47-.03-.7,0-.24.05-.48.12-.7.23-.21.11-.4.26-.55.44-.17.18-.27.41-.3.65-.05.27.01.56.17.79.18.21.4.38.65.5.31.15.64.27.97.36.36.11.74.21,1.12.35.37.13.73.28,1.09.45.35.18.66.42.92.7.27.31.47.67.58,1.06.11.5.11,1.02,0,1.52-.12,1.4-.84,2.68-1.97,3.51-.55.39-1.16.67-1.8.84-.68.18-1.38.27-2.08.29-.83,0-1.65-.15-2.43-.43-.75-.28-1.42-.73-1.97-1.32l2.52-2.38c.25.41.61.75,1.03.97.44.23.93.35,1.43.34.25,0,.5-.03.74-.09.26-.04.5-.13.73-.26.21-.11.4-.26.54-.44.16-.18.26-.41.29-.65.09-.37-.04-.75-.33-.99-.34-.26-.72-.46-1.12-.59-.44-.18-.94-.35-1.52-.51-.53-.17-1.04-.4-1.52-.69-1.04-.62-1.56-1.85-1.27-3.03.09-.68.33-1.35.7-1.94.37-.54.84-1.01,1.38-1.39.56-.38,1.17-.67,1.82-.85.65-.19,1.32-.28,2-.29.75,0,1.49.11,2.2.34.69.21,1.31.59,1.8,1.12l-2.33,2.3Z" marker-end="none" marker-start="none"/><path class="cls-1" d="m359.15,60.07h-3.92l.38-2.66h10.93l-.36,2.66h-3.98l-1.52,11.1h-3.03l1.51-11.1Z" marker-end="none" marker-start="none"/><path class="cls-1" d="m368.63,69.48c.04-.23.12-.47.24-.68.12-.22.27-.42.45-.59.18-.16.39-.28.62-.36.23-.09.48-.14.73-.14.45,0,.89.18,1.18.52.3.34.43.8.35,1.25-.04.25-.11.49-.23.72-.12.21-.29.4-.48.56-.18.16-.38.29-.61.39-.23.09-.48.14-.73.14-.23,0-.46-.05-.67-.14-.2-.09-.38-.22-.53-.39-.3-.35-.42-.82-.33-1.28Zm3.64-2.86h-3.03l1.3-9.21h2.91l-1.18,9.21Z" marker-end="none" marker-start="none"/></g></svg>