<svg id="Layer_1" data-name="Layer 1" xmlns="http://www.w3.org/2000/svg" xmlns:xlink="http://www.w3.org/1999/xlink" viewBox="0 0 1845.23 999.74">
  <defs>
    <style>
      .cls-1 {
        fill: #314a9a;
      }

      .cls-2 {
        fill: #7195e1;
      }

      .cls-3 {
        fill: #1a1e3b;
      }

      .cls-4 {
        fill: #3a54a8;
      }

      .cls-5 {
        fill: #7196e4;
      }

      .cls-6 {
        fill: #3a56a9;
      }

      .cls-7 {
        fill: #213051;
      }

      .cls-8 {
        fill: #ba5e91;
      }

      .cls-9 {
        fill: #fbd0d9;
      }

      .cls-10 {
        fill: #fdd0d7;
      }

      .cls-11 {
        fill: url(#linear-gradient);
      }

      .cls-12 {
        fill: url(#linear-gradient-2);
      }

      .cls-13 {
        fill: #212749;
      }

      .cls-14 {
        fill: #343e71;
      }

      .cls-15 {
        fill: #4a67b7;
      }

      .cls-16 {
        fill: #fff;
      }

      .cls-17 {
        fill: #bed2f5;
      }

      .cls-18 {
        fill: #38529f;
      }

      .cls-19 {
        fill: #353f72;
      }

      .cls-20 {
        fill: #27325b;
      }

      .cls-21 {
        fill: #4360b0;
      }

      .cls-22 {
        fill: #feffff;
      }

      .cls-23 {
        fill: #bbceef;
      }

      .cls-24 {
        fill: #8ba2d4;
      }

      .cls-25 {
        fill: #4e5f93;
      }

      .cls-26 {
        fill: #191c3b;
      }

      .cls-27 {
        fill: #fcfefd;
      }

      .cls-28 {
        fill: #e7a3ba;
      }

      .cls-29 {
        fill: #b6618b;
      }

      .cls-30 {
        fill: #d6e7fb;
      }

      .cls-31 {
        fill: #a0b8e6;
      }

      .cls-32 {
        fill: #fdfeff;
      }

      .cls-33 {
        fill: #344072;
      }

      .cls-34 {
        fill: #fed0da;
      }

      .cls-35 {
        fill: #d1829f;
      }

      .cls-36 {
        fill: #fcd1da;
      }

      .cls-37 {
        fill: #394170;
      }

      .cls-38 {
        fill: #fcfdff;
      }

      .cls-39 {
        fill: #333f73;
      }

      .cls-40 {
        fill: #f6fafb;
      }

      .cls-41 {
        fill: #d16797;
      }

      .cls-42 {
        fill: #1d2644;
      }

      .cls-43 {
        fill: #cfdff8;
      }

      .cls-44 {
        fill: #5a7dcf;
      }

      .cls-45 {
        fill: #fdfdfd;
      }

      .cls-46 {
        fill: #38559e;
      }

      .cls-47 {
        fill: #4561b4;
      }

      .cls-48 {
        fill: #354f7a;
      }

      .cls-49 {
        fill: #d0e6fd;
      }

      .cls-50 {
        fill: #dae9fc;
      }

      .cls-51 {
        fill: #6080b2;
      }

      .cls-52 {
        fill: #202b41;
      }

      .cls-53 {
        fill: #c0cee2;
      }

      .cls-54 {
        fill: #5b7bd0;
      }

      .cls-55 {
        fill: #466da4;
      }

      .cls-56 {
        fill: #f9f9f9;
      }

      .cls-57 {
        fill: #252d54;
      }

      .cls-58 {
        fill: #212d60;
      }

      .cls-59 {
        fill: url(#linear-gradient-3);
      }

      .cls-60 {
        fill: #467aa9;
      }

      .cls-61 {
        fill: #fcfcfc;
      }

      .cls-62 {
        fill: #5e7fd0;
      }

      .cls-63 {
        fill: #3851a0;
      }

      .cls-64 {
        fill: #4c67ae;
      }

      .cls-65 {
        fill: #4662ab;
      }

      .cls-66 {
        fill: url(#linear-gradient-4);
      }

      .cls-67 {
        fill: #f44b8c;
      }

      .cls-68 {
        fill: #281a3b;
      }

      .cls-69 {
        fill: url(#linear-gradient-5);
      }

      .cls-70 {
        fill: url(#linear-gradient-6);
      }
    </style>
    <linearGradient id="linear-gradient" x1="743.75" y1="560.92" x2="851.34" y2="560.92" gradientUnits="userSpaceOnUse">
      <stop offset="0" stop-color="#fbd0d9"/>
      <stop offset="0.45" stop-color="#da9cb1"/>
      <stop offset="0.59" stop-color="#d695ac"/>
      <stop offset="0.8" stop-color="#c9829f"/>
      <stop offset="1" stop-color="#ba6a8f"/>
    </linearGradient>
    <linearGradient id="linear-gradient-2" x1="1332.24" y1="544.42" x2="1369.3" y2="608.61" gradientUnits="userSpaceOnUse">
      <stop offset="0" stop-color="#ba6a8f"/>
      <stop offset="0.65" stop-color="#da9cb1"/>
      <stop offset="0.74" stop-color="#dea3b6"/>
      <stop offset="0.87" stop-color="#ebb6c5"/>
      <stop offset="1" stop-color="#fbd0d9"/>
    </linearGradient>
    <linearGradient id="linear-gradient-3" x1="1724.01" y1="903.09" x2="1778.31" y2="903.09" gradientUnits="userSpaceOnUse">
      <stop offset="0" stop-color="#fff"/>
      <stop offset="0.65" stop-color="#38529f"/>
    </linearGradient>
    <linearGradient id="linear-gradient-4" x1="1725.13" y1="821.03" x2="1801.39" y2="821.03" xlink:href="#linear-gradient-3"/>
    <linearGradient id="linear-gradient-5" x1="1714.43" y1="759.89" x2="1854.81" y2="759.89" gradientUnits="userSpaceOnUse">
      <stop offset="0" stop-color="#fff"/>
      <stop offset="0.65" stop-color="#fcfcfc"/>
    </linearGradient>
    <linearGradient id="linear-gradient-6" x1="1745.37" y1="750.75" x2="1837.39" y2="750.75" xlink:href="#linear-gradient-5"/>
  </defs>
  <polygon class="cls-1" points="761.88 948.18 757.52 980.14 1326.83 978.68 1325.38 920.59 1042.18 839.26 761.88 948.18"/>
  <path class="cls-2" d="M1391.47,731.71s10.17,94.41-21.78,111.83-59.55,24.69-61,24.69-71.16-4.35-71.16-4.35-27.6-13.08-11.62-26.15,34.85-62.45,53.73-71.16S1391.47,731.71,1391.47,731.71Z" transform="translate(-39.95 -20.26)"/>
  <path class="cls-3" d="M939.8,673.62c0,2.91,13.07,59.55,13.07,59.55s76.53,36.56,78.93,39.34,70.16,14.33,73.31,13.63,84.49-26.83,88.85-29.74S1207,708.48,1207,704.12s-16-63.9-16-63.9Z" transform="translate(-39.95 -20.26)"/>
  <path class="cls-4" d="M1382.76,721.55s16,46.47,0,65.35-46,50.39-65.86,55.7-93.9,14-93.9,14-7.26-30.49-4.35-34.85,100.21-77,100.21-77Z" transform="translate(-39.95 -20.26)"/>
  <path class="cls-5" d="M761.17,739S735,768,749.55,807.23,767,846.45,814.9,856.61s85.69-13.07,85.69-13.07-5.81-36.31-7.26-39.21S761.17,739,761.17,739Z" transform="translate(-39.95 -20.26)"/>
  <path class="cls-6" d="M780.05,768s-26.15,50.83,36.3,79.88,74.07,5.81,74.07,5.81l-16-46.48Z" transform="translate(-39.95 -20.26)"/>
  <path class="cls-7" d="M1418.44,632.7s25.32,40.92,3.53,83-101.66,90-101.66,90L1202.67,881.3l-42.12-10.16-32-20.34s8.72-27.59,20.34-34.85,194.61-185.9,199-185.9S1418.44,632.7,1418.44,632.7Z" transform="translate(-39.95 -20.26)"/>
  <path class="cls-8" d="M1185.81,933.52s-29.61-4.29-26.71-26.07,33.4-58.1,33.4-58.1l10.17-2.9,13.07,2.9,11,18.25L1223,913.25" transform="translate(-39.95 -20.26)"/>
  <path class="cls-9" d="M890.42,682.34s21.79-58.1-4.36-42.12C861,655.55,720.5,638.77,720.5,638.77a107.07,107.07,0,0,1-2.9-11.62c-1.46-7.26,0-14.53,2.9-23.24s11.62-23.24,16-30.5c4.12-6.87,31.63-46.21,34.59-50.45.16-.25.26-.38.26-.38a21,21,0,0,1,5.16.8c17.34,6.9,69.67,44.6,74.72,47.13l.13.07c-.31,5.31-7.73,12-8.73,12.91h0a.23.23,0,0,1-.08.07s0,0,0,0,20.33-2.91,46.47,2.9,43.57,43.57,43.57,43.57l5.81,55.19Z" transform="translate(-39.95 -20.26)"/>
  <path class="cls-10" d="M1291.26,569.05s5.81,11.62,13.07,14.53c0,0-45-4.36-77,10.16s-18.88,75.52-18.88,75.52,12.31,6.89,15.6,8.53,25.07,3.09,26.52,3.09,10.16-4.35,10.16-10.16-21.3-53-2.9-36.31c16,14.52,61.2-3.54,68.26-2.91,3.47.32,4.06-6.8,7.29-5.5l2.87,1.15,79.88,16s7.26-27.59-4.35-50.83-49.38-84.23-49.38-84.23S1279.64,554.53,1291.26,569.05Z" transform="translate(-39.95 -20.26)"/>
  <path class="cls-11" d="M851.34,570.58c-.31,5.31-7.73,12-8.73,12.91h0a.23.23,0,0,1-.08.07s0,0,0,0-21.79,0-46.48,1.45c-24.3,1.42-51.43,14.12-52.27,14.51,2.91-2.91,8.72-7.26,21.77-13.06s40.67-8.71,47.93-10.16,4.36-1.46,1.45-8.72-26.14-23.24-37.76-30.5c-10-6.29-7.06-12.56-6.07-14.14.16-.25.26-.38.26-.38.76-.57,2.57-.22,5.16.8,17.34,6.9,69.67,44.6,74.72,47.13Z" transform="translate(-39.95 -20.26)"/>
  <path class="cls-12" d="M1372.59,521.13s4.36,13.07-2.9,17.43-36.72,23.84-42.12,32c-2.9,4.35-7,6.67,0,10.16,2.91,1.46,10.17,0,10.17,0s18.88,0,27.59,4.36,21.79,10.17,24.69,11.62c0,0-16-7.26-32-10.17s-49.38-4.35-56.64-2.9c0,0-7.26-8.72-4.36-14.53S1372.59,521.13,1372.59,521.13Z" transform="translate(-39.95 -20.26)"/>
  <path class="cls-13" d="M1372.59,618.43c-7.37-.73-66.8-10.16-113.28,26.14s16,49.38,29,49.38,49.38-16,52.28-20.33S1401.64,621.34,1372.59,618.43Z" transform="translate(-39.95 -20.26)"/>
  <path class="cls-13" d="M777.14,612.62s74.07,4.36,93,37.76-93-18.88-93-18.88-11.62-20.33-4.36-18.88S777.14,612.62,777.14,612.62Z" transform="translate(-39.95 -20.26)"/>
  <path class="cls-14" d="M1212.84,846.45c-6.36,17.27-24.68,49.33-37.49,70.9-7.65,12.9-13.34,22-13.34,22l-92.23-38.49L892.6,858.79,857.74,837S747.37,758.58,727,736.8s-21.79-61-21.79-61a72.2,72.2,0,0,1,2.25-15.55A82,82,0,0,1,727,623.52c21.78-23.24,56.64-13.07,56.64-13.07L950,702.67Z" transform="translate(-39.95 -20.26)"/>
  <path class="cls-13" d="M1175.35,917.35c-7.65,12.9-13.34,22-13.34,22l-92.23-38.49L892.6,858.79,857.74,837S747.37,758.58,727,736.8s-21.79-61-21.79-61a72.2,72.2,0,0,1,2.25-15.55c2.65,31.32,55.12,68.56,55.12,68.56l117.64,62.45Z" transform="translate(-39.95 -20.26)"/>
  <path class="cls-8" d="M961.59,930.68s5.8,4.36,18.88-2.9S988.8,910,988.8,910l-37.38-47.61s-14.08-6.63-13.58-6.94-16.92,4-16.92,4l4.36,47.93,21.78,24.68Z" transform="translate(-39.95 -20.26)"/>
  <path class="cls-15" d="M811.59,844.11l-42.44.16s-30.5,2.9-43.57,24.69-10.16,39.21-10.16,39.21v43.57s1.45,18.88,16,29,65.14,5.68,65.14,5.68Z" transform="translate(-39.95 -20.26)"/>
  <path class="cls-16" d="M965.22,932.86c-2.91,5.81-24.69,14.52-24.69,14.52S812.72,986.6,801.1,986.6c-8.74,0-20-7.41-29.3-20.36v0a89.52,89.52,0,0,1-8.46-14.48C753.18,930,745.92,892.2,773.51,864.6s72.62-24.69,79.88-23.24,74.07,5.81,74.07,5.81c20.33,7.27,7.26,23.24,11.61,26.15s0,14.52,0,14.52l-2.9,1.45-.16.16c-.77.8-4.2,4.52-4.2,7.1,0,2.91,8.72-5.81,13.07-5.81s7.27,13.07,7.27,23.24S965.22,932.86,965.22,932.86Z" transform="translate(-39.95 -20.26)"/>
  <path class="cls-17" d="M965.22,932.86c-2.91,5.81-24.69,14.52-24.69,14.52S812.72,986.6,801.1,986.6c-8.74,0-20-7.41-29.3-20.36v0s6.07-31.91,33.66-42.07,101.66-29,101.66-29,20.84-3,28.89-5.65c-.77.8-4.2,4.52-4.2,7.1,0,2.91,8.72-5.81,13.07-5.81s7.27,13.07,7.27,23.24S965.22,932.86,965.22,932.86Z" transform="translate(-39.95 -20.26)"/>
  <path class="cls-18" d="M214.37,986.6s-11.62,1.45-11.62,11.62v13.07s0,8.71,10.16,7.26,1660,1.45,1660,1.45,10.16-1.45,11.62-7.26,0-17.43,0-17.43-2.91-8.71-11.62-8.71Z" transform="translate(-39.95 -20.26)"/>
  <path class="cls-19" d="M1316,766.57s-124.9,78.43-158.3,97.31S983.37,942.3,983.37,942.3l-12.65-22.06-49.8-86.86L1053.81,760l222.93-105.29s28.91-26.74,59.7-39.94c12.86-5.52,26.06-8.67,37.6-6.53,39.22,7.26,49.38,29,49.38,29C1449.57,721.55,1316,766.57,1316,766.57Z" transform="translate(-39.95 -20.26)"/>
  <path class="cls-20" d="M1316,766.57s-124.9,78.43-158.3,97.31S983.37,942.3,983.37,942.3l-12.65-22.06.65-1.87s118-54.49,163-87.9,151-120.54,194.61-207.68l7.42-8c12.86-5.52,26.06-8.67,37.6-6.53,39.22,7.26,49.38,29,49.38,29C1449.57,721.55,1316,766.57,1316,766.57Z" transform="translate(-39.95 -20.26)"/>
  <path class="cls-15" d="M809.69,985.08s-23.84-12.28-31.1-28.26S767,933.59,768.43,916.16c0,0,5.81,33.4,16,42.12,18.09,15.5,23.24,17.42,42.12,21.78Z" transform="translate(-39.95 -20.26)"/>
  <path class="cls-15" d="M848.51,888.46c5.15,5.21,4.9,13.91,5.11,20.71a179,179,0,0,1-1.13,26.19c-.22,1.91,2.78,1.9,3,0a178.77,178.77,0,0,0,1.08-27.66c-.29-7.3-.46-15.82-5.94-21.36a1.5,1.5,0,0,0-2.12,2.12Z" transform="translate(-39.95 -20.26)"/>
  <path class="cls-15" d="M871.45,885.24c2.36,8.45,4.77,17,4.88,25.87a41,41,0,0,1-1.58,12.27c-1,3.26-3.63,7.07-1.11,10.24,1.2,1.51,3.31-.63,2.12-2.12-.92-1.16.58-3.66,1-4.78a35.86,35.86,0,0,0,1.64-5.59,47.89,47.89,0,0,0,.87-11.83c-.39-8.48-2.66-16.72-4.94-24.86a1.5,1.5,0,0,0-2.89.8Z" transform="translate(-39.95 -20.26)"/>
  <path class="cls-15" d="M890.4,884.35c3.79,15.34,7.72,31.56,3.7,47.27-.48,1.87,2.41,2.67,2.89.79,4.17-16.25.23-33-3.69-48.86-.47-1.87-3.36-1.08-2.9.8Z" transform="translate(-39.95 -20.26)"/>
  <path class="cls-15" d="M910.54,881.07c.86,8.49,3.12,16.76,4.21,25.21s.64,16.87-2.82,24.72c-.77,1.75,1.81,3.28,2.59,1.51,3.55-8,4.37-16.6,3.35-25.29s-3.43-17.35-4.33-26.15c-.19-1.91-3.2-1.93-3,0Z" transform="translate(-39.95 -20.26)"/>
  <path class="cls-15" d="M930.7,877.15a3.34,3.34,0,0,0-1.43,1.81,3.11,3.11,0,0,0,0,2,3.52,3.52,0,0,0,.69,1.14,3.15,3.15,0,0,0,.82.63,3.4,3.4,0,0,0,2.34.31,1.51,1.51,0,0,0,.9-2.2l-1.32-2.26-.24,1.82,0,0-.3.24a1.35,1.35,0,0,1,.26-.15l-.36.15a1.33,1.33,0,0,1,.34-.1l-.4.06a1.06,1.06,0,0,1,.31,0,1.47,1.47,0,0,0,1.06-.44,1.54,1.54,0,0,0,.44-1.06,1.56,1.56,0,0,0-.44-1.06l-.31-.23a1.42,1.42,0,0,0-.75-.21,1.06,1.06,0,0,0-.31,0,3.34,3.34,0,0,0-.62.1,3.07,3.07,0,0,0-1.08.62l-.23.3a1.12,1.12,0,0,0-.18.56,1.5,1.5,0,0,0,.18,1l1.32,2.26.89-2.2-.17,0,.4-.05a2.06,2.06,0,0,1-.43,0l.4.06a2,2,0,0,1-.47-.14l.36.16A2.14,2.14,0,0,1,932,880l.3.23a2.13,2.13,0,0,1-.3-.3l.23.3a2.33,2.33,0,0,1-.2-.34l.15.36a1.91,1.91,0,0,1-.11-.41l0,.4a1.93,1.93,0,0,1,0-.48l0,.4a1.88,1.88,0,0,1,.12-.45L932,880a1.52,1.52,0,0,1,.24-.41l-.24.3a2.13,2.13,0,0,1,.3-.3l-.3.23.17-.12a1.52,1.52,0,0,0,.69-.9,1.5,1.5,0,0,0-1-1.84,1.56,1.56,0,0,0-1.16.15Z" transform="translate(-39.95 -20.26)"/>
  <path class="cls-15" d="M942.47,899a2.12,2.12,0,0,0-.8.31,2.44,2.44,0,0,0-.64.52,5.2,5.2,0,0,0-.35.47,3.6,3.6,0,0,0-.26.57,2.65,2.65,0,0,0-.15.84,3.05,3.05,0,0,0,.06.6,1.14,1.14,0,0,0,.06.25,2.84,2.84,0,0,0,.6,1,2.36,2.36,0,0,0,.64.5,3.7,3.7,0,0,0,.54.24l.24.07a4.66,4.66,0,0,0,.64.08,3.29,3.29,0,0,0,.63-.08.84.84,0,0,0,.24-.06,2.8,2.8,0,0,0,.58-.27,1.58,1.58,0,0,0,.69-.9,1,1,0,0,0,0-.6,1.16,1.16,0,0,0-.18-.56,1.48,1.48,0,0,0-2-.53l-.2.1.36-.15a1.17,1.17,0,0,1-.32.09l.4-.05a1.22,1.22,0,0,1-.33,0l.39.06a1.36,1.36,0,0,1-.38-.11l.36.16-.29-.17.31.23a1.31,1.31,0,0,1-.24-.23l.23.3a1.38,1.38,0,0,1-.14-.24l.16.36a1.47,1.47,0,0,1-.08-.28l.06.4a.86.86,0,0,1,0-.32l-.06.4a1.33,1.33,0,0,1,.1-.34l-.15.36a1.57,1.57,0,0,1,.19-.33l-.24.31a2,2,0,0,1,.25-.25l-.3.24a.92.92,0,0,1,.27-.16l-.36.15a1,1,0,0,1,.29-.07,1.26,1.26,0,0,0,.51-.27,1.18,1.18,0,0,0,.38-.42,1.52,1.52,0,0,0,.15-1.16,1.47,1.47,0,0,0-.69-.89l-.35-.16a1.55,1.55,0,0,0-.8,0Z" transform="translate(-39.95 -20.26)"/>
  <path class="cls-21" d="M1345.72,850.08s14.53-5.81,24.69-5.81,34.86,4.36,45,16,14.52,18.88,17.42,26.15,0,69.71,0,69.71-4.35,13.07-11.61,20.33-27.6,16-27.6,16-28.79,7.07-44.17-7.36Z" transform="translate(-39.95 -20.26)"/>
  <path class="cls-22" d="M1378.4,964.09c-1.2,1.08-2.41,2.15-3.6,3.18a179.37,179.37,0,0,1-28.73,20.05s-86.76-23.23-112.9-30.5-47.93-13.07-49.38-26.14c0,0,14.52-1.45,14.52-11.62s-11.61-13.07-2.9-23.23,21.78,0,21.78,0H1223a4.7,4.7,0,0,0-1-2.49c-1.08-1.46-3.26-3.31-7.67-4.78-8.71-2.9-13.07-8.71-7.26-16s5.81-26.14,5.81-26.14,55.19,0,71.16-2.91,53.74,0,53.74,0,39.21,8.72,49.38,42.12S1394.38,949.56,1378.4,964.09Z" transform="translate(-39.95 -20.26)"/>
  <path class="cls-23" d="M1374.8,967.27a179.37,179.37,0,0,1-28.73,20.05s-86.76-23.23-112.9-30.5-47.93-13.07-49.38-26.14c0,0,14.52-1.45,14.52-11.62s-11.61-13.07-2.9-23.23,21.78,0,21.78,0H1223a4.7,4.7,0,0,0-1-2.49l13.39,4.67s8.71,0,32,4.35,62.45,13.07,62.45,13.07,43.57,14.53,43.57,39.22Z" transform="translate(-39.95 -20.26)"/>
  <path class="cls-15" d="M1312.32,979.34l16,4.35s8.71,2.91,14.52,0,5.81-2.9,13.07-10.16,20.33-16,23.24-46.48V909.62s-4.36,34.86-11.62,43.57-8.71,17.43-24.69,21.79A129.87,129.87,0,0,1,1312.32,979.34Z" transform="translate(-39.95 -20.26)"/>
  <path class="cls-15" d="M1293.37,887.67c-1,7.12-4.89,13.55-5.33,20.78-.23,3.73.82,7.23,2.08,10.69l2.11,5.85a48,48,0,0,0,2.22,5.65c.89,1.71,3.48.2,2.59-1.52a44.59,44.59,0,0,1-2.08-5.4q-1-2.79-2-5.58c-1.19-3.31-2.15-6.55-1.86-10.11.55-6.77,4.24-12.85,5.2-19.56a1.56,1.56,0,0,0-1-1.85,1.52,1.52,0,0,0-1.85,1Z" transform="translate(-39.95 -20.26)"/>
  <path class="cls-15" d="M1270.2,886.18c1,8-1.15,16-.43,24.05.69,7.55,3.7,14.57,7.19,21.21.9,1.71,3.49.2,2.59-1.51-3.38-6.42-6.38-13.3-6.85-20.63-.49-7.73,1.45-15.4.5-23.12-.23-1.89-3.23-1.91-3,0Z" transform="translate(-39.95 -20.26)"/>
  <path class="cls-15" d="M1252.38,882.4a112.78,112.78,0,0,0-3.52,27.85,78.66,78.66,0,0,0,.85,12.83,19.52,19.52,0,0,0,4.68,10.43c1.32,1.41,3.44-.71,2.12-2.12-2.52-2.69-3.53-6.32-4-9.89a84.38,84.38,0,0,1-.62-12.21,109.34,109.34,0,0,1,3.42-26.09c.47-1.88-2.42-2.67-2.9-.8Z" transform="translate(-39.95 -20.26)"/>
  <path class="cls-15" d="M1233.77,879c-1.86,3.68-2.47,7.69-2.83,11.76a68.61,68.61,0,0,1-1.81,12.37c-1.2,4.36-1.94,8.48-1.3,13a60.66,60.66,0,0,0,3.82,13c.68,1.79,3.58,1,2.89-.79a64.51,64.51,0,0,1-3.68-12.13,22.9,22.9,0,0,1-.19-6.51,45.3,45.3,0,0,1,1.48-6.27,63.34,63.34,0,0,0,1.7-11.64c.31-3.87.73-7.81,2.51-11.32.87-1.71-1.72-3.23-2.59-1.51Z" transform="translate(-39.95 -20.26)"/>
  <path class="cls-24" d="M1212.48,880a3.75,3.75,0,0,0,.57,1.81,8.39,8.39,0,0,1,.67,1.11l-.15-.36a2,2,0,0,1,.16.54l-.06-.4a1.71,1.71,0,0,1,0,.32l0-.4a1.19,1.19,0,0,1-.07.27l.15-.36a.42.42,0,0,1-.09.14l.24-.3-.12.12.3-.23a1.05,1.05,0,0,1-.21.12l.36-.15a.86.86,0,0,1-.23.06l.4,0h-.24l.4,0a.61.61,0,0,1-.18,0l.36.15a.3.3,0,0,1-.11-.06l.31.24-.09-.08.24.3a.24.24,0,0,1-.06-.11l.15.36a.32.32,0,0,1,0-.09,1.56,1.56,0,0,0-.69-.9,1.5,1.5,0,0,0-2.2,1.7,2,2,0,0,0,2,1.49,2.36,2.36,0,0,0,2-1.14,2.45,2.45,0,0,0,.31-1.4,4,4,0,0,0-.4-1.4c-.25-.5-.63-.92-.85-1.44l.15.36a1.86,1.86,0,0,1-.13-.46l0,.4a.86.86,0,0,0,0-.16,1.56,1.56,0,0,0-.44-1.06,1.5,1.5,0,0,0-1.06-.44,1.52,1.52,0,0,0-1.5,1.5Z" transform="translate(-39.95 -20.26)"/>
  <path class="cls-25" d="M871.54,678h390.68s10.16,1.45,11.61,7.26-4.35,8.71-7.26,8.71-395,1.46-395,1.46-10.16,1.45-10.16-5.81S864.28,679.43,871.54,678Z" transform="translate(-39.95 -20.26)"/>
  <path class="cls-26" d="M879.93,694H1258s9.84,1.09,11.25,5.41-4.22,6.49-7,6.49l-382.3,1.09s-9.84,1.08-9.84-4.33S872.9,695,879.93,694Z" transform="translate(-39.95 -20.26)"/>
  <path class="cls-27" d="M1022.58,309.09s-71.16,14.52-101.66,30.5-53.74,39.21-65.35,55.19-87.14,126.35-87.14,126.35,17.42,17.43,37.76,30.5A270,270,0,0,0,844,572s7.26,1.45,11.62-1.45S903.49,524,903.49,524s203.33-46.47,210.59-47.92,88.59,1.45,88.59,1.45,4.36,30.5,14.52,33.4,33.41,18.88,33.41,18.88l37.76,40.67s2.9,7.26,11.62,2.9S1374,526.94,1374,526.94s2.91-4.36,0-8.72-65.35-101.66-65.35-101.66-30.5-42.12-47.93-56.64-72.61-37.76-72.61-37.76l-59.55-13.07Z" transform="translate(-39.95 -20.26)"/>
  <path class="cls-28" d="M1029.84,307.64a18.47,18.47,0,0,0-13.07,16c-1.45,13.07,8.72,55.19,49.38,58.09s63.9-20.33,68.26-37.76,2.91-33.4-17.43-42.11S1029.84,304.73,1029.84,307.64Z" transform="translate(-39.95 -20.26)"/>
  <path class="cls-29" d="M1035.65,303.28s-13.07,5.81-8.71,17.43,17.43,36.31,46.47,37.76,50.84-20.33,52.29-32,3.47-19.77-12.06-25.13S1037.11,298.92,1035.65,303.28Z" transform="translate(-39.95 -20.26)"/>
  <path class="cls-30" d="M1317.25,397.08c-1.86,14.95-44.84,267.2-44.84,267.2s-1.87,13.08-15,13.08l-60.17.1c-106.56.16-316.47.52-316.47.52s-12-.62-13.89-17.44-35.5-267.2-35.5-267.2,0-11.21,5.61-16.82,14.94-9.34,24.29-9.34h429.76s16.82,1.87,20.56,7.48S1319.12,382.13,1317.25,397.08Z" transform="translate(-39.95 -20.26)"/>
  <path class="cls-31" d="M1317.74,397.08c-1.87,14.95-44.85,267.2-44.85,267.2s-1.87,13.08-15,13.08l-60.16.1c13.77-3.27,31.87-12.13,41.48-35.6,16.81-41.11,44.84-188.72,44.84-188.72l16.82-67.27s5.61-16.82-37.37-18.69h28s16.81,1.87,20.55,7.48S1319.61,382.13,1317.74,397.08Z" transform="translate(-39.95 -20.26)"/>
  <circle class="cls-32" cx="1034.64" cy="502.32" r="40.66"/>
  <circle class="cls-33" cx="1034.64" cy="502.32" r="30.5"/>
  <path class="cls-32" d="M886.06,676.53S875.9,680.88,873,663.46s-17.42-140.88-17.42-140.88L838.14,391.87s1.45-17.43,17.43-17.43S1085,375.9,1085,375.9l193.16-1.46,17.11,1s13.39,3.35,10.49,25.14-7.27,14.52-10.17,4.35-4.36-13.07-16-17.43-65.35-2.9-65.35-2.9l-344.2-1.45s-21.79-1.46-20.33,13.07S886.06,676.53,886.06,676.53Z" transform="translate(-39.95 -20.26)"/>
  <path class="cls-34" d="M1012,253.83a69,69,0,0,1-8.31-2.83l-.78-.34c-28.48-12-29.11-34.53-27.55-45.28a35.85,35.85,0,0,1,1.31-6c1.14-5.39,10.1-3,17.93.29C1002.43,216.11,1018.46,251.66,1012,253.83Z" transform="translate(-39.95 -20.26)"/>
  <path class="cls-34" d="M1155.33,242.86c-1.36.7-2.78,1.35-4.29,2-.26.12-.52.24-.78.34l-1.48.59A68,68,0,0,1,1142,248c-4.5-1.51,2-19.27,8.92-35.45,3-7,6.11-13.74,8.48-18.71,4.46-1.89,9.28-3.47,12.82-3.48,2.67,0,4.62.87,5.11,3.19a35.85,35.85,0,0,1,1.31,6C1180.06,209.75,1179.58,230.5,1155.33,242.86Z" transform="translate(-39.95 -20.26)"/>
  <path class="cls-35" d="M1172.17,190.38v4s-8.71,31.95-13.07,33.4l-3.77,15.1-.59,2.33s-3.16.45-6,.59c-2.21.12-4.2.05-4.2-.59,0-1.46-2.91-11.62,0-14.53,1.61-1.61,4.11-10.37,6.29-18.09,3-7,6.11-13.74,8.48-18.71C1163.81,192,1168.63,190.39,1172.17,190.38Z" transform="translate(-39.95 -20.26)"/>
  <path class="cls-35" d="M1012,253.83a2.51,2.51,0,0,1-1,.07,15.52,15.52,0,0,1-8-3.24,14.41,14.41,0,0,1-5-8.38s0-8.71-10.16-18.88c-5-5-9.3-12.1-12.36-18a35.85,35.85,0,0,1,1.31-6c1.14-5.39,10.1-3,17.93.29C1002.43,216.11,1018.46,251.66,1012,253.83Z" transform="translate(-39.95 -20.26)"/>
  <path class="cls-36" d="M999.35,200.16s-8.72,47.93,20.33,91.5,72.61,43.57,103.11,11.62,33.41-65.35,33.41-84.24-14.53-52.28-14.53-52.28S999.35,182.74,999.35,200.16Z" transform="translate(-39.95 -20.26)"/>
  <path class="cls-35" d="M1015.89,214.72c-.09.88,77.86,30.47,111.26-2.94s29-43.57,29-43.57l-8.72-11.61-27.59,8.71S1016.46,208.94,1015.89,214.72Z" transform="translate(-39.95 -20.26)"/>
  <path class="cls-13" d="M1202.67,134.81c-2.9,24.69-18.88,36.31-18.88,36.31v5.81c-7.26,20.33-13.07,5.81-13.07,5.81a95.89,95.89,0,0,1-14.52,45c0-24.69-5.81-36.31-7.26-40.67s-2.91-14.52-2.91-14.52a34.09,34.09,0,0,0,2.19-6.22c-4.8,12.54-16.71,23.33-26.88,32.36-13.07,11.62-29,18.88-79.88,20.33s-71.16-47.92-71.16-47.92-10.17-14.52-11.62-46.48,29.05-33.4,29.05-33.4-16-2.9-14.53-26.14c.85-13.38,15.62-17.12,28-17.89,2-.13,3.91-.18,5.71-.18.45,0,.9,0,1.33,0a93,93,0,0,1,10,.62c17.42,0,37.76-16,37.76-16s21.78-16,52.28-10.17c45,8.58,42.12,47.93,42.12,47.93a84.06,84.06,0,0,1,20.1,2.92c6.81,1.88,14,5,19.11,10.15C1202.67,95.6,1205.58,110.12,1202.67,134.81Z" transform="translate(-39.95 -20.26)"/>
  <path class="cls-37" d="M1170.49,72.38c-.16,6.14-.53,13-1.22,20.31-2.91,30.5-37.76,46.48-87.14,62.45s-94.4-4.35-98.76-31.95,26.14-31.95,26.14-31.95c-24.69-4.36-20.33-16-18.88-29,.73-6.47,5.72-11.53,10.59-15,2-.13,3.91-.18,5.71-.18.45,0,.9,0,1.33,0a93,93,0,0,1,10,.62c17.42,0,37.76-16,37.76-16s21.78-16,52.28-10.17c45,8.58,42.12,47.93,42.12,47.93A84.06,84.06,0,0,1,1170.49,72.38Z" transform="translate(-39.95 -20.26)"/>
  <path class="cls-13" d="M998.56,230.92s-23.9-14.78-28.26-56.9,32-5.81,33.4-4.35S998.56,230.92,998.56,230.92Z" transform="translate(-39.95 -20.26)"/>
  <path class="cls-38" d="M515.72,929.23H695.81S688.55,936.49,690,951s8.72,21.79,8.72,21.79l-190.26,1.45-11.62-1.45s-2.9-24.69-2.9-27.59,1.45-13.08,1.45-13.08S508.46,923.42,515.72,929.23Z" transform="translate(-39.95 -20.26)"/>
  <path class="cls-39" d="M698.72,984.42s-399.39,4.36-424.08,1.45S250,967,250,967s-1.45-26.14-1.45-37.76a8.64,8.64,0,0,1,3.08-7c4.63-3.91,12.89-3.16,12.89-3.16l431.34-1.45s3.81,0,5.26,3.08a6.55,6.55,0,0,1,.55,2.73c0,5.81-5.81,5.81-5.81,5.81H515.72c-7.26,0-17.42,5.81-17.42,21.78s10.16,23.24,10.16,23.24l190.26-1.45C707.43,983,698.72,984.42,698.72,984.42Z" transform="translate(-39.95 -20.26)"/>
  <path class="cls-40" d="M489.58,947.89v20.77a11.29,11.29,0,0,1-.51,3.4,11.41,11.41,0,0,1-10.89,8H408a11.37,11.37,0,0,1-11.4-11.4V947.89a11.07,11.07,0,0,1,.39-3,11.4,11.4,0,0,1,11-8.44h70.15a11.4,11.4,0,0,1,10.68,7.39A11.59,11.59,0,0,1,489.58,947.89Z" transform="translate(-39.95 -20.26)"/>
  <path class="cls-41" d="M488.86,943.88c-4.83,2.78-12.76,2.78-13.8,2.78-1.45,0-29.05-1.45-56.64,0-14.16.74-19.52-.42-21.4-1.73a11.4,11.4,0,0,1,11-8.44h70.15A11.4,11.4,0,0,1,488.86,943.88Z" transform="translate(-39.95 -20.26)"/>
  <path class="cls-41" d="M489.07,972.06a11.41,11.41,0,0,1-10.89,8H408a11.41,11.41,0,0,1-10.24-6.37C414.45,971.42,477.15,963.58,489.07,972.06Z" transform="translate(-39.95 -20.26)"/>
  <path class="cls-42" d="M701.07,920.69c-2.64,2.11-9.62,2.73-9.62,2.73l-212,1.45s-206.22,1.46-220.75,0c-3.32-.33-5.6-1.29-7.08-2.65,4.63-3.91,12.89-3.16,12.89-3.16l431.34-1.45S699.62,917.61,701.07,920.69Z" transform="translate(-39.95 -20.26)"/>
  <path class="cls-43" d="M509.82,943l67.76.12c22.55,0,45.1.23,67.64-.05,12.74-.17,25.49-.52,38.21-1.27,1.92-.11,1.93-3.11,0-3-22.48,1.32-45,1.41-67.51,1.39s-45.16-.08-67.73-.12L509.82,940a1.5,1.5,0,0,0,0,3Z" transform="translate(-39.95 -20.26)"/>
  <path class="cls-43" d="M515.5,962.17l65.92-.07,65.91-.07,37,0a1.5,1.5,0,0,0,0-3l-65.92.07-65.91.07-37,0a1.5,1.5,0,0,0,0,3Z" transform="translate(-39.95 -20.26)"/>
  <path class="cls-44" d="M663.86,919.06c-1.44.29-2.82.53-4.14.73H263.34a15.57,15.57,0,0,1-15.57-15.57v-53.1a15.57,15.57,0,0,1,15.57-15.56H662.09A15.42,15.42,0,0,1,671.8,839c2,3.15,3.61,8.22-5,10.38-5.8,1.45-36.3,0-36.3,0L483.77,850.8s-14.52,0-14.52,21.79,0,39.21,31.95,39.21H669.67S678.38,916.16,663.86,919.06Z" transform="translate(-39.95 -20.26)"/>
  <path class="cls-45" d="M456.32,832h173.4a0,0,0,0,1,0,0v58.09a0,0,0,0,1,0,0H456.32a18.3,18.3,0,0,1-18.3-18.3V850.3A18.3,18.3,0,0,1,456.32,832Z"/>
  <path class="cls-45" d="M469.25,850.8c-6.78,6.33-13.28,14.81-13.07,24.69.29,14,13.8,21.74,10.16,30.5-2.13,5.16-9.21,8.28-14.52,7.26-11-2.1-16.89-22.45-14.52-37.76,0,0,2.64-17.06,17.43-27.59,2.19-1.57,9.68-6.9,13.07-4.36C469.82,845.06,469.55,848.77,469.25,850.8Z" transform="translate(-39.95 -20.26)"/>
  <path class="cls-45" d="M547.67,773.83c0,1.45-14.52,23.24-2.9,49.38l-36.31,8.71-106-7.26,4.36-49.38s11.62-2.9,13.07-2.9,126.35,1.45,126.35,1.45Z" transform="translate(-39.95 -20.26)"/>
  <path class="cls-46" d="M324,775.28c24.31,4.63,55-27,63.9-59.54,10.14-36.94-12.08-59.13-26.14-113.28C354.37,574,347.71,530.74,356,473.2c-13.67,3.83-32.06,11.38-46.48,27.6-23.71,26.67-11.57,48.6-21.78,146.68-4,38.54-8.5,60.26,2.9,88.59C294.88,746.66,304.94,771.65,324,775.28Z" transform="translate(-39.95 -20.26)"/>
  <path class="cls-16" d="M345.08,713.56a379.52,379.52,0,0,1-15-49.48c-2-8.39-3.6-16.88-5-25.39s-2.54-17.08-3.3-25.68-1.19-17.25-1.11-25.89c0-2.16.05-4.32.11-6.48s.08-4.32.26-6.48l.42-6.46.71-6.45c.19-2.15.59-4.28.9-6.42s.64-4.27,1.1-6.39.82-4.24,1.31-6.34l1.6-6.28a140.57,140.57,0,0,1,9.26-24.13,151.66,151.66,0,0,0-8.31,24.38l-1.45,6.27c-.44,2.1-.77,4.22-1.16,6.33s-.69,4.23-1,6.36-.61,4.25-.76,6.39a266.78,266.78,0,0,0,.07,51.41,408,408,0,0,0,7.83,50.92q2.69,12.62,6.07,25.07C339.9,697.14,342.34,705.39,345.08,713.56Z" transform="translate(-39.95 -20.26)"/>
  <path class="cls-47" d="M323.94,777.79c15.34-3.17,24.31-24.62,27-35.84,3.81-16-.81-29.39-9.85-55.62-6.88-20-9.47-20.46-15.33-37.33-8.46-24.31-5.89-31.36-12.13-60.34-4.88-22.65-9.87-45.79-24.07-69.34-7.17-11.87-19.84-29.09-42.06-45.44-5.15,15.5-10.61,38.76-7.78,66.37,1.91,18.65,6.12,24.75,8.78,42.28,5.92,38.94-8,53.71-8.54,82.39C238.87,723.4,294.55,783.85,323.94,777.79Z" transform="translate(-39.95 -20.26)"/>
  <path class="cls-48" d="M322.56,792.71c-14.08,1.88-59.92,6.17-106-21.78A162.42,162.42,0,0,1,157,707c3.12-.81,6.54-1.65,10.22-2.48a326,326,0,0,1,58-7.68c17-.71,26.88-1.12,36.31,1.45,26.21,7.15,42.09,35.58,51.15,59.92A238.59,238.59,0,0,1,322.56,792.71Z" transform="translate(-39.95 -20.26)"/>
  <path class="cls-21" d="M312.72,758.23c-10.68,4.83-35.25-1.59-56.35-8.52l0,0C248,747,240.16,744.12,234,741.88c-25.86-9.35-64.71-23.4-66.75-37.34h.08a324.46,324.46,0,0,1,58-7.67c17-.71,26.88-1.12,36.31,1.45C287.78,705.46,303.66,733.89,312.72,758.23Z" transform="translate(-39.95 -20.26)"/>
  <path class="cls-49" d="M256.34,749.69C248,747,240.16,744.12,234,741.88c-25.86-9.35-64.71-23.4-66.75-37.34h.08c.9,2.44,7.85,15.81,55,31.54C242,742.61,251.75,746.89,256.34,749.69Z" transform="translate(-39.95 -20.26)"/>
  <path class="cls-50" d="M414.06,811.59s-1.45,10.17,23.24,10.17,106-1.45,106-1.45,8.71-2.91,8.71,5.81-2.9,8.71-8.71,8.71c-2.91,0-12.65.73-21.53,1.45H292a13,13,0,0,1-13-13A55.28,55.28,0,0,1,334.28,768H553c4.17,3.85,7.32,10.17-16.91,10.17H422.77a13.63,13.63,0,0,0-8.71,13.07Z" transform="translate(-39.95 -20.26)"/>
  <path class="cls-43" d="M426.56,790.2H531.13a1.5,1.5,0,0,0,0-3H426.56a1.5,1.5,0,0,0,0,3Z" transform="translate(-39.95 -20.26)"/>
  <path class="cls-43" d="M431.11,803.56h91.78a1.5,1.5,0,0,0,0-3H431.11a1.5,1.5,0,0,0,0,3Z" transform="translate(-39.95 -20.26)"/>
  <path class="cls-43" d="M498.17,861.24H663.54a1.5,1.5,0,0,0,0-3H498.17a1.5,1.5,0,0,0,0,3Z" transform="translate(-39.95 -20.26)"/>
  <path class="cls-51" d="M557.11,683.79a34.13,34.13,0,1,0,34.13,34.13A34.13,34.13,0,0,0,557.11,683.79ZM552.76,739a22.52,22.52,0,1,1,22.51-22.52A22.51,22.51,0,0,1,552.76,739Z" transform="translate(-39.95 -20.26)"/>
  <path class="cls-51" d="M556.39,668.25l-.84,5.88-1.46,10.14-11.35,79.15a4.57,4.57,0,0,1-4.49,4.63H468a4.56,4.56,0,0,1-4.49-4.63L452,683.24l-1.49-10.33-.66-4.66a6,6,0,0,1,6-6h94.47A6,6,0,0,1,556.39,668.25Z" transform="translate(-39.95 -20.26)"/>
  <path class="cls-43" d="M495.9,874.88H656.16a1.5,1.5,0,0,0,0-3H495.9a1.5,1.5,0,0,0,0,3Z" transform="translate(-39.95 -20.26)"/>
  <path class="cls-43" d="M499,887.38H641.38a1.5,1.5,0,0,0,0-3H499a1.5,1.5,0,0,0,0,3Z" transform="translate(-39.95 -20.26)"/>
  <path class="cls-43" d="M538.23,901.3H653a1.5,1.5,0,0,0,0-3H538.23a1.5,1.5,0,0,0,0,3Z" transform="translate(-39.95 -20.26)"/>
  <rect class="cls-52" x="340.71" y="802.95" width="108.92" height="13.07" rx="3.3"/>
  <path class="cls-53" d="M555.55,674.13l-1.46,10.14a117.59,117.59,0,0,1-102.09-1l-1.49-10.33A116.35,116.35,0,0,0,463.44,678C499.65,689.79,534,681.86,555.55,674.13Z" transform="translate(-39.95 -20.26)"/>
  <path class="cls-16" d="M491.85,641.45A20.85,20.85,0,0,1,488,630.91c-.3-4,.76-7.68,2.21-11.41A38.62,38.62,0,0,0,493,607.3a82.12,82.12,0,0,0-.69-13c-.2-1.9-3.2-1.92-3,0a79.91,79.91,0,0,1,.67,13.47c-.29,4.52-1.82,8.46-3.36,12.65A24.07,24.07,0,0,0,489.26,643c1.11,1.56,3.71.07,2.59-1.51Z" transform="translate(-39.95 -20.26)"/>
  <path class="cls-16" d="M505.62,634.94a37.11,37.11,0,0,1-2.85-24.83c2-8.29,7.29-15.71,7.27-24.47a23.25,23.25,0,0,0-4.21-13.22c-1.1-1.56-3.7-.07-2.59,1.52a20.41,20.41,0,0,1,3.8,11.7c0,4.27-1.46,8.35-3,12.25s-3.42,8-4.33,12.27a40.09,40.09,0,0,0-.65,12.6,41,41,0,0,0,4,13.69c.86,1.73,3.45.22,2.59-1.51Z" transform="translate(-39.95 -20.26)"/>
  <path class="cls-16" d="M517.89,639.15c-3.92-6.3-7-14-4.38-21.41,1.26-3.55,3.92-6.41,5.39-9.87A26.49,26.49,0,0,0,521,597c0-1.93-3-1.94-3,0a23.4,23.4,0,0,1-2.59,11.34c-1.81,3.46-4.31,6.38-5.25,10.25-1.9,7.78,1.08,15.56,5.16,22.11,1,1.63,3.61.13,2.59-1.52Z" transform="translate(-39.95 -20.26)"/>
  <path class="cls-54" d="M306.84,743.71a41.59,41.59,0,0,0-2.23-3.57c-5.25-7.64-20.29-25.3-49.58-30.94C217.27,701.94,201.3,715,188.22,686c-12.75-28.34-10.29-29-30.41-33.1l-1.54-.31S93.82,664.18,76.4,633.68,38.64,527.66,40.09,487c0,0,50.83-24.69,114.73,1.45s43.57,50.83,62.45,65.35,49.38,8.72,72.62,42.12S323.8,689.63,306.84,743.71Z" transform="translate(-39.95 -20.26)"/>
  <path class="cls-21" d="M304.61,740.14c-5.25-7.64-20.29-25.3-49.58-30.94C217.27,701.94,201.3,715,188.22,686c-12.75-28.34-10.29-29-30.41-33.1,40.23-10.58,76.89-4.66,76.89-4.66s46.47,45,56.64,59.54C297.44,716.45,302,730.38,304.61,740.14Z" transform="translate(-39.95 -20.26)"/>
  <path class="cls-16" d="M40.22,486.79c5,2.92,10,5.75,15,8.75l14.88,8.89h0l.13.1,11.42,8.66C85.46,516.08,89.21,519,93,522c7.55,5.84,15.1,11.69,22.59,17.62s15,11.78,22.47,17.75l22.37,17.89.12.1.19.18,45.58,44.6q11.38,11.14,22.86,22.2c7.64,7.38,15.24,14.8,23,22.05,3.85,3.64,7.76,7.21,11.64,10.8,2,1.76,3.9,3.57,5.87,5.29l3,2.55c1,.87,2,1.66,3.05,2.66l1.58,1.42a19.35,19.35,0,0,1,1.53,1.47l2.87,3.07c1.76,2.15,3.55,4.28,5.08,6.56a117.12,117.12,0,0,1,8.36,14,158.15,158.15,0,0,1,6.71,14.72q3,7.49,5.46,15.13t4.58,15.37c1.38,5.16,2.55,10.37,3.58,15.61l-.49.11a295,295,0,0,0-9.47-30.43c-1.83-5-3.81-9.91-6-14.77s-4.47-9.63-7-14.28a114.34,114.34,0,0,0-8.51-13.43c-1.53-2.16-3.27-4.16-5-6.17l-2.76-2.84c-.92-1-2-1.76-3-2.64-8.27-6.69-16.19-13.83-24-21-15.67-14.41-31-29.13-46.32-43.94s-30.38-29.79-45.44-44.83l0,0L69,506.1l0,0L40,487.21Z" transform="translate(-39.95 -20.26)"/>
  <path class="cls-16" d="M284.49,696.35a177.26,177.26,0,0,1-7.1-20.21,193.52,193.52,0,0,1-4.82-20.9,136.61,136.61,0,0,1-1.95-21.37,101,101,0,0,1,.55-10.72,73.83,73.83,0,0,1,2-10.53,90.78,90.78,0,0,0-1.8,21.24,148.31,148.31,0,0,0,2.16,21.22c1.14,7,2.74,14,4.57,20.86q1.38,5.16,3,10.26T284.49,696.35Z" transform="translate(-39.95 -20.26)"/>
  <path class="cls-16" d="M239.4,652.78a79.07,79.07,0,0,1-12.65-17.37,91.71,91.71,0,0,1-11.33-41.29c0-1.8-.08-3.6,0-5.4l.09-2.69.2-2.69a102.67,102.67,0,0,1,1.54-10.65,112.66,112.66,0,0,0-1.08,21.39,96.51,96.51,0,0,0,3.42,21.09A97.49,97.49,0,0,0,227.43,635a95,95,0,0,0,5.46,9.22A74.66,74.66,0,0,0,239.4,652.78Z" transform="translate(-39.95 -20.26)"/>
  <path class="cls-16" d="M96.73,620.61a66,66,0,0,1,22-14.17c2-.87,4.16-1.47,6.27-2.14s4.27-1.13,6.45-1.5a80.85,80.85,0,0,1,13.17-1.4,102.07,102.07,0,0,1,13.2.59,109.33,109.33,0,0,1,13,2.31,107,107,0,0,1,24.64,9.05A124.45,124.45,0,0,0,183.16,609q-6.25-1.87-12.65-3.18a113.73,113.73,0,0,0-25.8-2.42,83,83,0,0,0-12.88,1.25c-2.14.32-4.23.85-6.33,1.34s-4.17,1.14-6.19,1.91-4,1.57-6,2.4c-1,.44-1.94,1-2.91,1.43l-1.46.73-1.4.81A79.19,79.19,0,0,0,96.73,620.61Z" transform="translate(-39.95 -20.26)"/>
  <path class="cls-55" d="M1685.5,710.07c13.71-4.89,17.34-50.31-3.17-81.19-8.19-12.32-25.5-30.3-35.7-26-14.14,5.93-14.27,54.46,9,85.75C1657.88,691.61,1674.52,714,1685.5,710.07Z" transform="translate(-39.95 -20.26)"/>
  <path class="cls-56" d="M1648.58,605.46a47.9,47.9,0,0,1,9,6.93,52.66,52.66,0,0,1,7,9,70.65,70.65,0,0,1,8.39,21.25,109.5,109.5,0,0,1,2.6,22.66,116.67,116.67,0,0,1-1.8,22.64c.29-3.77.47-7.54.47-11.31s0-7.53-.23-11.28-.53-7.49-1-11.21a103,103,0,0,0-2-11,83.28,83.28,0,0,0-3.15-10.75,67.82,67.82,0,0,0-4.62-10.16,58.57,58.57,0,0,0-6.42-9.15A54.08,54.08,0,0,0,1648.58,605.46Z" transform="translate(-39.95 -20.26)"/>
  <g>
    <polygon class="cls-57" points="1467.71 930.76 1445.92 673.7 1477.87 670.79 1493.85 930.76 1467.71 930.76"/>
    <path class="cls-19" d="M1545.42,977.16h-50.83c-.77-1.44-5.64-10.9-1.45-20.34,5.37-12.11,20.68-12.94,23.23-13.07a34,34,0,0,1,4.91.12c9.44.9,20.14,5.74,24.14,15.86C1548.34,967.14,1546.42,974.22,1545.42,977.16Z" transform="translate(-39.95 -20.26)"/>
    <path class="cls-58" d="M1545.42,977.16h-20.68c2.23-3.21,7-11.33,4.7-20.34-1.33-5.33-4.79-9.73-8.16-13,9.44.9,20.14,5.74,24.14,15.86C1548.34,967.14,1546.42,974.22,1545.42,977.16Z" transform="translate(-39.95 -20.26)"/>
    <rect class="cls-19" x="1413.97" y="946.73" width="129.26" height="24.69" rx="8.22"/>
    <path class="cls-58" d="M1583.18,975.21v8.25a8.23,8.23,0,0,1-8.22,8.22h-34.58c1.68-3.46,4.7-6.88,3.59-11.62-1.73-7.33-11.71-10.69-20.55-13.07H1575A8.23,8.23,0,0,1,1583.18,975.21Z" transform="translate(-39.95 -20.26)"/>
    <path class="cls-57" d="M1501.85,635.86a34.86,34.86,0,1,0,34.85,34.86A34.87,34.87,0,0,0,1501.85,635.86Zm0,47.93a13.07,13.07,0,1,1,13.07-13.07A13.07,13.07,0,0,1,1501.85,683.79Z" transform="translate(-39.95 -20.26)"/>
    <path class="cls-57" d="M1635.46,512.41a34.86,34.86,0,1,0,34.86,34.86A34.87,34.87,0,0,0,1635.46,512.41Zm0,47.93a13.07,13.07,0,1,1,13.07-13.07A13.07,13.07,0,0,1,1635.46,560.34Z" transform="translate(-39.95 -20.26)"/>
    <path class="cls-27" d="M1369.63,350.51c-.47-2.5-1.77-11-7.66-13.78-5.26-2.46-12.46.5-15.3,3.06-19.3,17.36,31.64,132.77,68.88,128.57,6.83-.77,14.12-5.67,16.83-12.24C1443.36,429.59,1376.11,384.9,1369.63,350.51Z" transform="translate(-39.95 -20.26)"/>
    <polygon class="cls-57" points="1466.58 630.19 1575.52 533.58 1593.74 550.18 1492.04 646.47 1466.58 630.19"/>
    <path class="cls-57" d="M1531,344.4l-10-23.69a10.4,10.4,0,0,0-13.61-5.54l-38.08,16.05a32.58,32.58,0,0,1-12.66,2.56H1356.07a7.48,7.48,0,0,0-6.48,11.22l67.53,117a7.48,7.48,0,0,0,13,0l40.82-70.69a46.74,46.74,0,0,1,22.37-19.74L1525.42,358A10.39,10.39,0,0,0,1531,344.4Z" transform="translate(-39.95 -20.26)"/>
    <polygon class="cls-57" points="1575.18 513.94 1445.92 336.76 1466.25 322.24 1594.06 503.77 1575.18 513.94"/>
  </g>
  <path class="cls-22" d="M1778.18,830.53l-20,148.88a14.15,14.15,0,0,1-14,12.27h-86.06a14.15,14.15,0,0,1-14-12.27l-20-148.88a14.14,14.14,0,0,1,14-16h126A14.14,14.14,0,0,1,1778.18,830.53Z" transform="translate(-39.95 -20.26)"/>
  <path class="cls-59" d="M1778.18,830.53l-20,148.88a14.15,14.15,0,0,1-14,12.27H1724l19.16-177.18h21A14.14,14.14,0,0,1,1778.18,830.53Z" transform="translate(-39.95 -20.26)"/>
  <path class="cls-60" d="M1693.3,709s32.93-66.6,14-114.53c0,0-39.21,45-42.11,108.92S1693.3,709,1693.3,709Z" transform="translate(-39.95 -20.26)"/>
  <path class="cls-61" d="M1705.41,596.89a108.47,108.47,0,0,1,.11,17.1,164.61,164.61,0,0,1-2,17,286.19,286.19,0,0,1-7.91,33.3q-2.43,8.21-5.18,16.32t-5.86,16.09q-3.13,8-6.52,15.84c-2.25,5.24-4.6,10.44-7.12,15.56l-.07,0c4.63-10.42,9-21,13-31.64s7.84-21.41,11.17-32.31a286.9,286.9,0,0,0,8.11-33.2,160.63,160.63,0,0,0,2.19-16.95,108.21,108.21,0,0,0,0-17.08Z" transform="translate(-39.95 -20.26)"/>
  <path class="cls-62" d="M1829.35,645.3c1.32,9.8.74,20.8-1.48,32.33C1817,734,1767,803.6,1707.35,815.22c-9.38,1.83-25,4.87-37.22-2.07a27.32,27.32,0,0,1-3.44-2.28c-25.64-20-10.92-80.68,5.08-115.46,4.18-9.1,17.12-35.27,48.65-64.63,47.41-44.15,101.72-62.81,139.43-71.17-11.1,10.9-25.88,28.88-30.5,53.74C1826.53,628.56,1828.65,640.16,1829.35,645.3Z" transform="translate(-39.95 -20.26)"/>
  <path class="cls-16" d="M1676.67,801c9.84-21.88,20.53-43.32,31.78-64.48q8.43-15.85,17.44-31.41c6-10.37,12.16-20.65,18.61-30.74s13-20.09,20.06-29.81c1.71-2.46,3.5-4.86,5.29-7.26s3.54-4.83,5.41-7.17l5.54-7.07,5.74-6.92a288.22,288.22,0,0,1,24.72-26c8.82-8.09,18.38-15.48,29-21.08-10.56,5.68-20.06,13.12-28.81,21.26a288.78,288.78,0,0,0-24.51,26.18l-5.68,7-5.48,7.1c-1.86,2.35-3.57,4.8-5.35,7.2s-3.54,4.82-5.24,7.28c-6.93,9.76-13.46,19.78-19.82,29.91s-12.46,20.44-18.38,30.83-11.65,20.89-17.2,31.49c-11.08,21.2-21.62,42.71-31.27,64.57Z" transform="translate(-39.95 -20.26)"/>
  <path class="cls-63" d="M1827.87,677.63C1817,734,1767,803.6,1707.35,815.22c-9.38,1.83-25,4.87-37.22-2.07,7.29-24.3,30.08-85.3,78.61-100.32C1787.9,700.71,1813.89,688.59,1827.87,677.63Z" transform="translate(-39.95 -20.26)"/>
  <path class="cls-64" d="M1666,813c-15,3-45.66-43.56-43.57-81.33.36-6.42,1.77-14.59,1.45-29A199.06,199.06,0,0,0,1618,659.1c11.18,2.45,29.07,8.23,43.57,23.24C1702.89,725.06,1684.61,809.39,1666,813Z" transform="translate(-39.95 -20.26)"/>
  <path class="cls-16" d="M1688.47,696.13a81.8,81.8,0,0,1,4.37,17.73,113.91,113.91,0,0,1,.69,18.28,145.93,145.93,0,0,1-2,18.18,129.72,129.72,0,0,1-4.4,17.73c.84-2.93,1.55-5.89,2.16-8.87s1.2-6,1.67-9a161.78,161.78,0,0,0,1.88-18.11,122.61,122.61,0,0,0-.52-18.18l-.61-4.51a18.75,18.75,0,0,0-.4-2.24l-.47-2.23-.45-2.24c-.13-.75-.4-1.46-.59-2.19Z" transform="translate(-39.95 -20.26)"/>
  <path class="cls-16" d="M1618,659.1c4.55,4.67,8.92,9.51,13.27,14.37s8.51,9.89,12.59,15a156.83,156.83,0,0,1,11.42,16c.41.71.87,1.4,1.26,2.13l1.14,2.22a16.62,16.62,0,0,1,1,2.35c.25.81.47,1.63.66,2.45a63.49,63.49,0,0,1,1.24,9.84c.33,6.56.21,13.11-.07,19.63s-.69,13-1.34,19.54-1.31,13-2.09,19.45-1.7,12.93-2.78,19.37c.63-6.49,1.28-13,1.8-19.47s1.11-13,1.54-19.47c.82-13,1.66-26,1-38.93a62.74,62.74,0,0,0-1.11-9.55c-.18-.77-.38-1.53-.59-2.27a16.26,16.26,0,0,0-.9-2.14l-1.08-2.14c-.36-.71-.8-1.39-1.2-2.08a192,192,0,0,0-11.07-16c-3.91-5.19-8-10.27-12.12-15.3S1622.25,664.07,1618,659.1Z" transform="translate(-39.95 -20.26)"/>
  <path class="cls-60" d="M1657.25,810.14c8.92-11.34-4.84-40.27-24.69-55.19-18.65-14-40-13.63-47.93-13.07a65.12,65.12,0,0,1,5.81,16c1.83,8.31,1.07,12.87,1.45,17.42,1.26,15.09,15,30.33,30.5,36.31C1631.55,815.12,1650.36,818.89,1657.25,810.14Z" transform="translate(-39.95 -20.26)"/>
  <path class="cls-65" d="M1692.1,801.43s26.14-79.88,85.69-90,77,2.91,77,2.91-9.35,54.4-46.06,62.78-82.2,35.25-82.2,35.25S1670.32,816,1692.1,801.43Z" transform="translate(-39.95 -20.26)"/>
  <path class="cls-55" d="M1731.32,823.21c-10.07-10.51,7-52.74,39.21-71.16,12.83-7.35,36.36-15.66,43.57-7.26,10,11.63-11.64,55.07-46.48,72.61C1764.28,819.09,1739.38,831.62,1731.32,823.21Z" transform="translate(-39.95 -20.26)"/>
  <path class="cls-56" d="M1751.65,808.69a116.66,116.66,0,0,1,8.54-21.05,109,109,0,0,1,12.47-19.09,70.92,70.92,0,0,1,17-15.25,52.4,52.4,0,0,1,10.34-4.92,47.63,47.63,0,0,1,11.17-2.14,54.26,54.26,0,0,0-10.83,3.06,59.41,59.41,0,0,0-9.84,5.31,68.77,68.77,0,0,0-8.69,7,80.92,80.92,0,0,0-7.62,8.19,105.74,105.74,0,0,0-6.72,9c-2.11,3.1-4,6.31-5.93,9.56s-3.62,6.6-5.27,10S1753.08,805.19,1751.65,808.69Z" transform="translate(-39.95 -20.26)"/>
  <rect class="cls-22" x="1561.02" y="779.72" width="200.42" height="42.12" rx="13.01"/>
  <path class="cls-66" d="M1801.39,813v16.09a13,13,0,0,1-13,13h-63.25l1.95-42.12h61.3A13,13,0,0,1,1801.39,813Z" transform="translate(-39.95 -20.26)"/>
  <path class="cls-56" d="M1585.62,741.82a61.44,61.44,0,0,1,22.15,9.37c1.72,1.08,3.29,2.37,4.89,3.6s3.1,2.63,4.53,4.07a77.23,77.23,0,0,1,8,9.14,96.78,96.78,0,0,1,6.59,10.19,103.22,103.22,0,0,1,5.22,10.93,98.41,98.41,0,0,1,6.45,23.2,116,116,0,0,0-3.44-11.49q-2-5.66-4.45-11.1a108.71,108.71,0,0,0-12-20.53,78.9,78.9,0,0,0-7.73-9c-1.36-1.44-2.86-2.73-4.32-4.07s-3-2.55-4.66-3.67-3.27-2.24-4.93-3.32c-.84-.53-1.73-1-2.59-1.47l-1.3-.73c-.44-.23-.89-.43-1.34-.66A74.79,74.79,0,0,0,1585.62,741.82Z" transform="translate(-39.95 -20.26)"/>
  <path class="cls-56" d="M1598.43,770.2a17.84,17.84,0,0,1,10.38-.85,33.75,33.75,0,0,1,9.87,3.71,56.56,56.56,0,0,1,8.66,6,63.19,63.19,0,0,1,7.54,7.27c-1.3-1.17-2.59-2.33-3.94-3.43s-2.68-2.2-4.07-3.24a76.92,76.92,0,0,0-8.67-5.68,38.8,38.8,0,0,0-9.55-3.83,19.89,19.89,0,0,0-5.1-.61A18.24,18.24,0,0,0,1598.43,770.2Z" transform="translate(-39.95 -20.26)"/>
  <path class="cls-67" d="M1656.52,748.42c-3.2-5-19-2.61-26.14,5.81-1.08,1.27-3.5,4.12-2.91,7.26.92,4.85,8.63,8.08,14.53,7.26C1652.3,767.32,1659.64,753.24,1656.52,748.42Z" transform="translate(-39.95 -20.26)"/>
  <path class="cls-67" d="M1654.34,752.05c-6,.85-11.26,16.75-5.81,26.14.58,1,3,5.13,7.27,5.81,4.88.77,9.78-3.32,11.61-7.26C1672,766.94,1660.78,751.13,1654.34,752.05Z" transform="translate(-39.95 -20.26)"/>
  <path class="cls-67" d="M1661.6,753.5c-3.62,2.78.28,19,10.17,23.24,2.47,1,6.82,2,8.71,0,2.91-3.08-1.82-11.21-2.9-13.07s-5.74-9.89-13.32-10.53C1663.07,753,1662.28,753,1661.6,753.5Z" transform="translate(-39.95 -20.26)"/>
  <path class="cls-67" d="M1667.41,750.59a26.2,26.2,0,0,0,5.81,10.17c5.3,5.67,14.37,10,17.43,7.26,2.3-2,1.07-8-1.45-11.62C1685.25,750.66,1676.69,748.38,1667.41,750.59Z" transform="translate(-39.95 -20.26)"/>
  <path class="cls-67" d="M1674.68,752.05c7.32.72,16.79-2.31,17.42-7.26.45-3.49-3.57-7.25-7.26-8.72-9.44-3.76-22.38,5.18-21.78,10.17C1663.48,749.75,1670.67,751.65,1674.68,752.05Z" transform="translate(-39.95 -20.26)"/>
  <path class="cls-67" d="M1680.48,740.43c3.79-4.36,5.78-11.82,2.91-14.53-2.35-2.21-7.18-.53-8.71,0-9.68,3.36-17.18,14.89-14.53,18.89C1662.59,748.46,1674.58,747.23,1680.48,740.43Z" transform="translate(-39.95 -20.26)"/>
  <path class="cls-67" d="M1673.22,733.17c2.69-7.37-4.64-17.47-13.07-17.43-5,0-10.3,3.65-11.62,8.71-1.94,7.45,5.25,15.77,13.07,16C1666.35,740.55,1671.57,737.7,1673.22,733.17Z" transform="translate(-39.95 -20.26)"/>
  <path class="cls-67" d="M1650,730.26c-2.78-.86-11-3.45-16,1.45a10.06,10.06,0,0,0-2.9,8.72c1.08,5.64,7.85,8.78,13.07,8.71,8.17-.1,15.78-8.08,14.52-13.07C1657.85,732.72,1653.13,731.24,1650,730.26Z" transform="translate(-39.95 -20.26)"/>
  <path class="cls-68" d="M1654.34,741.88c-.36.57-2.89,4.61-1.45,8.71,1.75,5,8.31,7.06,13.07,5.81,1-.24,4.59-1.19,5.81-4.35,1.81-4.66-3.75-9.64-4.36-10.17-.43-.38-5.83-5-10.16-2.9A7.22,7.22,0,0,0,1654.34,741.88Z" transform="translate(-39.95 -20.26)"/>
  <path class="cls-69" d="M1715.34,805.78A173.6,173.6,0,0,1,1739,768.52a170.13,170.13,0,0,1,15.1-16.21,155.33,155.33,0,0,1,17.12-14.11,138.27,138.27,0,0,1,19.08-11.32c1.64-.87,3.35-1.59,5-2.33s3.37-1.55,5.12-2.15l5.21-1.93c1.76-.57,3.54-1.07,5.31-1.61a126.12,126.12,0,0,1,43.82-4.57c-7.35.07-14.71.17-22,1.33-3.65.37-7.23,1.2-10.83,1.86-1.78.38-3.54.89-5.32,1.34l-2.65.68c-.88.26-1.74.56-2.62.84a136.48,136.48,0,0,0-39.05,19.49c-12,8.33-22.64,18.58-32.19,29.67A202.1,202.1,0,0,0,1726.76,787,174.08,174.08,0,0,0,1715.34,805.78Z" transform="translate(-39.95 -20.26)"/>
  <path class="cls-70" d="M1745.84,760.76a174,174,0,0,1,21.92-10.45A155.74,155.74,0,0,1,1791,743c7.94-1.72,16.14-2.81,24.33-2a37.06,37.06,0,0,1,11.88,3.06,24,24,0,0,1,9.41,7.64,24.91,24.91,0,0,0-9.79-6.74,38.82,38.82,0,0,0-11.63-2.4,69.11,69.11,0,0,0-11.94.39,108.26,108.26,0,0,0-11.83,2,195.83,195.83,0,0,0-23.11,6.8q-5.7,2-11.31,4.28C1753.24,757.52,1749.54,759.12,1745.84,760.76Z" transform="translate(-39.95 -20.26)"/>
  <path class="cls-16" d="M1705.38,743.66a192.94,192.94,0,0,1,39.9-44.23,137.92,137.92,0,0,1,25.16-16.11,111.55,111.55,0,0,1,13.86-5.6,101,101,0,0,1,14.55-3.37,100.51,100.51,0,0,0-14.43,3.72,111.63,111.63,0,0,0-13.73,5.77,141.89,141.89,0,0,0-25,16.18A192.84,192.84,0,0,0,1724,720.4q-5.05,5.48-9.73,11.3C1711.17,735.57,1708.15,739.53,1705.38,743.66Z" transform="translate(-39.95 -20.26)"/>
  <path class="cls-16" d="M1720.42,645.3a85.81,85.81,0,0,1,2.85,19c.06,1.6.14,3.21.17,4.81l0,4.81c0,1.61-.1,3.21-.15,4.81s-.12,3.21-.24,4.81c-.45,6.4-1.16,12.78-2.09,19.12s-2.06,12.65-3.54,18.89c.53-3.16,1-6.32,1.48-9.49s.92-6.33,1.3-9.51c.77-6.34,1.48-12.7,1.85-19.08a188.1,188.1,0,0,0,.49-19.14c0-1.6-.11-3.19-.21-4.79s-.17-3.19-.39-4.77-.31-3.18-.6-4.75Z" transform="translate(-39.95 -20.26)"/>
</svg>
